<?xml version="1.0" encoding="UTF-8"?>
<svg version="1.1" xmlns="http://www.w3.org/2000/svg" width="600" height="372">
<path d="M0 0 C96 0 192 0 288 0 C289.01360115 3.61756641 288.92967897 6.49661497 288.5625 10.25 C288.46066406 11.32765625 288.35882812 12.4053125 288.25390625 13.515625 C288.17011719 14.33546875 288.08632813 15.1553125 288 16 C288.90363281 15.97679688 289.80726563 15.95359375 290.73828125 15.9296875 C291.91777344 15.91164063 293.09726562 15.89359375 294.3125 15.875 C296.07013672 15.84019531 296.07013672 15.84019531 297.86328125 15.8046875 C301 16 301 16 304 18 C304.22107787 20.7885289 304.28107535 23.34653181 304.1875 26.125 C304.17396484 26.87910156 304.16042969 27.63320312 304.14648438 28.41015625 C304.11109985 30.27374127 304.05729167 32.13695978 304 34 C305.04800781 34 306.09601563 34 307.17578125 34 C312.1171875 34 317.05859375 34 322 34 C322.625 35.875 322.625 35.875 323 38 C322.34 38.66 321.68 39.32 321 40 C320.70099952 42.45904352 320.70099952 42.45904352 320.75949097 45.3656311 C320.75674164 46.50429123 320.75399231 47.64295135 320.75115967 48.81611633 C320.75835022 50.07127548 320.76554077 51.32643463 320.77294922 52.61962891 C320.77251114 54.59516502 320.77251114 54.59516502 320.77206421 56.61061096 C320.77148897 60.22819996 320.78327076 63.84565708 320.79721212 67.46321535 C320.80969114 71.24153257 320.81088774 75.01985261 320.81326294 78.79818726 C320.81948605 85.95571689 320.83590807 93.11318563 320.85596192 100.27068841 C320.87829511 108.41809238 320.88930785 116.56549921 320.89935279 124.71292615 C320.92027361 141.47531978 320.95546567 158.23765213 321 175 C321.33 175 321.66 175 322 175 C322 176.65 322 178.3 322 180 C321.34 180 320.68 180 320 180 C319.67 181.32 319.34 182.64 319 184 C315.04 184.33 311.08 184.66 307 185 C306.67 188.96 306.34 192.92 306 197 C305.01 197.33 304.02 197.66 303 198 C303.33 198.66 303.66 199.32 304 200 C298.72 200 293.44 200 288 200 C288.33 204.62 288.66 209.24 289 214 C284.70559941 214.71573343 281.27311704 215.12172187 277.0142765 215.10743046 C275.8319093 215.10593811 274.6495421 215.10444576 273.43134558 215.10290819 C272.141464 215.0961044 270.85158242 215.08930061 269.52261353 215.08229065 C268.13150336 215.07859448 266.74039194 215.07534581 265.34927976 215.07250541 C261.53188253 215.06341839 257.71453328 215.04798961 253.89716172 215.03152263 C249.77863027 215.0148685 245.66008294 215.00409949 241.54153442 214.99261475 C234.40760562 214.97191646 227.27369738 214.94749173 220.13978958 214.92053413 C209.82536335 214.88156339 199.51092496 214.84821552 189.19647495 214.81623887 C172.46186078 214.76420591 155.72726519 214.70762714 138.99267578 214.64819336 C122.73682376 214.59046956 106.48096675 214.53488437 90.22509766 214.48217773 C89.22304348 214.47892802 88.22098931 214.4756783 87.18856986 214.4723301 C82.16154584 214.45604038 77.13452168 214.43979272 72.10749745 214.42356598 C30.40497538 214.28889994 -11.29751919 214.14685805 -53 214 C-52.34 214.66 -51.68 215.32 -51 216 C-50.875 219.625 -50.875 219.625 -51 223 C-51.33 223 -51.66 223 -52 223 C-52.33 225.31 -52.66 227.62 -53 230 C-58.28 230 -63.56 230 -69 230 C-69 235.28 -69 240.56 -69 246 C-73.23641013 246.84728203 -76.72412002 247.08384078 -81 247 C-77.37 247.33 -73.74 247.66 -70 248 C-70.33 248.66 -70.66 249.32 -71 250 C-74.96 249.67 -78.92 249.34 -83 249 C-83 252.96 -83 256.92 -83 261 C-87.33938291 263.16969145 -89.48390408 263.21326104 -94.25 263.125 C-95.51328125 263.10695313 -96.7765625 263.08890625 -98.078125 263.0703125 C-99.52445313 263.03550781 -99.52445313 263.03550781 -101 263 C-101 263.33 -101 263.66 -101 264 C-96.38 264 -91.76 264 -87 264 C-87 264.33 -87 264.66 -87 265 C-91.29 265 -95.58 265 -100 265 C-100 269.62 -100 274.24 -100 279 C-106.75 280.125 -106.75 280.125 -110.0859375 279.87890625 C-110.78847656 279.83056641 -111.49101562 279.78222656 -112.21484375 279.73242188 C-112.92769531 279.67634766 -113.64054687 279.62027344 -114.375 279.5625 C-115.11105469 279.51029297 -115.84710938 279.45808594 -116.60546875 279.40429688 C-118.40410629 279.27582277 -120.20212909 279.13879051 -122 279 C-122.9119731 271.61578456 -123.10772044 264.3716541 -123.02734375 256.9375 C-123.01471546 254.65494933 -123.00235322 252.37239718 -122.99023438 250.08984375 C-122.96527972 246.52355223 -122.93710462 242.9573393 -122.90405273 239.39111328 C-122.87400963 235.92740351 -122.85614223 232.4637977 -122.83984375 229 C-122.82638412 227.92613037 -122.8129245 226.85226074 -122.79905701 225.74584961 C-122.79567825 224.75721924 -122.7922995 223.76858887 -122.78881836 222.75 C-122.78136093 221.87859375 -122.7739035 221.0071875 -122.76622009 220.109375 C-122.80181304 217.78157853 -122.80181304 217.78157853 -125 216 C-124.01 216 -123.02 216 -122 216 C-122 215.34 -122 214.68 -122 214 C-137.51 214 -153.02 214 -169 214 C-169 208.72 -169 203.44 -169 198 C-173.89153471 198.0395679 -173.89153471 198.0395679 -178.78295898 198.09008789 C-180.52221717 198.09724913 -182.26145304 198.05024702 -184 198 C-185 197 -185 197 -185.09765625 193.62109375 C-185.09191424 192.22652508 -185.07890228 190.83198403 -185.0625 189.4375 C-185.041875 186.983125 -185.02125 184.52875 -185 182 C-190.94 182 -196.88 182 -203 182 C-202.67 180.02 -202.34 178.04 -202 176 C-202.66 176 -203.32 176 -204 176 C-204 146.96 -204 117.92 -204 88 C-203.34 88 -202.68 88 -202 88 C-202 83.05 -202 78.1 -202 73 C-202.66 73 -203.32 73 -204 73 C-204.02687279 71.18757948 -204.04633715 69.37504767 -204.0625 67.5625 C-204.07410156 66.55316406 -204.08570313 65.54382813 -204.09765625 64.50390625 C-204 62 -204 62 -203 61 C-203.40929986 58.94603274 -203.40929986 58.94603274 -204 57 C-203.34 57 -202.68 57 -202 57 C-202 56.01 -202 55.02 -202 54 C-202.66 54 -203.32 54 -204 54 C-204 51.69 -204 49.38 -204 47 C-203.34 47 -202.68 47 -202 47 C-202 46.01 -202 45.02 -202 44 C-202.66 43.67 -203.32 43.34 -204 43 C-203.34 43 -202.68 43 -202 43 C-202.33 40.36 -202.66 37.72 -203 35 C-199.81175432 33.40587716 -196.37103338 33.89825265 -192.875 33.9375 C-192.12089844 33.94201172 -191.36679688 33.94652344 -190.58984375 33.95117188 C-188.72652873 33.96296501 -186.86325445 33.98090058 -185 34 C-185.01160156 32.86820313 -185.02320313 31.73640625 -185.03515625 30.5703125 C-185.04453454 29.08854331 -185.0536347 27.60677235 -185.0625 26.125 C-185.07087891 25.37863281 -185.07925781 24.63226563 -185.08789062 23.86328125 C-185.11328125 18.2265625 -185.11328125 18.2265625 -184 16 C-179.71 16 -175.42 16 -171 16 C-171 13.03 -171 10.06 -171 7 C-170.67 7 -170.34 7 -170 7 C-170.01160156 7.71027344 -170.02320313 8.42054687 -170.03515625 9.15234375 C-170.04417969 10.07144531 -170.05320313 10.99054687 -170.0625 11.9375 C-170.07410156 12.85402344 -170.08570313 13.77054688 -170.09765625 14.71484375 C-170.25949049 16.96593327 -170.25949049 16.96593327 -169 18 C-169.08378906 16.92878906 -169.16757813 15.85757813 -169.25390625 14.75390625 C-169.35704896 13.35679134 -169.45989843 11.95965476 -169.5625 10.5625 C-169.64661133 9.50192383 -169.64661133 9.50192383 -169.73242188 8.41992188 C-169.86190993 6.61572163 -169.93521608 4.80768048 -170 3 C-167.98123029 0.98123029 -163.87550403 1.74329687 -161.10302734 1.68579102 C-160.26001194 1.66513266 -159.41699654 1.6444743 -158.54843521 1.62318993 C-155.68604014 1.55611922 -152.82355721 1.49804435 -149.9609375 1.44140625 C-148.95856426 1.42034883 -147.95619102 1.39929142 -146.92344284 1.3775959 C-119.58672622 0.81523648 -92.24571866 0.88298887 -64.90477443 0.92797244 C-57.80116132 0.93944968 -50.69754684 0.94472207 -43.59392667 0.94967639 C-29.06260832 0.95993977 -14.5313045 0.97735468 0 1 C0 0.67 0 0.34 0 0 Z M100 1 C100 1.33 100 1.66 100 2 C126.4 2 152.8 2 180 2 C180 1.67 180 1.34 180 1 C153.6 1 127.2 1 100 1 Z M-203 167 C-203 169.31 -203 171.62 -203 174 C-202.67 174 -202.34 174 -202 174 C-202 171.69 -202 169.38 -202 167 C-202.33 167 -202.66 167 -203 167 Z M-121 214 C-121 228.85 -121 243.7 -121 259 C-120.67 259 -120.34 259 -120 259 C-120 244.15 -120 229.3 -120 214 C-120.33 214 -120.66 214 -121 214 Z M-85 249 C-85 252.63 -85 256.26 -85 260 C-84.67 260 -84.34 260 -84 260 C-84 256.37 -84 252.74 -84 249 C-84.33 249 -84.66 249 -85 249 Z " fill="#FEFEFE" transform="translate(244,51)"/>
<path d="M0 0 C96 0 192 0 288 0 C289.01360115 3.61756641 288.92967897 6.49661497 288.5625 10.25 C288.46066406 11.32765625 288.35882812 12.4053125 288.25390625 13.515625 C288.17011719 14.33546875 288.08632813 15.1553125 288 16 C288.90363281 15.97679688 289.80726563 15.95359375 290.73828125 15.9296875 C291.91777344 15.91164063 293.09726562 15.89359375 294.3125 15.875 C296.07013672 15.84019531 296.07013672 15.84019531 297.86328125 15.8046875 C301 16 301 16 304 18 C304.22107787 20.7885289 304.28107535 23.34653181 304.1875 26.125 C304.17396484 26.87910156 304.16042969 27.63320312 304.14648438 28.41015625 C304.11109985 30.27374127 304.05729167 32.13695978 304 34 C305.04800781 34 306.09601563 34 307.17578125 34 C312.1171875 34 317.05859375 34 322 34 C322.625 35.875 322.625 35.875 323 38 C322.34 38.66 321.68 39.32 321 40 C320.70099952 42.45904352 320.70099952 42.45904352 320.75949097 45.3656311 C320.75674164 46.50429123 320.75399231 47.64295135 320.75115967 48.81611633 C320.75835022 50.07127548 320.76554077 51.32643463 320.77294922 52.61962891 C320.77251114 54.59516502 320.77251114 54.59516502 320.77206421 56.61061096 C320.77148897 60.22819996 320.78327076 63.84565708 320.79721212 67.46321535 C320.80969114 71.24153257 320.81088774 75.01985261 320.81326294 78.79818726 C320.81948605 85.95571689 320.83590807 93.11318563 320.85596192 100.27068841 C320.87829511 108.41809238 320.88930785 116.56549921 320.89935279 124.71292615 C320.92027361 141.47531978 320.95546567 158.23765213 321 175 C321.33 175 321.66 175 322 175 C322 176.65 322 178.3 322 180 C321.34 180 320.68 180 320 180 C319.67 181.32 319.34 182.64 319 184 C315.04 184.33 311.08 184.66 307 185 C306.67 188.96 306.34 192.92 306 197 C305.01 197.33 304.02 197.66 303 198 C303.33 198.66 303.66 199.32 304 200 C298.72 200 293.44 200 288 200 C288.33 204.62 288.66 209.24 289 214 C284.70559941 214.71573343 281.27311704 215.12172187 277.0142765 215.10743046 C275.8319093 215.10593811 274.6495421 215.10444576 273.43134558 215.10290819 C272.141464 215.0961044 270.85158242 215.08930061 269.52261353 215.08229065 C268.13150336 215.07859448 266.74039194 215.07534581 265.34927976 215.07250541 C261.53188253 215.06341839 257.71453328 215.04798961 253.89716172 215.03152263 C249.77863027 215.0148685 245.66008294 215.00409949 241.54153442 214.99261475 C234.40760562 214.97191646 227.27369738 214.94749173 220.13978958 214.92053413 C209.82536335 214.88156339 199.51092496 214.84821552 189.19647495 214.81623887 C172.46186078 214.76420591 155.72726519 214.70762714 138.99267578 214.64819336 C122.73682376 214.59046956 106.48096675 214.53488437 90.22509766 214.48217773 C89.22304348 214.47892802 88.22098931 214.4756783 87.18856986 214.4723301 C82.16154584 214.45604038 77.13452168 214.43979272 72.10749745 214.42356598 C30.40497538 214.28889994 -11.29751919 214.14685805 -53 214 C-52.34 214.66 -51.68 215.32 -51 216 C-50.875 219.625 -50.875 219.625 -51 223 C-51.33 223 -51.66 223 -52 223 C-52.33 225.31 -52.66 227.62 -53 230 C-58.28 230 -63.56 230 -69 230 C-69 235.28 -69 240.56 -69 246 C-73.23641013 246.84728203 -76.72412002 247.08384078 -81 247 C-77.37 247.33 -73.74 247.66 -70 248 C-70.33 248.66 -70.66 249.32 -71 250 C-74.96 249.67 -78.92 249.34 -83 249 C-83 252.96 -83 256.92 -83 261 C-87.33938291 263.16969145 -89.48390408 263.21326104 -94.25 263.125 C-95.51328125 263.10695313 -96.7765625 263.08890625 -98.078125 263.0703125 C-99.52445313 263.03550781 -99.52445313 263.03550781 -101 263 C-101 263.33 -101 263.66 -101 264 C-96.38 264 -91.76 264 -87 264 C-87 264.33 -87 264.66 -87 265 C-91.29 265 -95.58 265 -100 265 C-100 269.62 -100 274.24 -100 279 C-106.75 280.125 -106.75 280.125 -110.0859375 279.87890625 C-110.78847656 279.83056641 -111.49101562 279.78222656 -112.21484375 279.73242188 C-112.92769531 279.67634766 -113.64054687 279.62027344 -114.375 279.5625 C-115.11105469 279.51029297 -115.84710938 279.45808594 -116.60546875 279.40429688 C-118.40410629 279.27582277 -120.20212909 279.13879051 -122 279 C-122.9119731 271.61578456 -123.10772044 264.3716541 -123.02734375 256.9375 C-123.01471546 254.65494933 -123.00235322 252.37239718 -122.99023438 250.08984375 C-122.96527972 246.52355223 -122.93710462 242.9573393 -122.90405273 239.39111328 C-122.87400963 235.92740351 -122.85614223 232.4637977 -122.83984375 229 C-122.82638412 227.92613037 -122.8129245 226.85226074 -122.79905701 225.74584961 C-122.79567825 224.75721924 -122.7922995 223.76858887 -122.78881836 222.75 C-122.78136093 221.87859375 -122.7739035 221.0071875 -122.76622009 220.109375 C-122.80181304 217.78157853 -122.80181304 217.78157853 -125 216 C-124.01 216 -123.02 216 -122 216 C-122 215.34 -122 214.68 -122 214 C-137.51 214 -153.02 214 -169 214 C-169 208.72 -169 203.44 -169 198 C-173.89153471 198.0395679 -173.89153471 198.0395679 -178.78295898 198.09008789 C-180.52221717 198.09724913 -182.26145304 198.05024702 -184 198 C-185 197 -185 197 -185.09765625 193.62109375 C-185.09191424 192.22652508 -185.07890228 190.83198403 -185.0625 189.4375 C-185.041875 186.983125 -185.02125 184.52875 -185 182 C-190.94 182 -196.88 182 -203 182 C-202.67 180.02 -202.34 178.04 -202 176 C-202.66 176 -203.32 176 -204 176 C-204 146.96 -204 117.92 -204 88 C-203.34 88 -202.68 88 -202 88 C-202 83.05 -202 78.1 -202 73 C-202.66 73 -203.32 73 -204 73 C-204.02687279 71.18757948 -204.04633715 69.37504767 -204.0625 67.5625 C-204.07410156 66.55316406 -204.08570313 65.54382813 -204.09765625 64.50390625 C-204 62 -204 62 -203 61 C-203.40929986 58.94603274 -203.40929986 58.94603274 -204 57 C-203.34 57 -202.68 57 -202 57 C-202 56.01 -202 55.02 -202 54 C-202.66 54 -203.32 54 -204 54 C-204 51.69 -204 49.38 -204 47 C-203.34 47 -202.68 47 -202 47 C-202 46.01 -202 45.02 -202 44 C-202.66 43.67 -203.32 43.34 -204 43 C-203.34 43 -202.68 43 -202 43 C-202.33 40.36 -202.66 37.72 -203 35 C-199.81175432 33.40587716 -196.37103338 33.89825265 -192.875 33.9375 C-192.12089844 33.94201172 -191.36679688 33.94652344 -190.58984375 33.95117188 C-188.72652873 33.96296501 -186.86325445 33.98090058 -185 34 C-185.01160156 32.86820313 -185.02320313 31.73640625 -185.03515625 30.5703125 C-185.04453454 29.08854331 -185.0536347 27.60677235 -185.0625 26.125 C-185.07087891 25.37863281 -185.07925781 24.63226563 -185.08789062 23.86328125 C-185.11328125 18.2265625 -185.11328125 18.2265625 -184 16 C-179.71 16 -175.42 16 -171 16 C-171 13.03 -171 10.06 -171 7 C-170.67 7 -170.34 7 -170 7 C-170.01160156 7.71027344 -170.02320313 8.42054687 -170.03515625 9.15234375 C-170.04417969 10.07144531 -170.05320313 10.99054687 -170.0625 11.9375 C-170.07410156 12.85402344 -170.08570313 13.77054688 -170.09765625 14.71484375 C-170.25949049 16.96593327 -170.25949049 16.96593327 -169 18 C-169.08378906 16.92878906 -169.16757813 15.85757813 -169.25390625 14.75390625 C-169.35704896 13.35679134 -169.45989843 11.95965476 -169.5625 10.5625 C-169.64661133 9.50192383 -169.64661133 9.50192383 -169.73242188 8.41992188 C-169.86190993 6.61572163 -169.93521608 4.80768048 -170 3 C-167.98123029 0.98123029 -163.87550403 1.74329687 -161.10302734 1.68579102 C-160.26001194 1.66513266 -159.41699654 1.6444743 -158.54843521 1.62318993 C-155.68604014 1.55611922 -152.82355721 1.49804435 -149.9609375 1.44140625 C-148.95856426 1.42034883 -147.95619102 1.39929142 -146.92344284 1.3775959 C-119.58672622 0.81523648 -92.24571866 0.88298887 -64.90477443 0.92797244 C-57.80116132 0.93944968 -50.69754684 0.94472207 -43.59392667 0.94967639 C-29.06260832 0.95993977 -14.5313045 0.97735468 0 1 C0 0.67 0 0.34 0 0 Z M100 1 C100 1.33 100 1.66 100 2 C126.4 2 152.8 2 180 2 C180 1.67 180 1.34 180 1 C153.6 1 127.2 1 100 1 Z M-168 19 C-168 24.28 -168 29.56 -168 35 C-173.28 35 -178.56 35 -184 35 C-184 83.18 -184 131.36 -184 181 C-178.72 181 -173.44 181 -168 181 C-168 186.28 -168 191.56 -168 197 C-146.22 197 -124.44 197 -102 197 C-102 212.84 -102 228.68 -102 245 C-97.05 245 -92.1 245 -87 245 C-87 239.72 -87 234.44 -87 229 C-81.39 229 -75.78 229 -70 229 C-70 223.72 -70 218.44 -70 213 C-64.72 213 -59.44 213 -54 213 C-54 207.72 -54 202.44 -54 197 C58.53 197 171.06 197 287 197 C287 191.72 287 186.44 287 181 C292.28 181 297.56 181 303 181 C303 132.82 303 84.64 303 35 C297.72 35 292.44 35 287 35 C287 29.72 287 24.44 287 19 C136.85 19 -13.3 19 -168 19 Z M-203 167 C-203 169.31 -203 171.62 -203 174 C-202.67 174 -202.34 174 -202 174 C-202 171.69 -202 169.38 -202 167 C-202.33 167 -202.66 167 -203 167 Z M-121 214 C-121 228.85 -121 243.7 -121 259 C-120.67 259 -120.34 259 -120 259 C-120 244.15 -120 229.3 -120 214 C-120.33 214 -120.66 214 -121 214 Z M-85 249 C-85 252.63 -85 256.26 -85 260 C-84.67 260 -84.34 260 -84 260 C-84 256.37 -84 252.74 -84 249 C-84.33 249 -84.66 249 -85 249 Z " fill="#241B1F" transform="translate(244,51)"/>
<path d="M0 0 C111.87 0 223.74 0 339 0 C339 4.95 339 9.9 339 15 C320.85 15 302.7 15 284 15 C284 14.34 284 13.68 284 13 C283.34 13.66 282.68 14.32 282 15 C279.41543147 15.19311947 276.93848627 15.26232507 274.35327148 15.24291992 C273.56454651 15.24481827 272.77582153 15.24671661 271.9631958 15.24867249 C269.34906155 15.25238545 266.73520342 15.2416696 264.12109375 15.23046875 C262.31030815 15.22927723 260.49952193 15.22882373 258.68873596 15.2290802 C254.89149107 15.22751449 251.09434035 15.21921749 247.29711914 15.20581055 C242.41864457 15.18880848 237.54027346 15.18499649 232.66177273 15.18575573 C228.92241927 15.18548442 225.18308864 15.18000973 221.44374275 15.17275429 C219.64432002 15.16956217 217.84489469 15.16759895 216.04546928 15.16686058 C213.53604558 15.16470342 211.02673383 15.15597319 208.51733398 15.14526367 C207.3913253 15.14594345 207.3913253 15.14594345 206.24256897 15.14663696 C201.11447483 15.11447483 201.11447483 15.11447483 200 14 C200 14.33 200 14.66 200 15 C134 15 68 15 0 15 C0 10.05 0 5.1 0 0 Z " fill="#000000" transform="translate(191,249)"/>
<path d="M0 0 C0.71274078 -0.00073013 1.42548157 -0.00146027 2.15982056 -0.00221252 C4.50341297 0.0012565 6.84498959 0.04007988 9.18823242 0.0793457 C10.81775324 0.0886764 12.44728812 0.0957913 14.076828 0.1007843 C18.35646597 0.11983426 22.63524941 0.16891679 26.91455078 0.2243042 C31.28495729 0.27554051 35.65550248 0.29830763 40.02612305 0.32348633 C48.59487366 0.37703839 57.16293098 0.46232575 65.73120117 0.56762695 C63.955653 3.6064503 62.35198946 6.19643755 59.73120117 8.56762695 C61.05120117 9.55762695 62.37120117 10.54762695 63.73120117 11.56762695 C63.23620117 10.08262695 63.23620117 10.08262695 62.73120117 8.56762695 C63.39120117 7.90762695 64.05120117 7.24762695 64.73120117 6.56762695 C65.72120117 7.22762695 66.71120117 7.88762695 67.73120117 8.56762695 C67.73120117 7.57762695 67.73120117 6.58762695 67.73120117 5.56762695 C68.39120117 5.23762695 69.05120117 4.90762695 69.73120117 4.56762695 C69.73120117 3.24762695 69.73120117 1.92762695 69.73120117 0.56762695 C149.59120117 0.56762695 229.45120117 0.56762695 311.73120117 0.56762695 C311.40120117 1.22762695 311.07120117 1.88762695 310.73120117 2.56762695 C310.07120117 2.56762695 309.41120117 2.56762695 308.73120117 2.56762695 C309.39120117 3.88762695 310.05120117 5.20762695 310.73120117 6.56762695 C311.72120117 6.56762695 312.71120117 6.56762695 313.73120117 6.56762695 C313.73120117 5.90762695 313.73120117 5.24762695 313.73120117 4.56762695 C314.39120117 4.56762695 315.05120117 4.56762695 315.73120117 4.56762695 C315.73120117 3.90762695 315.73120117 3.24762695 315.73120117 2.56762695 C316.39120117 2.56762695 317.05120117 2.56762695 317.73120117 2.56762695 C317.73120117 1.90762695 317.73120117 1.24762695 317.73120117 0.56762695 C320.04120117 0.56762695 322.35120117 0.56762695 324.73120117 0.56762695 C324.73120117 5.18762695 324.73120117 9.80762695 324.73120117 14.56762695 C210.88120117 14.56762695 97.03120117 14.56762695 -20.26879883 14.56762695 C-18.26879883 8.56762695 -18.26879883 8.56762695 -16.26879883 5.56762695 C-14.94879883 5.56762695 -13.62879883 5.56762695 -12.26879883 5.56762695 C-11.5112178 4.75433426 -10.75363678 3.94104156 -9.97309875 3.10310364 C-6.47680908 -0.17492069 -4.73103037 -0.04085518 0 0 Z " fill="#000000" transform="translate(205.268798828125,54.432373046875)"/>
<path d="M0 0 C5.28 0 10.56 0 16 0 C16 4.95 16 9.9 16 15 C37.45 15 58.9 15 81 15 C81 31.17 81 47.34 81 64 C86.28 64 91.56 64 97 64 C97 64.99 97 65.98 97 67 C97.66 67 98.32 67 99 67 C99.495 72.94 99.495 72.94 100 79 C96.2632157 81.49118953 94.25548181 81.2065226 89.8125 81.125 C88.54019531 81.10695313 87.26789063 81.08890625 85.95703125 81.0703125 C84.98121094 81.04710937 84.00539063 81.02390625 83 81 C83 81.33 83 81.66 83 82 C87.62 82 92.24 82 97 82 C97 82.33 97 82.66 97 83 C92.71 83 88.42 83 84 83 C84 87.62 84 92.24 84 97 C77.25 98.125 77.25 98.125 73.9140625 97.87890625 C73.21152344 97.83056641 72.50898438 97.78222656 71.78515625 97.73242188 C71.07230469 97.67634766 70.35945313 97.62027344 69.625 97.5625 C68.88894531 97.51029297 68.15289062 97.45808594 67.39453125 97.40429688 C65.59589371 97.27582277 63.79787091 97.13879051 62 97 C61.0880269 89.61578456 60.89227956 82.3716541 60.97265625 74.9375 C60.98528454 72.65494933 60.99764678 70.37239718 61.00976562 68.08984375 C61.03472028 64.52355223 61.06289538 60.9573393 61.09594727 57.39111328 C61.12599037 53.92740351 61.14385777 50.4637977 61.16015625 47 C61.17361588 45.92613037 61.1870755 44.85226074 61.20094299 43.74584961 C61.20432175 42.75721924 61.2077005 41.76858887 61.21118164 40.75 C61.21863907 39.87859375 61.2260965 39.0071875 61.23377991 38.109375 C61.19818696 35.78157853 61.19818696 35.78157853 59 34 C59.99 34 60.98 34 62 34 C62 33.34 62 32.68 62 32 C46.49 32 30.98 32 15 32 C15 26.72 15 21.44 15 16 C10.05 16 5.1 16 0 16 C0 10.72 0 5.44 0 0 Z M63 32 C63 46.85 63 61.7 63 77 C63.33 77 63.66 77 64 77 C64 62.15 64 47.3 64 32 C63.67 32 63.34 32 63 32 Z " fill="#080606" transform="translate(60,233)"/>
<path d="M0 0 C0.66 1.32 1.32 2.64 2 4 C1.34 4.66 0.68 5.32 0 6 C-0.31222823 8.50286828 -0.31222823 8.50286828 -0.27174377 11.46606445 C-0.2814621 12.62707672 -0.29118042 13.78808899 -0.30119324 14.98428345 C-0.30178238 16.26435272 -0.30237152 17.544422 -0.30297852 18.86328125 C-0.3106367 20.21992501 -0.31918249 21.57656401 -0.32855225 22.93319702 C-0.34685445 25.85792568 -0.3588779 28.78259009 -0.36609077 31.70736694 C-0.37755423 36.32882681 -0.40300016 40.95014429 -0.43040466 45.5715332 C-0.47208628 52.87891649 -0.50448639 60.18630655 -0.53287882 67.49375248 C-0.58382555 80.58476024 -0.64592589 93.6757088 -0.71821922 106.76661587 C-0.74318059 111.36396941 -0.7625947 115.96130413 -0.77760136 120.55870056 C-0.78778551 123.41480832 -0.80193152 126.27088687 -0.81707764 129.1269722 C-0.82619835 131.08987422 -0.83032786 133.05279743 -0.83433533 135.01571655 C-0.84123383 136.17672882 -0.84813232 137.33774109 -0.85523987 138.53393555 C-0.85909478 139.54715378 -0.8629497 140.56037201 -0.86692142 141.60429382 C-1 144 -1 144 -2 146 C-6.95 146 -11.9 146 -17 146 C-17 98.15 -17 50.3 -17 1 C-11.72 1 -6.44 1 -1 1 C-0.67 0.67 -0.34 0.34 0 0 Z " fill="#000000" transform="translate(565,85)"/>
<path d="M0 0 C4.29 0 8.58 0 13 0 C13 33.33 13 66.66 13 101 C12.34 101 11.68 101 11 101 C11 101.66 11 102.32 11 103 C9.125 105.125 9.125 105.125 7 107 C6.34 107 5.68 107 5 107 C5.33 108.65 5.66 110.3 6 112 C6.66 112 7.32 112 8 112 C8.33 111.01 8.66 110.02 9 109 C9.99 109.33 10.98 109.66 12 110 C11.67 109.01 11.34 108.02 11 107 C11.99 107 12.98 107 14 107 C14 119.21 14 131.42 14 144 C9.05 144 4.1 144 -1 144 C-1.02314036 125.81535174 -1.04099023 107.63070853 -1.05181217 89.44604874 C-1.05697035 81.00276437 -1.06400397 72.55948932 -1.07543945 64.11621094 C-1.08540087 56.75779646 -1.09185691 49.39938873 -1.09408849 42.0409677 C-1.09539312 38.14408645 -1.09846333 34.2472245 -1.10573006 30.35034943 C-1.11251323 26.68310336 -1.11461226 23.01588455 -1.11310768 19.34863281 C-1.11351431 17.3598394 -1.11889757 15.37104897 -1.12442017 13.38226318 C-1.12235817 11.60704285 -1.12235817 11.60704285 -1.12025452 9.79595947 C-1.12117631 8.7672385 -1.1220981 7.73851753 -1.12304783 6.6786232 C-1 4 -1 4 0 0 Z " fill="#020000" transform="translate(45,87)"/>
<path d="M0 0 C37.29 0 74.58 0 113 0 C112.34 0.33 111.68 0.66 111 1 C111 1.99 111 2.98 111 4 C109.0332738 5.93160609 106.91042232 7.57091566 104.75 9.28125 C104.1725 9.8484375 103.595 10.415625 103 11 C103 11.99 103 12.98 103 14 C69.01 14 35.02 14 0 14 C0 9.38 0 4.76 0 0 Z " fill="#000000" transform="translate(77,55)"/>
<path d="M0 0 C96 0 192 0 288 0 C289.51641724 5.41212888 288.54414013 10.43767869 288 16 C292.29 16 296.58 16 301 16 C301 16.33 301 16.66 301 17 C295.555 17.495 295.555 17.495 290 18 C290 18.33 290 18.66 290 19 C174.5 19 59 19 -60 19 C-60 18.67 -60 18.34 -60 18 C54.18 18 168.36 18 286 18 C286 13.05 286 8.1 286 3 C173.8 3 61.6 3 -54 3 C-54 2.67 -54 2.34 -54 2 C-27.27 1.505 -27.27 1.505 0 1 C0 0.67 0 0.34 0 0 Z M100 1 C100 1.33 100 1.66 100 2 C126.4 2 152.8 2 180 2 C180 1.67 180 1.34 180 1 C153.6 1 127.2 1 100 1 Z " fill="#5E5A5C" transform="translate(244,51)"/>
<path d="M0 0 C0.33 0 0.66 0 1 0 C1 3.96 1 7.92 1 12 C-3.62 12 -8.24 12 -13 12 C-13 65.46 -13 118.92 -13 174 C-7.72 174 -2.44 174 3 174 C3 174.33 3 174.66 3 175 C-2.28 175 -7.56 175 -13 175 C-13 179.95 -13 184.9 -13 190 C-13.33 190 -13.66 190 -14 190 C-14 185.05 -14 180.1 -14 175 C-19.94 175 -25.88 175 -32 175 C-31.67 173.02 -31.34 171.04 -31 169 C-31.66 169 -32.32 169 -33 169 C-33 139.96 -33 110.92 -33 81 C-32.34 81 -31.68 81 -31 81 C-31 76.05 -31 71.1 -31 66 C-31.66 66 -32.32 66 -33 66 C-33.02687279 64.18757948 -33.04633715 62.37504767 -33.0625 60.5625 C-33.07410156 59.55316406 -33.08570313 58.54382813 -33.09765625 57.50390625 C-33 55 -33 55 -32 54 C-32.40929986 51.94603274 -32.40929986 51.94603274 -33 50 C-32.34 50 -31.68 50 -31 50 C-31 49.01 -31 48.02 -31 47 C-31.66 47 -32.32 47 -33 47 C-33 44.69 -33 42.38 -33 40 C-32.34 40 -31.68 40 -31 40 C-31 39.01 -31 38.02 -31 37 C-31.66 36.67 -32.32 36.34 -33 36 C-32.34 36 -31.68 36 -31 36 C-31.33 33.36 -31.66 30.72 -32 28 C-28.81175432 26.40587716 -25.37103338 26.89825265 -21.875 26.9375 C-21.12089844 26.94201172 -20.36679687 26.94652344 -19.58984375 26.95117188 C-17.72652873 26.96296501 -15.86325445 26.98090058 -14 27 C-14.01160156 25.86820313 -14.02320312 24.73640625 -14.03515625 23.5703125 C-14.04453454 22.08854331 -14.0536347 20.60677235 -14.0625 19.125 C-14.07087891 18.37863281 -14.07925781 17.63226563 -14.08789062 16.86328125 C-14.11328125 11.2265625 -14.11328125 11.2265625 -13 9 C-8.71 9 -4.42 9 0 9 C0 6.03 0 3.06 0 0 Z M-28 29 C-28.89171221 32.56684883 -29.12350713 35.1660392 -29.12025452 38.79595947 C-29.12162918 39.9794397 -29.12300385 41.16291992 -29.12442017 42.38226318 C-29.12082489 43.67698547 -29.11722961 44.97170776 -29.11352539 46.30566406 C-29.11324326 47.68554685 -29.11340176 49.0654298 -29.1139679 50.4453125 C-29.11425485 54.18877105 -29.10837457 57.93219758 -29.10139394 61.67564869 C-29.09514346 65.58875682 -29.09455526 69.50186568 -29.09336853 73.41497803 C-29.09026022 80.82387226 -29.08205356 88.23275174 -29.07201904 95.64163947 C-29.06084239 104.07687805 -29.05534354 112.51211733 -29.05032361 120.94736147 C-29.03987054 138.29824975 -29.02207937 155.64912275 -29 173 C-24.05 173 -19.1 173 -14 173 C-14 160.79 -14 148.58 -14 136 C-14.99 136 -15.98 136 -17 136 C-16.67 136.99 -16.34 137.98 -16 139 C-16.99 138.67 -17.98 138.34 -19 138 C-19.33 138.99 -19.66 139.98 -20 141 C-20.99 140.67 -21.98 140.34 -23 140 C-23 138.68 -23 137.36 -23 136 C-22.34 136 -21.68 136 -21 136 C-18.83333333 134.16666667 -18.83333333 134.16666667 -17 132 C-17 131.34 -17 130.68 -17 130 C-16.34 130 -15.68 130 -15 130 C-15 96.67 -15 63.34 -15 29 C-19.29 29 -23.58 29 -28 29 Z M-32 160 C-32 162.31 -32 164.62 -32 167 C-31.67 167 -31.34 167 -31 167 C-31 164.69 -31 162.38 -31 160 C-31.33 160 -31.66 160 -32 160 Z " fill="#151213" transform="translate(73,58)"/>
<path d="M0 0 C0.33 0 0.66 0 1 0 C1 15.84 1 31.68 1 48 C5.95 48 10.9 48 16 48 C16 42.72 16 37.44 16 32 C21.61 32 27.22 32 33 32 C33 26.72 33 21.44 33 16 C38.28 16 43.56 16 49 16 C49 10.72 49 5.44 49 0 C117.31 0 185.62 0 256 0 C256 0.33 256 0.66 256 1 C188.02 1 120.04 1 50 1 C50.495 9.91 50.495 9.91 51 19 C51.33 19 51.66 19 52 19 C52 21.31 52 23.62 52 26 C51.67 26 51.34 26 51 26 C50.67 28.31 50.34 30.62 50 33 C44.72 33 39.44 33 34 33 C34 38.28 34 43.56 34 49 C29.76358987 49.84728203 26.27587998 50.08384078 22 50 C25.63 50.33 29.26 50.66 33 51 C32.505 51.99 32.505 51.99 32 53 C28.04 52.67 24.08 52.34 20 52 C20 55.96 20 59.92 20 64 C19.67 64 19.34 64 19 64 C19 60.04 19 56.08 19 52 C18.01 52 17.02 52 16 52 C16 51.01 16 50.02 16 49 C10.72 49 5.44 49 0 49 C0 32.83 0 16.66 0 0 Z " fill="#373838" transform="translate(141,248)"/>
<path d="M0 0 C0.66 1.32 1.32 2.64 2 4 C1.34 4.66 0.68 5.32 0 6 C-0.31222823 8.50286828 -0.31222823 8.50286828 -0.27174377 11.46606445 C-0.2814621 12.62707672 -0.29118042 13.78808899 -0.30119324 14.98428345 C-0.30178238 16.26435272 -0.30237152 17.544422 -0.30297852 18.86328125 C-0.3106367 20.21992501 -0.31918249 21.57656401 -0.32855225 22.93319702 C-0.34685445 25.85792568 -0.3588779 28.78259009 -0.36609077 31.70736694 C-0.37755423 36.32882681 -0.40300016 40.95014429 -0.43040466 45.5715332 C-0.47208628 52.87891649 -0.50448639 60.18630655 -0.53287882 67.49375248 C-0.58382555 80.58476024 -0.64592589 93.6757088 -0.71821922 106.76661587 C-0.74318059 111.36396941 -0.7625947 115.96130413 -0.77760136 120.55870056 C-0.78778551 123.41480832 -0.80193152 126.27088687 -0.81707764 129.1269722 C-0.82619835 131.08987422 -0.83032786 133.05279743 -0.83433533 135.01571655 C-0.84123383 136.17672882 -0.84813232 137.33774109 -0.85523987 138.53393555 C-0.85909478 139.54715378 -0.8629497 140.56037201 -0.86692142 141.60429382 C-1 144 -1 144 -2 146 C-5.3 146 -8.6 146 -12 146 C-12 145.67 -12 145.34 -12 145 C-9.36 145 -6.72 145 -4 145 C-4.33 102.43 -4.66 59.86 -5 16 C-6.32 17.32 -7.64 18.64 -9 20 C-11.75 20.25 -11.75 20.25 -14 20 C-13.67 20.99 -13.34 21.98 -13 23 C-14.32 23.33 -15.64 23.66 -17 24 C-17 16.41 -17 8.82 -17 1 C-9.0625 1.0625 -9.0625 1.0625 -6.55883789 1.09008789 C-4.70566241 1.09723945 -2.85250692 1.0502852 -1 1 C-0.67 0.67 -0.34 0.34 0 0 Z " fill="#0E0104" transform="translate(565,85)"/>
<path d="M0 0 C0 0.33 0 0.66 0 1 C-37.29 1 -74.58 1 -113 1 C-113 5.95 -113 10.9 -113 16 C-77.69 16 -42.38 16 -6 16 C-6 16.33 -6 16.66 -6 17 C-41.64 17 -77.28 17 -114 17 C-114 22.28 -114 27.56 -114 33 C-119.28 33 -124.56 33 -130 33 C-130 27.72 -130 22.44 -130 17 C-125.38 16.67 -120.76 16.34 -116 16 C-116.01160156 14.92878906 -116.02320312 13.85757813 -116.03515625 12.75390625 C-116.04453299 11.35677257 -116.05363331 9.95963701 -116.0625 8.5625 C-116.07506836 7.50192383 -116.07506836 7.50192383 -116.08789062 6.41992188 C-116.09653588 4.61306441 -116.05220011 2.80612397 -116 1 C-114.03011075 -0.96988925 -110.21608154 -0.28069128 -107.51953125 -0.3515625 C-106.71148041 -0.37512314 -105.90342957 -0.39868378 -105.07089233 -0.42295837 C-102.31823583 -0.49825485 -99.56548233 -0.56279315 -96.8125 -0.625 C-95.86235016 -0.64779022 -94.91220032 -0.67058044 -93.93325806 -0.69406128 C-62.62944083 -1.40573866 -31.30070268 -0.59410788 0 0 Z " fill="#3E3539" transform="translate(190,53)"/>
<path d="M0 0 C3.3 0 6.6 0 10 0 C8.02 0.99 8.02 0.99 6 2 C5.67 2.99 5.34 3.98 5 5 C4.34 5 3.68 5 3 5 C3 5.66 3 6.32 3 7 C1.35 7.33 -0.3 7.66 -2 8 C-2.33 9.32 -2.66 10.64 -3 12 C-3.66 11.67 -4.32 11.34 -5 11 C-5.33 11.66 -5.66 12.32 -6 13 C-5.19786135 12.99815641 -4.39572269 12.99631283 -3.56927681 12.99441338 C15.92580518 12.95029319 35.42087724 12.91717215 54.91599846 12.89637566 C64.343594 12.88605198 73.77115628 12.87197086 83.19873047 12.84912109 C91.4133812 12.82922056 99.62800784 12.81629151 107.842682 12.81182301 C112.19447697 12.80920996 116.546203 12.80304562 120.89797592 12.78853989 C124.99039622 12.77500861 129.08271891 12.77076828 133.17515945 12.77378464 C134.68045328 12.77323247 136.18575023 12.76922855 137.69102478 12.76158905 C139.73970199 12.75169797 141.78843107 12.75520883 143.83712769 12.75949097 C144.98568174 12.75764738 146.1342358 12.75580379 147.31759453 12.75390434 C150 13 150 13 152 15 C86.33 15 20.66 15 -47 15 C-47 14.34 -47 13.68 -47 13 C-34.79 12.67 -22.58 12.34 -10 12 C-9.34 10.68 -8.68 9.36 -8 8 C-5.5625 5.25 -5.5625 5.25 -3 3 C-2.01 3 -1.02 3 0 3 C0 2.01 0 1.02 0 0 Z " fill="#0D0304" transform="translate(239,249)"/>
<path d="M0 0 C1.093125 0.0825 2.18625 0.165 3.3125 0.25 C3.3125 1.57 3.3125 2.89 3.3125 4.25 C2.6525 4.25 1.9925 4.25 1.3125 4.25 C1.3125 4.91 1.3125 5.57 1.3125 6.25 C-0.0625 7.875 -0.0625 7.875 -1.6875 9.25 C-2.3475 9.25 -3.0075 9.25 -3.6875 9.25 C-4.0175 10.24 -4.3475 11.23 -4.6875 12.25 C1.2525 12.58 7.1925 12.91 13.3125 13.25 C12.9825 13.91 12.6525 14.57 12.3125 15.25 C4.7225 15.25 -2.8675 15.25 -10.6875 15.25 C-10.6875 14.59 -10.6875 13.93 -10.6875 13.25 C-11.3475 13.91 -12.0075 14.57 -12.6875 15.25 C-15.27758309 15.43788205 -17.75980933 15.50187766 -20.35009766 15.47705078 C-21.14042892 15.47734283 -21.93076019 15.47763489 -22.74504089 15.47793579 C-25.36399214 15.47653962 -27.9826608 15.46096505 -30.6015625 15.4453125 C-32.41474248 15.44158339 -34.22792447 15.43873594 -36.04110718 15.43673706 C-40.81857851 15.42909257 -45.59592867 15.40943712 -50.37335205 15.3873291 C-55.24628052 15.3668882 -60.11922853 15.35773911 -64.9921875 15.34765625 C-74.55734497 15.32619197 -84.12241242 15.29204623 -93.6875 15.25 C-93.6875 14.59 -93.6875 13.93 -93.6875 13.25 C-94.3475 12.92 -95.0075 12.59 -95.6875 12.25 C-95.06875 11.651875 -94.45 11.05375 -93.8125 10.4375 C-91.55073046 8.24188856 -91.55073046 8.24188856 -89.6875 5.25 C-89.0275 5.25 -88.3675 5.25 -87.6875 5.25 C-87.6875 6.57 -87.6875 7.89 -87.6875 9.25 C-86.6975 9.58 -85.7075 9.91 -84.6875 10.25 C-85.6775 10.25 -86.6675 10.25 -87.6875 10.25 C-87.6875 11.24 -87.6875 12.23 -87.6875 13.25 C-78.2383106 13.21196368 -68.78956505 13.15263263 -59.34069443 13.06609726 C-54.9531886 13.02658478 -50.56588459 12.99441497 -46.17822266 12.97900391 C-41.94397976 12.9638619 -37.71029159 12.92946081 -33.47629547 12.88169098 C-31.86082022 12.86685167 -30.24526578 12.85895752 -28.6297226 12.85811615 C-26.36680435 12.85575226 -24.10542639 12.82872295 -21.84277344 12.79589844 C-20.55481873 12.78701599 -19.26686401 12.77813354 -17.93988037 12.76898193 C-14.14689667 12.16373599 -13.12482108 11.10582141 -10.6875 8.25 C-10.0275 8.25 -9.3675 8.25 -8.6875 8.25 C-8.419375 7.6725 -8.15125 7.095 -7.875 6.5 C-4.609375 0.3125 -4.609375 0.3125 0 0 Z " fill="#0D0607" transform="translate(485.6875,248.75)"/>
<path d="M0 0 C0.33 0 0.66 0 1 0 C1 3.96 1 7.92 1 12 C-3.62 12 -8.24 12 -13 12 C-13 17.61 -13 23.22 -13 29 C-18.28 28.67 -23.56 28.34 -29 28 C-29.26157352 45.05521408 -29.52241732 62.1104391 -29.78230286 79.16567898 C-29.90299942 87.0853119 -30.02395052 95.00494078 -30.14550781 102.92456055 C-30.25149767 109.82998373 -30.35700283 116.73541412 -30.46193409 123.64085346 C-30.51747362 127.2947637 -30.57325033 130.94866996 -30.62960815 134.60256767 C-30.69262411 138.68872859 -30.75455759 142.77490524 -30.81640625 146.86108398 C-30.83510773 148.06302399 -30.8538092 149.26496399 -30.87307739 150.50332642 C-30.96547923 156.66978034 -31.01923596 162.83285528 -31 169 C-31.66 169 -32.32 169 -33 169 C-33 139.96 -33 110.92 -33 81 C-32.34 81 -31.68 81 -31 81 C-31 76.05 -31 71.1 -31 66 C-31.66 66 -32.32 66 -33 66 C-33.02687279 64.18757948 -33.04633715 62.37504767 -33.0625 60.5625 C-33.07410156 59.55316406 -33.08570313 58.54382813 -33.09765625 57.50390625 C-33 55 -33 55 -32 54 C-32.40929986 51.94603274 -32.40929986 51.94603274 -33 50 C-32.34 50 -31.68 50 -31 50 C-31 49.01 -31 48.02 -31 47 C-31.66 47 -32.32 47 -33 47 C-33 44.69 -33 42.38 -33 40 C-32.34 40 -31.68 40 -31 40 C-31 39.01 -31 38.02 -31 37 C-31.66 36.67 -32.32 36.34 -33 36 C-32.34 36 -31.68 36 -31 36 C-31.33 33.36 -31.66 30.72 -32 28 C-28.81175432 26.40587716 -25.37103338 26.89825265 -21.875 26.9375 C-21.12089844 26.94201172 -20.36679687 26.94652344 -19.58984375 26.95117188 C-17.72652873 26.96296501 -15.86325445 26.98090058 -14 27 C-14.01160156 25.86820313 -14.02320312 24.73640625 -14.03515625 23.5703125 C-14.04453454 22.08854331 -14.0536347 20.60677235 -14.0625 19.125 C-14.07087891 18.37863281 -14.07925781 17.63226563 -14.08789062 16.86328125 C-14.11328125 11.2265625 -14.11328125 11.2265625 -13 9 C-8.71 9 -4.42 9 0 9 C0 6.03 0 3.06 0 0 Z " fill="#929091" transform="translate(73,58)"/>
<path d="M0 0 C0.33 0 0.66 0 1 0 C1 45.21 1 90.42 1 137 C6.28 137 11.56 137 17 137 C20.00182503 137.12970849 23.00300959 137.28592926 26 137.5 C26.6909375 137.54769531 27.381875 137.59539062 28.09375 137.64453125 C29.72951395 137.75812597 31.3648242 137.87823159 33 138 C33 138.33 33 138.66 33 139 C27.72 139 22.44 139 17 139 C17 143.95 17 148.9 17 154 C16.67 154 16.34 154 16 154 C16 149.05 16 144.1 16 139 C10.06 139 4.12 139 -2 139 C-1.85844691 124.64578812 -1.71285252 110.29162251 -1.5625 95.9375 C-1.55147877 94.88502579 -1.54045753 93.83255157 -1.52910233 92.7481842 C-1.20388567 61.82735703 -0.8222496 30.91235466 0 0 Z " fill="#393032" transform="translate(43,94)"/>
<path d="M0 0 C5.28 0 10.56 0 16 0 C16 5.28 16 10.56 16 16 C10.72 16 5.44 16 0 16 C0 10.72 0 5.44 0 0 Z " fill="#060304" transform="translate(531,70)"/>
<path d="M0 0 C5.28 0 10.56 0 16 0 C16 5.28 16 10.56 16 16 C10.72 16 5.44 16 0 16 C0 10.72 0 5.44 0 0 Z " fill="#070305" transform="translate(60,70)"/>
<path d="M0 0 C5.28 0 10.56 0 16 0 C16 4.95 16 9.9 16 15 C11.53794887 17.23102556 4.78092876 16.04346299 0 16 C0 10.72 0 5.44 0 0 Z " fill="#010000" transform="translate(60,233)"/>
<path d="M0 0 C1.23492062 0.01281384 2.46984123 0.02562767 3.74218369 0.0388298 C18.99497025 0.19846322 34.24755456 0.37313103 49.5 0.5625 C49.17 5.1825 48.84 9.8025 48.5 14.5625 C52.79 14.5625 57.08 14.5625 61.5 14.5625 C61.5 14.8925 61.5 15.2225 61.5 15.5625 C56.55 15.8925 51.6 16.2225 46.5 16.5625 C46.5 11.6125 46.5 6.6625 46.5 1.5625 C-14.88 1.5625 -76.26 1.5625 -139.5 1.5625 C-139.5 1.2325 -139.5 0.9025 -139.5 0.5625 C-128.43790758 0.34788349 -117.37544753 0.16420202 -106.3125 0 C-105.02718887 -0.0190999 -105.02718887 -0.0190999 -103.71591187 -0.03858566 C-69.13919136 -0.54240431 -34.57749994 -0.35908216 0 0 Z " fill="#40363A" transform="translate(483.5,52.4375)"/>
<path d="M0 0 C4.95 0 9.9 0 15 0 C15 4.95 15 9.9 15 15 C10.05 15 5.1 15 0 15 C0 10.05 0 5.1 0 0 Z " fill="#020101" transform="translate(158,281)"/>
<path d="M0 0 C4.95 0 9.9 0 15 0 C15 4.95 15 9.9 15 15 C10.05 15 5.1 15 0 15 C0 10.05 0 5.1 0 0 Z " fill="#030101" transform="translate(174,265)"/>
<path d="M0 0 C4.95 0 9.9 0 15 0 C15 4.62 15 9.24 15 14 C10.73840618 16.13079691 4.59236298 15.04502317 0 15 C0 10.05 0 5.1 0 0 Z " fill="#030101" transform="translate(531,233)"/>
<path d="M0 0 C22.11 0 44.22 0 67 0 C67 15.84 67 31.68 67 48 C66.67 48 66.34 48 66 48 C66 40.74 66 33.48 66 26 C65.34 26 64.68 26 64 26 C64 27.32 64 28.64 64 30 C63.01 30 62.02 30 61 30 C61 30.99 61 31.98 61 33 C59.35 32.34 57.7 31.68 56 31 C57.5588334 27.17377257 59.95433582 24.74852621 63 22 C63.99 21.67 64.98 21.34 66 21 C66 14.4 66 7.8 66 1 C45.21 1 24.42 1 3 1 C3.33 6.28 3.66 11.56 4 17 C3.01 17 2.02 17 1 17 C0.67 11.39 0.34 5.78 0 0 Z " fill="#292527" transform="translate(74,248)"/>
<path d="M0 0 C0.66 1.32 1.32 2.64 2 4 C1.34 4.66 0.68 5.32 0 6 C-0.315108 8.50873905 -0.315108 8.50873905 -0.2784729 11.47952271 C-0.28963638 12.64342529 -0.30079987 13.80732788 -0.31230164 15.00650024 C-0.31446182 16.28971161 -0.31662201 17.57292297 -0.31884766 18.89501953 C-0.32814209 20.25490925 -0.33831003 21.61479325 -0.34928894 22.97467041 C-0.37665784 26.67276896 -0.39175863 30.37082928 -0.40471697 34.06900263 C-0.42031749 37.93145302 -0.44711745 41.79382497 -0.4727478 45.65621948 C-0.51959029 52.9730623 -0.55630784 60.28991978 -0.58942068 67.6068362 C-0.62760351 75.93567211 -0.67702366 84.26442935 -0.72740483 92.59319901 C-0.83080599 109.72874249 -0.92003968 126.86433145 -1 144 C-1.33 144 -1.66 144 -2 144 C-2.00423194 143.31400884 -2.00846388 142.62801767 -2.01282406 141.9212389 C-2.11613175 125.22904318 -2.22476972 108.53689153 -2.33933926 91.84476948 C-2.3946157 83.77258552 -2.44808849 75.70039714 -2.49731445 67.62817383 C-2.54022468 60.59237503 -2.58651984 53.55660804 -2.63687855 46.52085847 C-2.66342444 42.79555056 -2.68827602 39.07024874 -2.70907402 35.34490395 C-2.7323558 31.18602438 -2.76319465 27.02723377 -2.79467773 22.8684082 C-2.8004332 21.63338562 -2.80618866 20.39836304 -2.81211853 19.12591553 C-2.82190735 17.99154556 -2.83169617 16.8571756 -2.84178162 15.68843079 C-2.84823417 14.70487767 -2.85468672 13.72132456 -2.8613348 12.7079668 C-2.99765942 10.04570876 -3.40683972 7.59536173 -4 5 C-3.34 5 -2.68 5 -2 5 C-1.7834375 4.0409375 -1.7834375 4.0409375 -1.5625 3.0625 C-1 1 -1 1 0 0 Z " fill="#160F12" transform="translate(565,85)"/>
<path d="M0 0 C4.95 0 9.9 0 15 0 C15 4 15 4 13.42578125 5.74609375 C12.37970703 6.58333984 12.37970703 6.58333984 11.3125 7.4375 C8.80356809 9.50237316 6.38232661 11.53632829 4.125 13.875 C2 16 2 16 0 17 C0 11.39 0 5.78 0 0 Z " fill="#010001" transform="translate(548,86)"/>
<path d="M0 0 C0.66 0 1.32 0 2 0 C2.33 3.96 2.66 7.92 3 12 C-0.7367843 14.49118953 -2.74451819 14.2065226 -7.1875 14.125 C-8.45980469 14.10695313 -9.73210937 14.08890625 -11.04296875 14.0703125 C-12.50669922 14.03550781 -12.50669922 14.03550781 -14 14 C-14 14.33 -14 14.66 -14 15 C-9.38 15 -4.76 15 0 15 C0 15.33 0 15.66 0 16 C-4.29 16 -8.58 16 -13 16 C-13 20.62 -13 25.24 -13 30 C-17.52382543 30.75397091 -20.07091624 31.08596965 -24.375 30.5625 C-25.24898437 30.46066406 -26.12296875 30.35882813 -27.0234375 30.25390625 C-27.67570313 30.17011719 -28.32796875 30.08632813 -29 30 C-25.79619983 27.86413322 -24.98060033 27.76867825 -21.3125 27.875 C-20.10013672 27.90207031 -20.10013672 27.90207031 -18.86328125 27.9296875 C-18.24839844 27.95289063 -17.63351563 27.97609375 -17 28 C-17.01160156 26.92878906 -17.02320313 25.85757812 -17.03515625 24.75390625 C-17.04453299 23.35677257 -17.05363331 21.95963701 -17.0625 20.5625 C-17.07506836 19.50192383 -17.07506836 19.50192383 -17.08789062 18.41992188 C-17.09653588 16.61306441 -17.05220011 14.80612397 -17 13 C-16 12 -16 12 -12.40234375 11.90234375 C-10.91403133 11.9090178 -9.42573568 11.92097817 -7.9375 11.9375 C-6.79958008 11.94426758 -6.79958008 11.94426758 -5.63867188 11.95117188 C-3.75908129 11.9629932 -1.87953101 11.98092922 0 12 C0 8.04 0 4.08 0 0 Z " fill="#1D0D13" transform="translate(157,300)"/>
<path d="M0 0 C0.33 0 0.66 0 1 0 C1 15.84 1 31.68 1 48 C5.95 48 10.9 48 16 48 C16 42.72 16 37.44 16 32 C21.61 32 27.22 32 33 32 C33 32.33 33 32.66 33 33 C27.72 33 22.44 33 17 33 C17 37.95 17 42.9 17 48 C17.66 48 18.32 48 19 48 C19 48.66 19 49.32 19 50 C25.93 50.495 25.93 50.495 33 51 C32.505 51.99 32.505 51.99 32 53 C28.04 52.67 24.08 52.34 20 52 C20 55.96 20 59.92 20 64 C19.67 64 19.34 64 19 64 C19 60.04 19 56.08 19 52 C18.01 52 17.02 52 16 52 C16 51.01 16 50.02 16 49 C10.72 49 5.44 49 0 49 C0 32.83 0 16.66 0 0 Z " fill="#959495" transform="translate(141,248)"/>
<path d="M0 0 C0.33 0 0.66 0 1 0 C2.08251713 21.56519042 2.15649644 43.1067807 2.13037109 64.69360352 C2.12461333 69.51758149 2.12800818 74.34150453 2.13394356 79.16548061 C2.13757275 82.93610543 2.13640082 86.70671738 2.13381577 90.47734261 C2.13315619 92.25651112 2.13394035 94.03568087 2.13629532 95.81484795 C2.14608425 105.26163883 2.02545054 114.59487169 1 124 C0.67 124 0.34 124 0 124 C0 83.08 0 42.16 0 0 Z " fill="#34222A" transform="translate(565,98)"/>
<path d="M0 0 C1.32 0.66 2.64 1.32 4 2 C4 4.31 4 6.62 4 9 C3.67 9 3.34 9 3 9 C2.67 11.31 2.34 13.62 2 16 C-3.28 16 -8.56 16 -14 16 C-14 21.28 -14 26.56 -14 32 C-17.76860494 32.75372099 -20.56668585 33.11244419 -24.3125 33.0625 C-25.19550781 33.05347656 -26.07851562 33.04445313 -26.98828125 33.03515625 C-27.65214844 33.02355469 -28.31601563 33.01195312 -29 33 C-29 32.34 -29 31.68 -29 31 C-24.71 31 -20.42 31 -16 31 C-16.01160156 29.92878906 -16.02320313 28.85757812 -16.03515625 27.75390625 C-16.04453299 26.35677257 -16.05363331 24.95963701 -16.0625 23.5625 C-16.07506836 22.50192383 -16.07506836 22.50192383 -16.08789062 21.41992188 C-16.09653588 19.61306441 -16.05220011 17.80612397 -16 16 C-15 15 -15 15 -11.62109375 14.90234375 C-10.22652508 14.90808576 -8.83198403 14.92109772 -7.4375 14.9375 C-4.983125 14.958125 -2.52875 14.97875 0 15 C0 10.05 0 5.1 0 0 Z " fill="#332729" transform="translate(189,265)"/>
<path d="M0 0 C3.3 0 6.6 0 10 0 C8.02 0.99 8.02 0.99 6 2 C5.67 2.99 5.34 3.98 5 5 C4.34 5 3.68 5 3 5 C3 5.66 3 6.32 3 7 C1.35 7.33 -0.3 7.66 -2 8 C-2.33 9.32 -2.66 10.64 -3 12 C-3.66 11.67 -4.32 11.34 -5 11 C-5 11.99 -5 12.98 -5 14 C-5.99 14 -6.98 14 -8 14 C-8 13.34 -8 12.68 -8 12 C-8.66 12 -9.32 12 -10 12 C-8.4422692 8.17647894 -6.08404742 5.70794407 -3 3 C-2.01 3 -1.02 3 0 3 C0 2.01 0 1.02 0 0 Z " fill="#111111" transform="translate(239,249)"/>
<path d="M0 0 C1.5631897 0.00785522 1.5631897 0.00785522 3.15795898 0.01586914 C4.28266602 0.0190918 5.40737305 0.02231445 6.56616211 0.02563477 C7.75016602 0.03401367 8.93416992 0.04239258 10.15405273 0.05102539 C11.34192383 0.05553711 12.52979492 0.06004883 13.75366211 0.06469727 C16.69967499 0.07652864 19.64558954 0.09301252 22.59155273 0.11352539 C22.59155273 0.77352539 22.59155273 1.43352539 22.59155273 2.11352539 C20.26145294 3.27857529 18.91908196 3.23446119 16.32543945 3.22705078 C15.00429642 3.22693748 15.00429642 3.22693748 13.65646362 3.2268219 C12.7043399 3.22166061 11.75221619 3.21649933 10.77124023 3.21118164 C9.79744415 3.20976669 8.82364807 3.20835175 7.82034302 3.20689392 C4.702382 3.20128512 1.58449214 3.18873113 -1.53344727 3.17602539 C-3.64412331 3.17101152 -5.75480048 3.16644842 -7.86547852 3.16235352 C-13.04649248 3.15131284 -18.22746479 3.13456612 -23.40844727 3.11352539 C-23.40844727 2.78352539 -23.40844727 2.45352539 -23.40844727 2.11352539 C-22.80782471 2.08846924 -22.20720215 2.06341309 -21.58837891 2.03759766 C-18.88233289 1.92197259 -16.17666443 1.79909603 -13.47094727 1.67602539 C-12.52541992 1.63670898 -11.57989258 1.59739258 -10.60571289 1.55688477 C-9.7065918 1.51499023 -8.8074707 1.4730957 -7.88110352 1.42993164 C-7.04844971 1.39327393 -6.2157959 1.35661621 -5.35791016 1.31884766 C-2.83019368 1.05262229 -2.69018365 0.12680541 0 0 Z " fill="#120C0C" transform="translate(101.408447265625,261.886474609375)"/>
<path d="M0 0 C31.35 0 62.7 0 95 0 C95 0.33 95 0.66 95 1 C63.65 1 32.3 1 0 1 C0 0.67 0 0.34 0 0 Z " fill="#A39EA0" transform="translate(142,51)"/>
<path d="M0 0 C19.47 0 38.94 0 59 0 C59 0.33 59 0.66 59 1 C39.86 1 20.72 1 1 1 C1.495 8.92 1.495 8.92 2 17 C1.34 17.66 0.68 18.32 0 19 C0 18.34 0 17.68 0 17 C-5.28 17 -10.56 17 -16 17 C-16 16.67 -16 16.34 -16 16 C-10.72 16 -5.44 16 0 16 C0 10.72 0 5.44 0 0 Z " fill="#404040" transform="translate(190,248)"/>
<path d="M0 0 C2.7839183 1.39195915 2.97898997 3.15575779 4 6 C3.34 6 2.68 6 2 6 C1.566875 6.928125 1.566875 6.928125 1.125 7.875 C0 10 0 10 -2 12 C-4.625 12.125 -4.625 12.125 -7 12 C-6.67 12.99 -6.34 13.98 -6 15 C-7.32 15.33 -8.64 15.66 -10 16 C-10.36666667 10.5 -10.36666667 10.5 -8.625 8.125 C-7 7 -7 7 -5 7 C-4.731875 6.401875 -4.46375 5.80375 -4.1875 5.1875 C-3.01506533 3.02775192 -1.80630718 1.64209744 0 0 Z " fill="#110F10" transform="translate(558,93)"/>
<path d="M0 0 C0.66 0 1.32 0 2 0 C3.71802382 3.43604765 3.1196618 7.38438896 3.09765625 11.1640625 C3.09553383 12.52487442 3.09553383 12.52487442 3.09336853 13.91317749 C3.08776096 16.81715155 3.07520718 19.72104915 3.0625 22.625 C3.05748598 24.59114472 3.0529229 26.55729065 3.04882812 28.5234375 C3.03778906 33.3489879 3.02051935 38.17448097 3 43 C2.67 43 2.34 43 2 43 C2 37.39 2 31.78 2 26 C1.34 26 0.68 26 0 26 C-0.02687279 24.18757948 -0.04633715 22.37504767 -0.0625 20.5625 C-0.07410156 19.55316406 -0.08570313 18.54382813 -0.09765625 17.50390625 C0 15 0 15 1 14 C0.59070014 11.94603274 0.59070014 11.94603274 0 10 C0.66 10 1.32 10 2 10 C2 9.01 2 8.02 2 7 C1.34 7 0.68 7 0 7 C0 4.69 0 2.38 0 0 Z " fill="#686263" transform="translate(40,98)"/>
<path d="M0 0 C1.875 0.3125 1.875 0.3125 4 1 C4.66 1.99 5.32 2.98 6 4 C5.01 4.66 4.02 5.32 3 6 C3 5.34 3 4.68 3 4 C2.34 4 1.68 4 1 4 C0.71125 4.928125 0.4225 5.85625 0.125 6.8125 C-1 10 -1 10 -3 13 C-5.31 12.67 -7.62 12.34 -10 12 C-9.0919838 10.86800647 -8.17316174 9.74467637 -7.25 8.625 C-6.73953125 7.99851562 -6.2290625 7.37203125 -5.703125 6.7265625 C-3.91800519 4.91687682 -2.32050356 3.99882545 0 3 C0 2.01 0 1.02 0 0 Z " fill="#101010" transform="translate(188,56)"/>
<path d="M0 0 C0.66 0 1.32 0 2 0 C2 0.99 2 1.98 2 3 C3.32 3.33 4.64 3.66 6 4 C3.6875 6.5 3.6875 6.5 1 9 C0.01 9 -0.98 9 -2 9 C-2.45375 9.495 -2.9075 9.99 -3.375 10.5 C-5 12 -5 12 -7.6875 12.1875 C-8.450625 12.125625 -9.21375 12.06375 -10 12 C-9.25 10.0625 -9.25 10.0625 -8 8 C-5.875 7.25 -5.875 7.25 -4 7 C-4 6.34 -4 5.68 -4 5 C-3.34 5 -2.68 5 -2 5 C-2 4.34 -2 3.68 -2 3 C-1.34 3 -0.68 3 0 3 C0 2.01 0 1.02 0 0 Z " fill="#101010" transform="translate(431,57)"/>
<path d="M0 0 C5.28 0 10.56 0 16 0 C16 0.33 16 0.66 16 1 C11.71 1 7.42 1 3 1 C3 5.62 3 10.24 3 15 C-1.52382543 15.75397091 -4.07091624 16.08596965 -8.375 15.5625 C-9.68597656 15.40974609 -9.68597656 15.40974609 -11.0234375 15.25390625 C-11.67570313 15.17011719 -12.32796875 15.08632813 -13 15 C-8.61501596 12.07667731 -5.2225328 12.8643498 0 13 C0 8.71 0 4.42 0 0 Z " fill="#2F2227" transform="translate(141,315)"/>
<path d="M0 0 C0.33 0 0.66 0 1 0 C1 4.29 1 8.58 1 13 C5.29 13 9.58 13 14 13 C14.33 8.71 14.66 4.42 15 0 C15.33 0 15.66 0 16 0 C16 4.95 16 9.9 16 15 C11.53794887 17.23102556 4.78092876 16.04346299 0 16 C0 10.72 0 5.44 0 0 Z " fill="#160C0F" transform="translate(60,233)"/>
<path d="M0 0 C2 2 2 2 2.1953125 4.93359375 C2.17210937 6.08988281 2.14890625 7.24617187 2.125 8.4375 C2.10695313 9.59121094 2.08890625 10.74492187 2.0703125 11.93359375 C2.04710937 12.94550781 2.02390625 13.95742187 2 15 C2 15.99 2 16.98 2 18 C-2.62 18 -7.24 18 -12 18 C-12.33 17.01 -12.66 16.02 -13 15 C-6.565 14.505 -6.565 14.505 0 14 C0 9.38 0 4.76 0 0 Z " fill="#22181B" transform="translate(546,233)"/>
<path d="M0 0 C0 1.65 0 3.3 0 5 C-0.99 5.495 -0.99 5.495 -2 6 C-2 6.66 -2 7.32 -2 8 C-2.99 8 -3.98 8 -5 8 C-5 8.99 -5 9.98 -5 11 C-6.9375 10.6875 -6.9375 10.6875 -9 10 C-9.33 9.01 -9.66 8.02 -10 7 C-9.67 6.34 -9.34 5.68 -9 5 C-8.34 5 -7.68 5 -7 5 C-6.71125 4.360625 -6.4225 3.72125 -6.125 3.0625 C-4.45129782 -0.005954 -3.47574769 0 0 0 Z " fill="#121112" transform="translate(59,189)"/>
<path d="M0 0 C4.62 0 9.24 0 14 0 C14 0.33 14 0.66 14 1 C11.69 1 9.38 1 7 1 C7 1.66 7 2.32 7 3 C6.34 3 5.68 3 5 3 C5 3.66 5 4.32 5 5 C4.34 5 3.68 5 3 5 C3 5.66 3 6.32 3 7 C2.01 7.33 1.02 7.66 0 8 C-0.99 7.01 -1.98 6.02 -3 5 C-2.67 4.01 -2.34 3.02 -2 2 C-1.34 1.67 -0.68 1.34 0 1 C0 0.67 0 0.34 0 0 Z " fill="#150F14" transform="translate(516,54)"/>
<path d="M0 0 C0.66 0 1.32 0 2 0 C2 1.32 2 2.64 2 4 C2.99 4.33 3.98 4.66 5 5 C4.01 5 3.02 5 2 5 C2 6.32 2 7.64 2 9 C0.02 9.33 -1.96 9.66 -4 10 C-4 9.34 -4 8.68 -4 8 C-4.66 7.67 -5.32 7.34 -6 7 C-5.071875 6.1028125 -5.071875 6.1028125 -4.125 5.1875 C-1.86323046 2.99188856 -1.86323046 2.99188856 0 0 Z " fill="#120F10" transform="translate(396,254)"/>
<path d="M0 0 C0.99 0 1.98 0 3 0 C3 0.66 3 1.32 3 2 C3.66 2.66 4.32 3.32 5 4 C4.34 4 3.68 4 3 4 C3 4.99 3 5.98 3 7 C1.68 7 0.36 7 -1 7 C-1 7.99 -1 8.98 -1 10 C-2.32 9.34 -3.64 8.68 -5 8 C-5 7.01 -5 6.02 -5 5 C-4.01 4.67 -3.02 4.34 -2 4 C-0.79117904 1.99983534 -0.79117904 1.99983534 0 0 Z " fill="#101011" transform="translate(270,56)"/>
<path d="M0 0 C1.32 1.65 2.64 3.3 4 5 C3.01 5 2.02 5 1 5 C1 5.99 1 6.98 1 8 C-0.65 8.33 -2.3 8.66 -4 9 C-4.33 9.99 -4.66 10.98 -5 12 C-5.33 12 -5.66 12 -6 12 C-6 9.69 -6 7.38 -6 5 C-5.38125 4.731875 -4.7625 4.46375 -4.125 4.1875 C-1.7004767 3.04443152 -1.7004767 3.04443152 0 0 Z " fill="#121212" transform="translate(554,178)"/>
<path d="M0 0 C0.66 1.32 1.32 2.64 2 4 C1.34 4.66 0.68 5.32 0 6 C-0.37095708 8.42246595 -0.37095708 8.42246595 -0.4140625 11.2265625 C-0.45273437 12.2578125 -0.49140625 13.2890625 -0.53125 14.3515625 C-0.5621875 15.43179688 -0.593125 16.51203125 -0.625 17.625 C-0.66367187 18.71296875 -0.70234375 19.8009375 -0.7421875 20.921875 C-0.83666247 23.61441165 -0.92222431 26.30693757 -1 29 C-1.33 29 -1.66 29 -2 29 C-2.06058594 27.68644531 -2.12117187 26.37289062 -2.18359375 25.01953125 C-2.26803256 23.28384459 -2.35267888 21.54816802 -2.4375 19.8125 C-2.47681641 18.94818359 -2.51613281 18.08386719 -2.55664062 17.19335938 C-2.76347016 13.04085878 -3.00103531 9.05462138 -4 5 C-3.34 5 -2.68 5 -2 5 C-1.7834375 4.0409375 -1.7834375 4.0409375 -1.5625 3.0625 C-1 1 -1 1 0 0 Z " fill="#241A1E" transform="translate(565,85)"/>
<path d="M0 0 C0.66 0 1.32 0 2 0 C2 0.66 2 1.32 2 2 C8.93 2.495 8.93 2.495 16 3 C15.67 3.66 15.34 4.32 15 5 C11.04 4.67 7.08 4.34 3 4 C3 7.96 3 11.92 3 16 C2.67 16 2.34 16 2 16 C2 12.04 2 8.08 2 4 C1.01 4 0.02 4 -1 4 C-0.67 2.68 -0.34 1.36 0 0 Z " fill="#5C5B5B" transform="translate(158,296)"/>
<path d="M0 0 C0.99 0.33 1.98 0.66 3 1 C3.33 2.65 3.66 4.3 4 6 C2.63875 5.9690625 2.63875 5.9690625 1.25 5.9375 C-1.42672588 5.9889755 -3.46988052 6.2215017 -6 7 C-6 6.34 -6 5.68 -6 5 C-3.1875 2.3125 -3.1875 2.3125 0 0 Z " fill="#131011" transform="translate(475,257)"/>
<path d="M0 0 C0 0.99 0 1.98 0 3 C0.66 3 1.32 3 2 3 C2 3.66 2 4.32 2 5 C0.68 5 -0.64 5 -2 5 C-1.67 5.99 -1.34 6.98 -1 8 C-2.32 7.67 -3.64 7.34 -5 7 C-5.6875 5.1875 -5.6875 5.1875 -6 3 C-4.04862098 0.26806937 -3.44686768 0 0 0 Z " fill="#121213" transform="translate(513,60)"/>
<path d="M0 0 C0.66 0.33 1.32 0.66 2 1 C2 10.57 2 20.14 2 30 C1.67 30 1.34 30 1 30 C0.83243072 25.5625336 0.66609843 21.12502168 0.5 16.6875 C0.45230469 15.42486328 0.40460937 14.16222656 0.35546875 12.86132812 C0.31035156 11.65283203 0.26523437 10.44433594 0.21875 9.19921875 C0.17685547 8.08377686 0.13496094 6.96833496 0.09179688 5.8190918 C0.02866095 3.88018086 0 1.9399386 0 0 Z " fill="#070506" transform="translate(57,193)"/>
<path d="M0 0 C0.66 0 1.32 0 2 0 C2.33 4.62 2.66 9.24 3 14 C1.35 14 -0.3 14 -2 14 C-1.34 13.67 -0.68 13.34 0 13 C0 8.71 0 4.42 0 0 Z " fill="#2E1F24" transform="translate(530,251)"/>
<path d="M0 0 C0.66 0 1.32 0 2 0 C3.32229189 2.64458379 3.09677194 4.67761301 3.0625 7.625 C3.05347656 8.62789062 3.04445312 9.63078125 3.03515625 10.6640625 C3.02355469 11.43492188 3.01195312 12.20578125 3 13 C2.01 13.33 1.02 13.66 0 14 C0 12.68 0 11.36 0 10 C0.66 10 1.32 10 2 10 C2 9.01 2 8.02 2 7 C1.34 7 0.68 7 0 7 C0 4.69 0 2.38 0 0 Z " fill="#7E797A" transform="translate(40,98)"/>
<path d="M0 0 C-0.99 0 -1.98 0 -3 0 C-2.979375 1.19625 -2.95875 2.3925 -2.9375 3.625 C-2.93117429 7.18004869 -3.30111125 10.50555624 -4 14 C-4.33 14 -4.66 14 -5 14 C-5 12.35 -5 10.7 -5 9 C-5.66 8.67 -6.32 8.34 -7 8 C-6.34 8 -5.68 8 -5 8 C-5.33 5.36 -5.66 2.72 -6 0 C-3.50907189 -1.24546405 -2.58919267 -0.7767578 0 0 Z " fill="#4A3F42" transform="translate(47,86)"/>
<path d="M0 0 C0.66 0 1.32 0 2 0 C2.33 3.96 2.66 7.92 3 12 C1.02 12.99 1.02 12.99 -1 14 C-0.67 9.38 -0.34 4.76 0 0 Z " fill="#22191C" transform="translate(157,300)"/>
<path d="M0 0 C0.33 0 0.66 0 1 0 C1 4.62 1 9.24 1 14 C-3.95 14 -8.9 14 -14 14 C-14 13.67 -14 13.34 -14 13 C-9.38 13 -4.76 13 0 13 C-0.2784375 10.6178125 -0.2784375 10.6178125 -0.5625 8.1875 C-0.94845472 4.88544294 -1.06671952 3.20015856 0 0 Z " fill="#AAAAAA" transform="translate(57,70)"/>
<path d="M0 0 C3.96 0 7.92 0 12 0 C12 4.62 12 9.24 12 14 C9.41962228 8.83924456 10.17694009 6.59680741 11 1 C7.37 1 3.74 1 0 1 C0 0.67 0 0.34 0 0 Z " fill="#8E898A" transform="translate(46,234)"/>
<path d="M0 0 C0.33 0 0.66 0 1 0 C1.19658808 1.41543415 1.38187546 2.83244031 1.5625 4.25 C1.66691406 5.03890625 1.77132812 5.8278125 1.87890625 6.640625 C2 9 2 9 1 13 C5.29 13 9.58 13 14 13 C14 13.33 14 13.66 14 14 C9.38 14 4.76 14 0 14 C0 9.38 0 4.76 0 0 Z " fill="#888486" transform="translate(549,70)"/>
<path d="M0 0 C4.29 0.33 8.58 0.66 13 1 C13 1.33 13 1.66 13 2 C9.04 2 5.08 2 1 2 C1 5.96 1 9.92 1 14 C0.67 14 0.34 14 0 14 C0 9.38 0 4.76 0 0 Z " fill="#6A595D" transform="translate(176,282)"/>
<path d="M0 0 C8.25 0 16.5 0 25 0 C25 0.33 25 0.66 25 1 C16.75 1 8.5 1 0 1 C0 0.67 0 0.34 0 0 Z " fill="#AAA9A9" transform="translate(97,50)"/>
<path d="M0 0 C4.95 0 9.9 0 15 0 C15 1.32 15 2.64 15 4 C14.34 4 13.68 4 13 4 C12.67 3.34 12.34 2.68 12 2 C9.1840151 1.53101037 9.1840151 1.53101037 5.9375 1.375 C4.28041016 1.26285156 4.28041016 1.26285156 2.58984375 1.1484375 C1.73519531 1.09945312 0.88054688 1.05046875 0 1 C0 0.67 0 0.34 0 0 Z " fill="#16070C" transform="translate(548,86)"/>
<path d="M0 0 C2.64 0 5.28 0 8 0 C8 0.33 8 0.66 8 1 C6.35 1 4.7 1 3 1 C3.33 2.32 3.66 3.64 4 5 C2.68 4.67 1.36 4.34 0 4 C0 2.68 0 1.36 0 0 Z " fill="#1E171B" transform="translate(272,54)"/>
<path d="M0 0 C4.62 0 9.24 0 14 0 C14 0.33 14 0.66 14 1 C9.38 1 4.76 1 0 1 C0 0.67 0 0.34 0 0 Z " fill="#322227" transform="translate(60,250)"/>
<path d="M0 0 C0.33 0.66 0.66 1.32 1 2 C-3.29 2 -7.58 2 -12 2 C-12 1.67 -12 1.34 -12 1 C-6.06 0.505 -6.06 0.505 0 0 Z " fill="#969093" transform="translate(88,50)"/>
<path d="M0 0 C0.33 0 0.66 0 1 0 C1 3.96 1 7.92 1 12 C0.67 12 0.34 12 0 12 C0 8.04 0 4.08 0 0 Z " fill="#9A9A9A" transform="translate(73,252)"/>
<path d="M0 0 C0.33 0 0.66 0 1 0 C1 1.65 1 3.3 1 5 C0.67 5 0.34 5 0 5 C0 3.35 0 1.7 0 0 Z " fill="#3C2B33" transform="translate(565,92)"/>
<path d="M0 0 C1.65 0 3.3 0 5 0 C5 0.33 5 0.66 5 1 C3.35 1 1.7 1 0 1 C0 0.67 0 0.34 0 0 Z " fill="#A29C9F" transform="translate(127,51)"/>
<path d="M0 0 C3 1 3 1 3 1 Z " fill="#48363D" transform="translate(124,331)"/>
<path d="M0 0 C3 1 3 1 3 1 Z " fill="#A39B9F" transform="translate(134,51)"/>
<path d="M0 0 C3 1 3 1 3 1 Z " fill="#B2B1B2" transform="translate(124,50)"/>
<path d="M0 0 C0.33 0.66 0.66 1.32 1 2 C0.34 1.67 -0.32 1.34 -1 1 C-0.67 0.67 -0.34 0.34 0 0 Z " fill="#B4B3B3" transform="translate(281,48)"/>
<path d="M0 0 C2 1 2 1 2 1 Z " fill="#3E2F34" transform="translate(136,331)"/>
<path d="" fill="#535051" transform="translate(0,0)"/>
<path d="" fill="#9F9E9E" transform="translate(0,0)"/>
<path d="" fill="#5F4F53" transform="translate(0,0)"/>
<path d="" fill="#301E26" transform="translate(0,0)"/>
<path d="M0 0 C2 1 2 1 2 1 Z " fill="#989295" transform="translate(95,51)"/>
<path d="M0 0 C2 1 2 1 2 1 Z " fill="#A19FA0" transform="translate(92,50)"/>
<path d="" fill="#3E3A3B" transform="translate(0,0)"/>
<path d="" fill="#454142" transform="translate(0,0)"/>
<path d="" fill="#484445" transform="translate(0,0)"/>
<path d="" fill="#494546" transform="translate(0,0)"/>
<path d="" fill="#4E4D4C" transform="translate(0,0)"/>
<path d="" fill="#4A4748" transform="translate(0,0)"/>
<path d="" fill="#453339" transform="translate(0,0)"/>
<path d="" fill="#595657" transform="translate(0,0)"/>
<path d="" fill="#5A5758" transform="translate(0,0)"/>
<path d="" fill="#513B42" transform="translate(0,0)"/>
<path d="" fill="#A5A5A5" transform="translate(0,0)"/>
<path d="" fill="#9F9E9E" transform="translate(0,0)"/>
<path d="" fill="#838181" transform="translate(0,0)"/>
<path d="" fill="#9F9D9E" transform="translate(0,0)"/>
<path d="" fill="#8C8C8C" transform="translate(0,0)"/>
<path d="" fill="#9A999A" transform="translate(0,0)"/>
<path d="" fill="#3E3236" transform="translate(0,0)"/>
<path d="" fill="#A2A1A1" transform="translate(0,0)"/>
<path d="" fill="#A9A8A8" transform="translate(0,0)"/>
<path d="" fill="#ABAAAA" transform="translate(0,0)"/>
<path d="" fill="#A8A7A7" transform="translate(0,0)"/>
<path d="" fill="#AAA9A9" transform="translate(0,0)"/>
<path d="" fill="#9F9E9E" transform="translate(0,0)"/>
<path d="" fill="#9F9E9E" transform="translate(0,0)"/>
<path d="" fill="#9C9B9C" transform="translate(0,0)"/>
<path d="" fill="#736068" transform="translate(0,0)"/>
<path d="" fill="#B6B6B6" transform="translate(0,0)"/>
<path d="" fill="#B6B5B5" transform="translate(0,0)"/>
<path d="" fill="#A5A4A4" transform="translate(0,0)"/>
<path d="" fill="#979596" transform="translate(0,0)"/>
<path d="" fill="#A7A7A7" transform="translate(0,0)"/>
<path d="" fill="#9B999A" transform="translate(0,0)"/>
<path d="" fill="#9A9899" transform="translate(0,0)"/>
<path d="" fill="#A5A4A4" transform="translate(0,0)"/>
<path d="" fill="#A1989C" transform="translate(0,0)"/>
<path d="" fill="#A09E9F" transform="translate(0,0)"/>
<path d="" fill="#B6B5B5" transform="translate(0,0)"/>
<path d="" fill="#B6B5B6" transform="translate(0,0)"/>
<path d="" fill="#A3A2A3" transform="translate(0,0)"/>
<path d="" fill="#9C9A9B" transform="translate(0,0)"/>
<path d="" fill="#9B9A9A" transform="translate(0,0)"/>
</svg>
