<?xml version="1.0" encoding="UTF-8"?>
<svg version="1.1" xmlns="http://www.w3.org/2000/svg" width="285" height="313">
<path d="M0 0 C6.94170022 -0.05058729 13.88335315 -0.08568579 20.82519531 -0.10986328 C23.18816911 -0.11993924 25.55113039 -0.13360029 27.9140625 -0.15087891 C31.30471888 -0.17505724 34.69521084 -0.18646699 38.0859375 -0.1953125 C39.14743011 -0.20563507 40.20892273 -0.21595764 41.30258179 -0.22659302 C42.77388046 -0.22681961 42.77388046 -0.22681961 44.27490234 -0.22705078 C45.14094086 -0.231492 46.00697937 -0.23593323 46.89926147 -0.24050903 C49 0 49 0 51 2 C51.26683594 2.68707031 51.53367187 3.37414063 51.80859375 4.08203125 C52.84700951 6.25276025 52.84700951 6.25276025 55.34765625 6.57421875 C56.24355469 6.61160156 57.13945312 6.64898437 58.0625 6.6875 C62.93202417 6.93202417 62.93202417 6.93202417 64 8 C64.23287008 9.68183948 64.41264166 11.3712416 64.5625 13.0625 C64.64628906 13.98160156 64.73007813 14.90070312 64.81640625 15.84765625 C64.87699219 16.55792969 64.93757813 17.26820312 65 18 C65.66 18 66.32 18 67 18 C67 18.66 67 19.32 67 20 C67.70125 19.814375 68.4025 19.62875 69.125 19.4375 C72.38589501 18.94127685 74.80482313 19.21895677 78 20 C82 24 82 24 82.20254517 25.91091919 C82.18033905 26.68813324 82.15813293 27.46534729 82.13525391 28.26611328 C82.11508209 29.14687531 82.09491028 30.02763733 82.0741272 30.93508911 C82.04193085 31.88721283 82.0097345 32.83933655 81.9765625 33.8203125 C81.95153656 34.79410858 81.92651062 35.76790466 81.90072632 36.77120972 C81.81838269 39.88948644 81.72184869 43.00714329 81.625 46.125 C81.56677513 48.23565155 81.50947155 50.34632872 81.453125 52.45703125 C81.31278279 57.63836592 81.1607799 62.81926146 81 68 C79.02 68.66 77.04 69.32 75 70 C74.9175 70.78375 74.835 71.5675 74.75 72.375 C74 75 74 75 71.9375 76.3125 C71.298125 76.539375 70.65875 76.76625 70 77 C70 77.66 70 78.32 70 79 C69.01 79 68.02 79 67 79 C67 80.65 67 82.3 67 84 C66.34 83.34 65.68 82.68 65 82 C65.33 82.99 65.66 83.98 66 85 C66.95936041 87.87808122 67.09443788 89.55203514 67.02734375 92.52734375 C67.01509766 93.40197266 67.00285156 94.27660156 66.99023438 95.17773438 C66.95515123 97.01375223 66.91610515 98.84969874 66.87304688 100.68554688 C66.85661133 101.99942383 66.85661133 101.99942383 66.83984375 103.33984375 C66.82300537 104.13769287 66.80616699 104.93554199 66.78881836 105.75756836 C67.02336852 108.24813852 67.75443744 109.85013752 69 112 C71.31 112 73.62 112 76 112 C75.34 111.01 74.68 110.02 74 109 C73.76953125 107.0625 73.76953125 107.0625 73.8125 105 C73.81894531 104.319375 73.82539063 103.63875 73.83203125 102.9375 C74 101 74 101 75 98 C81.85260869 96.17263768 88.32253071 95.80742446 95.375 95.8125 C96.69516113 95.8115332 96.69516113 95.8115332 98.04199219 95.81054688 C101.98281308 95.84382828 105.13291859 96.03322965 109 97 C109.33 99.97 109.66 102.94 110 106 C107 108 107 108 104 109 C104 112.63 104 116.26 104 120 C100.04 120.99 96.08 121.98 92 123 C92 123.33 92 123.66 92 124 C88.37 124 84.74 124 81 124 C80.505 125.98 80.505 125.98 80 128 C77.8614515 130.1385485 76.86724686 130.42655063 74 131 C73.9175 131.598125 73.835 132.19625 73.75 132.8125 C72.77822147 135.64685403 71.51696446 136.4454043 69 138 C68.01 138.33 67.02 138.66 66 139 C65.814375 140.175625 65.814375 140.175625 65.625 141.375 C65 144 65 144 63 146 C61.68 146 60.36 146 59 146 C59 147.65 59 149.3 59 151 C58.01 151 57.02 151 56 151 C54.31763529 151.62599617 52.6476038 152.28752268 51 153 C51 155.97 51 158.94 51 162 C52.65 162 54.3 162 56 162 C56.33 162.66 56.66 163.32 57 164 C57.66 164.33 58.32 164.66 59 165 C59.40729228 167.32156597 59.74438677 169.6568787 60 172 C59.34 172.474375 58.68 172.94875 58 173.4375 C57.34 173.953125 56.68 174.46875 56 175 C56 175.33 56 175.66 56 176 C52.04 176 48.08 176 44 176 C44.33 176.99 44.66 177.98 45 179 C45.01597151 181.13964407 44.96597134 183.28003715 44.87890625 185.41796875 C44.83056641 186.67158203 44.78222656 187.92519531 44.73242188 189.21679688 C44.67634766 190.52712891 44.62027344 191.83746094 44.5625 193.1875 C44.50925765 194.5227663 44.4565174 195.85805272 44.40429688 197.19335938 C44.27447654 200.46247144 44.13950464 203.73128919 44 207 C44.598125 207.12375 45.19625 207.2475 45.8125 207.375 C48 208 48 208 51 210 C51.46411133 212.01538086 51.46411133 212.01538086 51.58203125 214.46484375 C51.62650391 215.34720703 51.67097656 216.22957031 51.71679688 217.13867188 C51.76416992 218.5240918 51.76416992 218.5240918 51.8125 219.9375 C51.88887695 221.31711914 51.88887695 221.31711914 51.96679688 222.72460938 C52.26291645 229.60562532 52.26291645 229.60562532 50 233 C49.67 233.66 49.34 234.32 49 235 C46.125 235.75 46.125 235.75 43 236 C40 234 40 234 39.47583008 231.93701172 C39.40775146 231.10959473 39.33967285 230.28217773 39.26953125 229.4296875 C39.18896484 228.53378906 39.10839844 227.63789063 39.02539062 226.71484375 C38.95513672 225.77769531 38.88488281 224.84054687 38.8125 223.875 C38.73064453 222.93011719 38.64878906 221.98523438 38.56445312 221.01171875 C38.36384579 218.67523326 38.1762523 216.33842824 38 214 C36.35 214 34.7 214 33 214 C32.16417022 211.03911442 31.8201454 208.28951158 31.68359375 205.21875 C31.6206311 203.83937256 31.6206311 203.83937256 31.55639648 202.43212891 C31.51716064 201.46452637 31.4779248 200.49692383 31.4375 199.5 C31.3950415 198.51563965 31.35258301 197.5312793 31.30883789 196.51708984 C31.02852002 189.67327293 30.86994168 182.84973833 31 176 C28.03 176 25.06 176 22 176 C21.67 176.66 21.34 177.32 21 178 C19.43366162 180.17925339 17.90105479 182.09894521 16 184 C12.9609375 183.9765625 12.9609375 183.9765625 9.375 183.625 C8.18648437 183.51414063 6.99796875 183.40328125 5.7734375 183.2890625 C4.85820313 183.19367188 3.94296875 183.09828125 3 183 C2.67 182.01 2.34 181.02 2 180 C1.34 180 0.68 180 0 180 C0 178.68 0 177.36 0 176 C-3.96 176 -7.92 176 -12 176 C-12.33 175.01 -12.66 174.02 -13 173 C-13.66 173 -14.32 173 -15 173 C-15.0825 172.38125 -15.165 171.7625 -15.25 171.125 C-15.79994195 168.8234856 -15.79994195 168.8234856 -18 167.875 C-18.66 167.58625 -19.32 167.2975 -20 167 C-21.4783226 164.04335481 -21.06032783 161.25770263 -21 158 C-16.50343896 155.75171948 -12.92127034 155.83317728 -8 156 C-7.87625 155.401875 -7.7525 154.80375 -7.625 154.1875 C-7 152 -7 152 -5 149 C-1.97485352 148.64355469 -1.97485352 148.64355469 1.87109375 148.671875 C2.54922623 148.67374817 3.2273587 148.67562134 3.92604065 148.67755127 C5.36098135 148.68427631 6.79590358 148.69819997 8.23071289 148.71875 C10.42546664 148.7498296 12.61950139 148.75971334 14.81445312 148.765625 C25.50800318 148.83600106 25.50800318 148.83600106 29 150 C30.28571429 158.57142857 30.28571429 158.57142857 29 162 C30.98 162 32.96 162 35 162 C35.33 162.99 35.66 163.98 36 165 C36 161.7 36 158.4 36 155 C36.99 155 37.98 155 39 155 C39.10957031 154.43410156 39.21914062 153.86820313 39.33203125 153.28515625 C39.49058594 152.55167969 39.64914063 151.81820312 39.8125 151.0625 C39.96332031 150.33160156 40.11414063 149.60070312 40.26953125 148.84765625 C40.51058594 148.23792969 40.75164062 147.62820312 41 147 C41.99 146.67 42.98 146.34 44 146 C44.66 145.01 45.32 144.02 46 143 C46.66 142.62875 47.32 142.2575 48 141.875 C51.14740622 138.92430667 51.33955876 135.14513778 52 131 C51.0409375 130.814375 51.0409375 130.814375 50.0625 130.625 C49.381875 130.41875 48.70125 130.2125 48 130 C46.42829004 126.85658007 46.76824217 123.44228549 47 120 C47.495 118.515 47.495 118.515 48 117 C47.03114628 115.31503702 46.03013277 113.64821244 45 112 C45 111.01 45 110.02 45 109 C31.47 109 17.94 109 4 109 C4 108.34 4 107.68 4 107 C2.68 106.34 1.36 105.68 0 105 C0 101.37 0 97.74 0 94 C-3.63 94 -7.26 94 -11 94 C-11 93.34 -11 92.68 -11 92 C-12.32 91.34 -13.64 90.68 -15 90 C-15 88.68 -15 87.36 -15 86 C-16.65 86 -18.3 86 -20 86 C-20 64.22 -20 42.44 -20 20 C-11 19 -11 19 -8 20 C-7.67 18.68 -7.34 17.36 -7 16 C-6.67 16.33 -6.34 16.66 -6 17 C-5.93941406 16.38511719 -5.87882812 15.77023438 -5.81640625 15.13671875 C-5.73261719 14.32847656 -5.64882812 13.52023438 -5.5625 12.6875 C-5.48128906 11.88699219 -5.40007812 11.08648437 -5.31640625 10.26171875 C-5 8 -5 8 -4 5 C-2.68 5 -1.36 5 0 5 C0 3.35 0 1.7 0 0 Z M25 25 C25 25.33 25 25.66 25 26 C27.31 26.33 29.62 26.66 32 27 C32 26.34 32 25.68 32 25 C29.69 25 27.38 25 25 25 Z M20 29 C22.28705831 30.14352916 23.59264762 30.10334439 26.125 30.0625 C27.40375 30.041875 28.6825 30.02125 30 30 C30 29.01 30 28.02 30 27 C26.05272412 26.82057837 23.4019487 26.90649311 20 29 Z M31 28 C32 30 32 30 32 30 Z M-2 63 C-1 65 -1 65 -1 65 Z M64 105 C65 108 65 108 65 108 Z M36 107 C36 107.33 36 107.66 36 108 C38.64 108 41.28 108 44 108 C44 107.67 44 107.34 44 107 C41.36 107 38.72 107 36 107 Z M65 108 C65 109.98 65 111.96 65 114 C65.33 114 65.66 114 66 114 C66 112.02 66 110.04 66 108 C65.67 108 65.34 108 65 108 Z M46 109 C47 112 47 112 47 112 Z M102 109 C102 110.65 102 112.3 102 114 C102.33 114 102.66 114 103 114 C103 112.35 103 110.7 103 109 C102.67 109 102.34 109 102 109 Z M47 113 C47 113.66 47 114.32 47 115 C48.98 115 50.96 115 53 115 C53 114.67 53 114.34 53 114 C50.03 113.505 50.03 113.505 47 113 Z M68 114 C68 117.3 68 120.6 68 124 C68.33 124 68.66 124 69 124 C69 120.7 69 117.4 69 114 C68.67 114 68.34 114 68 114 Z M65 115 C66 118 66 118 66 118 Z M102 115 C103 117 103 117 103 117 Z M65 120 C66 124 66 124 66 124 Z M53 131 C53 133.64 53 136.28 53 139 C53.33 139 53.66 139 54 139 C54 136.36 54 133.72 54 131 C53.67 131 53.34 131 53 131 Z M64 139 C65 143 65 143 65 143 Z M59 144 C63 145 63 145 63 145 Z M49 154 C49 156.97 49 159.94 49 163 C49.33 163 49.66 163 50 163 C50 160.03 50 157.06 50 154 C49.67 154 49.34 154 49 154 Z M57 166 C57 167.98 57 169.96 57 172 C57.33 172 57.66 172 58 172 C58 170.02 58 168.04 58 166 C57.67 166 57.34 166 57 166 Z M35 167 C36 169 36 169 36 169 Z M35 170 C39 171 39 171 39 171 Z M-2 174 C2 175 2 175 2 175 Z M21 174 C21 174.33 21 174.66 21 175 C22.98 175 24.96 175 27 175 C27 174.67 27 174.34 27 174 C25.02 174 23.04 174 21 174 Z M28 174 C32 175 32 175 32 175 Z M42 177 C43 181 43 181 43 181 Z M42 182 C42 190.25 42 198.5 42 207 C42.33 207 42.66 207 43 207 C43 198.75 43 190.5 43 182 C42.67 182 42.34 182 42 182 Z M49 220 C50 224 50 224 50 224 Z " fill="#F51C40" transform="translate(96,32)"/>
<path d="M0 0 C2.13144381 3.19716572 2.23106729 3.88533179 2.125 7.52734375 C2.10953125 8.40197266 2.0940625 9.27660156 2.078125 10.17773438 C2.02615216 12.01367501 1.9740693 13.84961253 1.921875 15.68554688 C1.90640625 16.56146484 1.8909375 17.43738281 1.875 18.33984375 C1.85179687 19.13769287 1.82859375 19.93554199 1.8046875 20.75756836 C2.02235806 23.25669845 2.74917139 24.84582937 4 27 C6.31 27 8.62 27 11 27 C10.01 25.515 10.01 25.515 9 24 C8.76953125 22.0625 8.76953125 22.0625 8.8125 20 C8.81894531 19.319375 8.82539063 18.63875 8.83203125 17.9375 C9 16 9 16 10 13 C16.85260869 11.17263768 23.32253071 10.80742446 30.375 10.8125 C31.69516113 10.8115332 31.69516113 10.8115332 33.04199219 10.81054688 C36.98281308 10.84382828 40.13291859 11.03322965 44 12 C44.33 14.97 44.66 17.94 45 21 C42 23 42 23 39 24 C39 27.63 39 31.26 39 35 C35.04 35.99 31.08 36.98 27 38 C27 38.33 27 38.66 27 39 C23.37 39 19.74 39 16 39 C15.67 40.32 15.34 41.64 15 43 C12.8614515 45.1385485 11.86724686 45.42655063 9 46 C8.9175 46.598125 8.835 47.19625 8.75 47.8125 C7.77822147 50.64685403 6.51696446 51.4454043 4 53 C2.515 53.495 2.515 53.495 1 54 C0.87625 54.78375 0.7525 55.5675 0.625 56.375 C0 59 0 59 -2 61 C-3.32 61 -4.64 61 -6 61 C-6 62.65 -6 64.3 -6 66 C-6.99 66 -7.98 66 -9 66 C-10.68236471 66.62599617 -12.3523962 67.28752268 -14 68 C-14 70.97 -14 73.94 -14 77 C-12.35 77 -10.7 77 -9 77 C-8.67 77.66 -8.34 78.32 -8 79 C-7.34 79.33 -6.68 79.66 -6 80 C-5.59270772 82.32156597 -5.25561323 84.6568787 -5 87 C-5.66 87.474375 -6.32 87.94875 -7 88.4375 C-7.66 88.953125 -8.32 89.46875 -9 90 C-9 90.33 -9 90.66 -9 91 C-12.96 91 -16.92 91 -21 91 C-20.67 91.99 -20.34 92.98 -20 94 C-19.98402849 96.13964407 -20.03402866 98.28003715 -20.12109375 100.41796875 C-20.16943359 101.67158203 -20.21777344 102.92519531 -20.26757812 104.21679688 C-20.32365234 105.52712891 -20.37972656 106.83746094 -20.4375 108.1875 C-20.49074235 109.5227663 -20.5434826 110.85805272 -20.59570312 112.19335938 C-20.72552346 115.46247144 -20.86049536 118.73128919 -21 122 C-20.401875 122.12375 -19.80375 122.2475 -19.1875 122.375 C-17 123 -17 123 -14 125 C-13.53588867 127.01538086 -13.53588867 127.01538086 -13.41796875 129.46484375 C-13.37349609 130.34720703 -13.32902344 131.22957031 -13.28320312 132.13867188 C-13.23583008 133.5240918 -13.23583008 133.5240918 -13.1875 134.9375 C-13.11112305 136.31711914 -13.11112305 136.31711914 -13.03320312 137.72460938 C-12.73708355 144.60562532 -12.73708355 144.60562532 -15 148 C-15.33 148.66 -15.66 149.32 -16 150 C-18.875 150.75 -18.875 150.75 -22 151 C-25 149 -25 149 -25.52416992 146.93701172 C-25.59224854 146.10959473 -25.66032715 145.28217773 -25.73046875 144.4296875 C-25.81103516 143.53378906 -25.89160156 142.63789063 -25.97460938 141.71484375 C-26.04486328 140.77769531 -26.11511719 139.84054687 -26.1875 138.875 C-26.26935547 137.93011719 -26.35121094 136.98523438 -26.43554688 136.01171875 C-26.63615421 133.67523326 -26.8237477 131.33842824 -27 129 C-28.65 129 -30.3 129 -32 129 C-32.83582978 126.03911442 -33.1798546 123.28951158 -33.31640625 120.21875 C-33.3793689 118.83937256 -33.3793689 118.83937256 -33.44360352 117.43212891 C-33.48283936 116.46452637 -33.5220752 115.49692383 -33.5625 114.5 C-33.6049585 113.51563965 -33.64741699 112.5312793 -33.69116211 111.51708984 C-33.97147998 104.67327293 -34.13005832 97.84973833 -34 91 C-36.97 91 -39.94 91 -43 91 C-43.33 91.66 -43.66 92.32 -44 93 C-45.56633838 95.17925339 -47.09894521 97.09894521 -49 99 C-52.0390625 98.9765625 -52.0390625 98.9765625 -55.625 98.625 C-56.81351563 98.51414062 -58.00203125 98.40328125 -59.2265625 98.2890625 C-60.14179687 98.19367188 -61.05703125 98.09828125 -62 98 C-62.33 97.01 -62.66 96.02 -63 95 C-63.66 95 -64.32 95 -65 95 C-65 93.68 -65 92.36 -65 91 C-68.96 91 -72.92 91 -77 91 C-77.33 90.01 -77.66 89.02 -78 88 C-78.66 88 -79.32 88 -80 88 C-80.0825 87.38125 -80.165 86.7625 -80.25 86.125 C-80.79994195 83.8234856 -80.79994195 83.8234856 -83 82.875 C-83.66 82.58625 -84.32 82.2975 -85 82 C-86.4783226 79.04335481 -86.06032783 76.25770263 -86 73 C-81.50343896 70.75171948 -77.92127034 70.83317728 -73 71 C-72.814375 70.1028125 -72.814375 70.1028125 -72.625 69.1875 C-72 67 -72 67 -70 64 C-66.97485352 63.64355469 -66.97485352 63.64355469 -63.12890625 63.671875 C-62.45077377 63.67374817 -61.7726413 63.67562134 -61.07395935 63.67755127 C-59.63901865 63.68427631 -58.20409642 63.69819997 -56.76928711 63.71875 C-54.57453336 63.7498296 -52.38049861 63.75971334 -50.18554688 63.765625 C-39.49199682 63.83600106 -39.49199682 63.83600106 -36 65 C-34.71428571 73.57142857 -34.71428571 73.57142857 -36 77 C-34.02 77 -32.04 77 -30 77 C-29.67 77.99 -29.34 78.98 -29 80 C-29 76.7 -29 73.4 -29 70 C-28.01 70 -27.02 70 -26 70 C-25.89042969 69.43410156 -25.78085938 68.86820312 -25.66796875 68.28515625 C-25.50941406 67.55167969 -25.35085937 66.81820312 -25.1875 66.0625 C-25.03667969 65.33160156 -24.88585937 64.60070312 -24.73046875 63.84765625 C-24.48941406 63.23792969 -24.24835938 62.62820312 -24 62 C-23.01 61.67 -22.02 61.34 -21 61 C-20.34 60.01 -19.68 59.02 -19 58 C-18.34 57.62875 -17.68 57.2575 -17 56.875 C-13.85259378 53.92430667 -13.66044124 50.14513778 -13 46 C-13.9590625 45.814375 -13.9590625 45.814375 -14.9375 45.625 C-15.618125 45.41875 -16.29875 45.2125 -17 45 C-18.57170996 41.85658007 -18.23175783 38.44228549 -18 35 C-17.67 34.01 -17.34 33.02 -17 32 C-17.99 31.01 -17.99 31.01 -19 30 C-18.95875 29.030625 -18.9175 28.06125 -18.875 27.0625 C-18.91625 26.051875 -18.9575 25.04125 -19 24 C-19.99 23.319375 -19.99 23.319375 -21 22.625 C-23 21 -23 21 -23.265625 19.04296875 C-23.25150088 17.02675027 -23.13193095 15.01194698 -23 13 C-18.71 12.67 -14.42 12.34 -10 12 C-9.34 9.69 -8.68 7.38 -8 5 C-5.69 5 -3.38 5 -1 5 C-0.67 3.35 -0.34 1.7 0 0 Z M-1 20 C0 23 0 23 0 23 Z M0 23 C0 24.98 0 26.96 0 29 C0.33 29 0.66 29 1 29 C1 27.02 1 25.04 1 23 C0.67 23 0.34 23 0 23 Z M37 24 C37 25.65 37 27.3 37 29 C37.33 29 37.66 29 38 29 C38 27.35 38 25.7 38 24 C37.67 24 37.34 24 37 24 Z M-18 28 C-18 28.66 -18 29.32 -18 30 C-16.02 30 -14.04 30 -12 30 C-12 29.67 -12 29.34 -12 29 C-14.97 28.505 -14.97 28.505 -18 28 Z M3 29 C3 32.3 3 35.6 3 39 C3.33 39 3.66 39 4 39 C4 35.7 4 32.4 4 29 C3.67 29 3.34 29 3 29 Z M0 30 C1 33 1 33 1 33 Z M37 30 C38 32 38 32 38 32 Z M0 35 C1 39 1 39 1 39 Z M-12 46 C-12 48.64 -12 51.28 -12 54 C-11.67 54 -11.34 54 -11 54 C-11 51.36 -11 48.72 -11 46 C-11.33 46 -11.66 46 -12 46 Z M-1 54 C0 58 0 58 0 58 Z M-6 59 C-2 60 -2 60 -2 60 Z M-16 69 C-16 71.97 -16 74.94 -16 78 C-15.67 78 -15.34 78 -15 78 C-15 75.03 -15 72.06 -15 69 C-15.33 69 -15.66 69 -16 69 Z M-8 81 C-8 82.98 -8 84.96 -8 87 C-7.67 87 -7.34 87 -7 87 C-7 85.02 -7 83.04 -7 81 C-7.33 81 -7.66 81 -8 81 Z M-30 82 C-29 84 -29 84 -29 84 Z M-30 85 C-26 86 -26 86 -26 86 Z M-67 89 C-63 90 -63 90 -63 90 Z M-44 89 C-44 89.33 -44 89.66 -44 90 C-42.02 90 -40.04 90 -38 90 C-38 89.67 -38 89.34 -38 89 C-39.98 89 -41.96 89 -44 89 Z M-37 89 C-33 90 -33 90 -33 90 Z M-23 92 C-22 96 -22 96 -22 96 Z M-23 97 C-23 105.25 -23 113.5 -23 122 C-22.67 122 -22.34 122 -22 122 C-22 113.75 -22 105.5 -22 97 C-22.33 97 -22.66 97 -23 97 Z M-16 135 C-15 139 -15 139 -15 139 Z " fill="#76BFB2" transform="translate(161,117)"/>
<path d="M0 0 C6.6 0.33 13.2 0.66 20 1 C20 5.29 20 9.58 20 14 C24.95 14.33 29.9 14.66 35 15 C35 29.19 35 43.38 35 58 C33.02 58.33 31.04 58.66 29 59 C28.67 61.31 28.34 63.62 28 66 C25.36 66 22.72 66 20 66 C20 70.95 20 75.9 20 81 C17.525 81.495 17.525 81.495 15 82 C14.34 84.31 13.68 86.62 13 89 C6.565 89.495 6.565 89.495 0 90 C-0.66 91.98 -1.32 93.96 -2 96 C-6.96622349 96.02465098 -11.93241166 96.04283649 -16.89868164 96.05493164 C-18.58944316 96.0599719 -20.28020029 96.06680405 -21.97094727 96.07543945 C-24.39600707 96.08751857 -26.82100944 96.09323123 -29.24609375 96.09765625 C-30.38672523 96.10539818 -30.38672523 96.10539818 -31.55039978 96.11329651 C-33.3673257 96.11349238 -35.18413127 96.06197277 -37 96 C-38 95 -38 95 -38.09765625 91.83984375 C-38.08025391 89.90818359 -38.08025391 89.90818359 -38.0625 87.9375 C-38.05347656 86.64714844 -38.04445313 85.35679688 -38.03515625 84.02734375 C-38.02355469 83.02832031 -38.01195313 82.02929688 -38 81 C-36.02 81.33 -34.04 81.66 -32 82 C-31.67 83.98 -31.34 85.96 -31 88 C-30.05362671 88.03758423 -30.05362671 88.03758423 -29.08813477 88.07592773 C-26.24603175 88.19154137 -23.40428917 88.31442316 -20.5625 88.4375 C-19.56927734 88.47681641 -18.57605469 88.51613281 -17.55273438 88.55664062 C-16.60849609 88.59853516 -15.66425781 88.64042969 -14.69140625 88.68359375 C-13.81685791 88.72025146 -12.94230957 88.75690918 -12.04125977 88.79467773 C-10 89 -10 89 -9 90 C-8.95936168 91.66617115 -8.957279 93.33388095 -9 95 C-7.02 95 -5.04 95 -3 95 C-1.35993952 88.33042073 -0.48641215 81.84817102 0 75 C2.97 74.505 2.97 74.505 6 74 C6.33 72.02 6.66 70.04 7 68 C10.465 67.01 10.465 67.01 14 66 C14 63.69 14 61.38 14 59 C11.03 58.67 8.06 58.34 5 58 C5 60.64 5 63.28 5 66 C2.03 66.495 2.03 66.495 -1 67 C-1.33 68.98 -1.66 70.96 -2 73 C-4.97 73.495 -4.97 73.495 -8 74 C-8.33 76.31 -8.66 78.62 -9 81 C-16.26 81 -23.52 81 -31 81 C-31 78.36 -31 75.72 -31 73 C-34.465 73.495 -34.465 73.495 -38 74 C-39 71 -39 71 -37.95703125 68.82421875 C-36 67 -36 67 -33.07421875 66.64453125 C-31.95660156 66.69996094 -30.83898437 66.75539063 -29.6875 66.8125 C-25.27061073 67.00230825 -21.34430494 66.8609742 -17 66 C-16.34 64.02 -15.68 62.04 -15 60 C-12.03 59.505 -12.03 59.505 -9 59 C-9 54.05 -9 49.1 -9 44 C-6.36 43.67 -3.72 43.34 -1 43 C-0.67 41.02 -0.34 39.04 0 37 C1.98 36.34 3.96 35.68 6 35 C6.33 31.04 6.66 27.08 7 23 C11 22 11 22 13 22 C13.33 31.24 13.66 40.48 14 50 C16.31 50.33 18.62 50.66 21 51 C21.33 41.1 21.66 31.2 22 21 C19.36 21 16.72 21 14 21 C13.505 17.535 13.505 17.535 13 14 C11.02 14 9.04 14 7 14 C6.505 10.04 6.505 10.04 6 6 C4.02 6 2.04 6 0 6 C0 4.02 0 2.04 0 0 Z " fill="#DF0A2A" transform="translate(138,41)"/>
<path d="M0 0 C6.94170022 -0.05058729 13.88335315 -0.08568579 20.82519531 -0.10986328 C23.18816911 -0.11993924 25.55113039 -0.13360029 27.9140625 -0.15087891 C31.30471888 -0.17505724 34.69521084 -0.18646699 38.0859375 -0.1953125 C39.14743011 -0.20563507 40.20892273 -0.21595764 41.30258179 -0.22659302 C42.77388046 -0.22681961 42.77388046 -0.22681961 44.27490234 -0.22705078 C45.14094086 -0.231492 46.00697937 -0.23593323 46.89926147 -0.24050903 C49 0 49 0 51 2 C51.26683594 2.68707031 51.53367187 3.37414063 51.80859375 4.08203125 C52.84700951 6.25276025 52.84700951 6.25276025 55.34765625 6.57421875 C56.24355469 6.61160156 57.13945312 6.64898437 58.0625 6.6875 C62.93202417 6.93202417 62.93202417 6.93202417 64 8 C64.23287008 9.68183948 64.41264166 11.3712416 64.5625 13.0625 C64.64628906 13.98160156 64.73007813 14.90070312 64.81640625 15.84765625 C64.87699219 16.55792969 64.93757813 17.26820312 65 18 C65.66 18 66.32 18 67 18 C67 18.66 67 19.32 67 20 C67.70125 19.814375 68.4025 19.62875 69.125 19.4375 C72.38589501 18.94127685 74.80482313 19.21895677 78 20 C82 24 82 24 82.20254517 25.91091919 C82.18033905 26.68813324 82.15813293 27.46534729 82.13525391 28.26611328 C82.11508209 29.14687531 82.09491028 30.02763733 82.0741272 30.93508911 C82.04193085 31.88721283 82.0097345 32.83933655 81.9765625 33.8203125 C81.95153656 34.79410858 81.92651062 35.76790466 81.90072632 36.77120972 C81.81838269 39.88948644 81.72184869 43.00714329 81.625 46.125 C81.56677513 48.23565155 81.50947155 50.34632872 81.453125 52.45703125 C81.31278279 57.63836592 81.1607799 62.81926146 81 68 C79.02 68.66 77.04 69.32 75 70 C74.9175 70.78375 74.835 71.5675 74.75 72.375 C74 75 74 75 71.9375 76.3125 C71.298125 76.539375 70.65875 76.76625 70 77 C70 77.66 70 78.32 70 79 C69.01 79 68.02 79 67 79 C67 80.65 67 82.3 67 84 C66.34 83.34 65.68 82.68 65 82 C64.67 84.64 64.34 87.28 64 90 C63.34 90 62.68 90 62 90 C62 85.05 62 80.1 62 75 C64.64 75 67.28 75 70 75 C69.979375 73.865625 69.95875 72.73125 69.9375 71.5625 C70 68 70 68 71 67 C72.98 67 74.96 67 77 67 C77 52.81 77 38.62 77 24 C72.71 24 68.42 24 64 24 C63.34 23.67 62.68 23.34 62 23 C62 18.71 62 14.42 62 10 C57.05 10 52.1 10 47 10 C47 7.36 47 4.72 47 2 C32.81 2 18.62 2 4 2 C4 3.98 4 5.96 4 8 C3.67 8.33 3.34 8.66 3 9 C1.02 9 -0.96 9 -3 9 C-3 13.62 -3 18.24 -3 23 C-7.26159382 25.13079691 -13.40763702 24.04502317 -18 24 C-17.67 30.93 -17.34 37.86 -17 45 C-15.35 45.33 -13.7 45.66 -12 46 C-12.061875 45.05125 -12.12375 44.1025 -12.1875 43.125 C-12.125625 42.09375 -12.06375 41.0625 -12 40 C-9 38 -9 38 -6.8125 38.375 C-6.214375 38.58125 -5.61625 38.7875 -5 39 C-4.93941406 40.02480469 -4.87882812 41.04960938 -4.81640625 42.10546875 C-4.73194974 43.46615695 -4.64730433 44.82683343 -4.5625 46.1875 C-4.52318359 46.86103516 -4.48386719 47.53457031 -4.44335938 48.22851562 C-4.21072435 51.89699102 -3.82792989 55.41694206 -3 59 C-1.2984375 59.185625 -1.2984375 59.185625 0.4375 59.375 C1.613125 59.58125 2.78875 59.7875 4 60 C5 62 5 62 5 68 C11.6 68 18.2 68 25 68 C25 65.69 25 63.38 25 61 C20.71 61 16.42 61 12 61 C12 60.67 12 60.34 12 60 C16.62 60 21.24 60 26 60 C26 62.31 26 64.62 26 67 C27.98 67 29.96 67 32 67 C32 62.38 32 57.76 32 53 C32.33 53 32.66 53 33 53 C33 57.95 33 62.9 33 68 C30.03 68.495 30.03 68.495 27 69 C26.67 70.98 26.34 72.96 26 75 C19.38190423 77.46254726 12.99560484 77.18935472 6 77 C4.42726432 79.8424854 4.42726432 79.8424854 4 83 C7.465 82.505 7.465 82.505 11 82 C11 84.64 11 87.28 11 90 C18.26 90 25.52 90 33 90 C33 87.69 33 85.38 33 83 C34 82 34 82 37.0625 81.9375 C38.031875 81.958125 39.00125 81.97875 40 82 C39.979375 81.030625 39.95875 80.06125 39.9375 79.0625 C40 76 40 76 41 75 C42.99958364 74.95919217 45.00045254 74.95745644 47 75 C47 72.36 47 69.72 47 67 C48.47906892 66.97310784 49.95827483 66.95365379 51.4375 66.9375 C52.26121094 66.92589844 53.08492188 66.91429688 53.93359375 66.90234375 C56 67 56 67 57 68 C57.1875 71.4375 57.1875 71.4375 57 75 C55 77 55 77 51.875 77.125 C50.92625 77.08375 49.9775 77.0425 49 77 C49.020625 77.969375 49.04125 78.93875 49.0625 79.9375 C49 83 49 83 48 84 C46.00041636 84.04080783 43.99954746 84.04254356 42 84 C42.05220703 85.03447266 42.05220703 85.03447266 42.10546875 86.08984375 C42.2954582 92.68519186 41.52898251 97.90334573 39 104 C37.02 104 35.04 104 33 104 C32.67 102.35 32.34 100.7 32 99 C31.36908447 98.97494385 30.73816895 98.9498877 30.08813477 98.92407227 C27.24603175 98.80845863 24.40428917 98.68557684 21.5625 98.5625 C20.56927734 98.52318359 19.57605469 98.48386719 18.55273438 98.44335938 C17.60849609 98.40146484 16.66425781 98.35957031 15.69140625 98.31640625 C14.81685791 98.27974854 13.94230957 98.24309082 13.04125977 98.20532227 C11 98 11 98 10 97 C9.95919217 95.00041636 9.95745644 92.99954746 10 91 C8.35 91 6.7 91 5 91 C5 95.29 5 99.58 5 104 C16.55 104 28.1 104 40 104 C40.33 102.35 40.66 100.7 41 99 C41.33 99 41.66 99 42 99 C42.495 102.96 42.495 102.96 43 107 C43.99 107.33 44.98 107.66 46 108 C45.505 109.98 45.505 109.98 45 112 C45 111.01 45 110.02 45 109 C31.47 109 17.94 109 4 109 C4 108.34 4 107.68 4 107 C2.68 106.34 1.36 105.68 0 105 C0 101.37 0 97.74 0 94 C-3.63 94 -7.26 94 -11 94 C-11 93.34 -11 92.68 -11 92 C-12.32 91.34 -13.64 90.68 -15 90 C-15 88.68 -15 87.36 -15 86 C-16.65 86 -18.3 86 -20 86 C-20 64.22 -20 42.44 -20 20 C-11 19 -11 19 -8 20 C-7.67 18.68 -7.34 17.36 -7 16 C-6.67 16.33 -6.34 16.66 -6 17 C-5.93941406 16.38511719 -5.87882812 15.77023438 -5.81640625 15.13671875 C-5.73261719 14.32847656 -5.64882812 13.52023438 -5.5625 12.6875 C-5.48128906 11.88699219 -5.40007812 11.08648437 -5.31640625 10.26171875 C-5 8 -5 8 -4 5 C-2.68 5 -1.36 5 0 5 C0 3.35 0 1.7 0 0 Z M-2 63 C-1 65 -1 65 -1 65 Z " fill="#F1183B" transform="translate(96,32)"/>
<path d="M0 0 C1.98 0 3.96 0 6 0 C6.66 1.98 7.32 3.96 8 6 C9.98 6 11.96 6 14 6 C13.88588196 8.75084547 13.75914051 11.50011947 13.625 14.25 C13.57859375 15.41595703 13.57859375 15.41595703 13.53125 16.60546875 C13.14936096 24.05230496 13.14936096 24.05230496 11 27 C8.875 27.75 8.875 27.75 7 28 C6.67 30.64 6.34 33.28 6 36 C4.02 36.66 2.04 37.32 0 38 C0 42.29 0 46.58 0 51 C1.98 51.33 3.96 51.66 6 52 C6.66 53.98 7.32 55.96 8 58 C12.29 58.33 16.58 58.66 21 59 C21 61.31 21 63.62 21 66 C14.4 66 7.8 66 1 66 C0.67 63.36 0.34 60.72 0 58 C-2.31 58 -4.62 58 -7 58 C-8.77401632 53.37025009 -9.39641621 49.03955157 -9.625 44.125 C-9.66367188 43.43664062 -9.70234375 42.74828125 -9.7421875 42.0390625 C-9.83548166 40.35976754 -9.91878238 38.67992233 -10 37 C-12.475 37.495 -12.475 37.495 -15 38 C-15.33 39.98 -15.66 41.96 -16 44 C-18.475 44.495 -18.475 44.495 -21 45 C-22.2263757 42.54724859 -22.11415314 40.9494219 -22.09765625 38.2109375 C-22.09443359 37.26992187 -22.09121094 36.32890625 -22.08789062 35.359375 C-22.07951172 34.37453125 -22.07113281 33.3896875 -22.0625 32.375 C-22.05798828 31.38242188 -22.05347656 30.38984375 -22.04882812 29.3671875 C-22.03702161 26.91143278 -22.01908582 24.45570894 -22 22 C-17.05 21.67 -12.1 21.34 -7 21 C-7 16.38 -7 11.76 -7 7 C-5.02 6.67 -3.04 6.34 -1 6 C-0.67 4.02 -0.34 2.04 0 0 Z " fill="#F11436" transform="translate(100,34)"/>
<path d="M0 0 C1.66666667 0 3.33333333 0 5 0 C5 9.57 5 19.14 5 29 C2.69 29 0.38 29 -2 29 C-2.33 33.95 -2.66 38.9 -3 44 C-5.97 44.495 -5.97 44.495 -9 45 C-9.33 46.98 -9.66 48.96 -10 51 C-12.97 51.495 -12.97 51.495 -16 52 C-16.33 54.31 -16.66 56.62 -17 59 C-24.26 59 -31.52 59 -39 59 C-39 56.36 -39 53.72 -39 51 C-42.465 51.495 -42.465 51.495 -46 52 C-47 49 -47 49 -45.95703125 46.82421875 C-44 45 -44 45 -41.07421875 44.64453125 C-39.95660156 44.69996094 -38.83898437 44.75539062 -37.6875 44.8125 C-33.27061073 45.00230825 -29.34430494 44.8609742 -25 44 C-24.34 42.02 -23.68 40.04 -23 38 C-20.03 37.505 -20.03 37.505 -17 37 C-17 32.05 -17 27.1 -17 22 C-13.04 21.505 -13.04 21.505 -9 21 C-8.67 19.02 -8.34 17.04 -8 15 C-6.02 14.34 -4.04 13.68 -2 13 C-1.90912109 11.71802734 -1.90912109 11.71802734 -1.81640625 10.41015625 C-1.73261719 9.30542969 -1.64882812 8.20070313 -1.5625 7.0625 C-1.48128906 5.96035156 -1.40007812 4.85820313 -1.31640625 3.72265625 C-1 1 -1 1 0 0 Z " fill="#DB092A" transform="translate(146,63)"/>
<path d="M0 0 C6.94170022 -0.05058729 13.88335315 -0.08568579 20.82519531 -0.10986328 C23.18816911 -0.11993924 25.55113039 -0.13360029 27.9140625 -0.15087891 C31.30471888 -0.17505724 34.69521084 -0.18646699 38.0859375 -0.1953125 C39.14743011 -0.20563507 40.20892273 -0.21595764 41.30258179 -0.22659302 C42.77388046 -0.22681961 42.77388046 -0.22681961 44.27490234 -0.22705078 C45.14094086 -0.231492 46.00697937 -0.23593323 46.89926147 -0.24050903 C49 0 49 0 51 2 C51.26683594 2.68707031 51.53367187 3.37414063 51.80859375 4.08203125 C52.84700951 6.25276025 52.84700951 6.25276025 55.34765625 6.57421875 C56.24355469 6.61160156 57.13945312 6.64898437 58.0625 6.6875 C62.93202417 6.93202417 62.93202417 6.93202417 64 8 C64.23287008 9.68183948 64.41264166 11.3712416 64.5625 13.0625 C64.64628906 13.98160156 64.73007813 14.90070312 64.81640625 15.84765625 C64.87699219 16.55792969 64.93757813 17.26820312 65 18 C65.66 18 66.32 18 67 18 C67 18.66 67 19.32 67 20 C67.70125 19.814375 68.4025 19.62875 69.125 19.4375 C72.38589501 18.94127685 74.80482313 19.21895677 78 20 C82 24 82 24 82.20254517 25.91091919 C82.18033905 26.68813324 82.15813293 27.46534729 82.13525391 28.26611328 C82.11508209 29.14687531 82.09491028 30.02763733 82.0741272 30.93508911 C82.04193085 31.88721283 82.0097345 32.83933655 81.9765625 33.8203125 C81.95153656 34.79410858 81.92651062 35.76790466 81.90072632 36.77120972 C81.81838269 39.88948644 81.72184869 43.00714329 81.625 46.125 C81.56677513 48.23565155 81.50947155 50.34632872 81.453125 52.45703125 C81.31278279 57.63836592 81.1607799 62.81926146 81 68 C79.02 68.66 77.04 69.32 75 70 C74.9175 70.78375 74.835 71.5675 74.75 72.375 C74 75 74 75 71.9375 76.3125 C71.298125 76.539375 70.65875 76.76625 70 77 C70 77.66 70 78.32 70 79 C69.01 79 68.02 79 67 79 C67 80.65 67 82.3 67 84 C66.34 83.34 65.68 82.68 65 82 C64.67 84.64 64.34 87.28 64 90 C63.34 90 62.68 90 62 90 C62 85.05 62 80.1 62 75 C64.64 75 67.28 75 70 75 C69.979375 73.865625 69.95875 72.73125 69.9375 71.5625 C70 68 70 68 71 67 C72.98 67 74.96 67 77 67 C77 52.81 77 38.62 77 24 C72.71 24 68.42 24 64 24 C63.34 23.67 62.68 23.34 62 23 C62 18.71 62 14.42 62 10 C57.05 10 52.1 10 47 10 C47 7.36 47 4.72 47 2 C32.81 2 18.62 2 4 2 C4 3.98 4 5.96 4 8 C3.67 8.33 3.34 8.66 3 9 C1.02 9 -0.96 9 -3 9 C-3 13.62 -3 18.24 -3 23 C-7.48206302 25.24103151 -12.98890121 24 -18 24 C-18 43.14 -18 62.28 -18 82 C-16.02 82 -14.04 82 -12 82 C-11 83 -11 83 -11 89 C-6.05 89 -1.1 89 4 89 C4.33 93.95 4.66 98.9 5 104 C16.55 104 28.1 104 40 104 C40.33 102.35 40.66 100.7 41 99 C41.33 99 41.66 99 42 99 C42.495 102.96 42.495 102.96 43 107 C43.99 107.33 44.98 107.66 46 108 C45.505 109.98 45.505 109.98 45 112 C45 111.01 45 110.02 45 109 C31.47 109 17.94 109 4 109 C4 108.34 4 107.68 4 107 C2.68 106.34 1.36 105.68 0 105 C0 101.37 0 97.74 0 94 C-3.63 94 -7.26 94 -11 94 C-11 93.34 -11 92.68 -11 92 C-12.32 91.34 -13.64 90.68 -15 90 C-15 88.68 -15 87.36 -15 86 C-16.65 86 -18.3 86 -20 86 C-20 64.22 -20 42.44 -20 20 C-11 19 -11 19 -8 20 C-7.67 18.68 -7.34 17.36 -7 16 C-6.67 16.33 -6.34 16.66 -6 17 C-5.93941406 16.38511719 -5.87882812 15.77023438 -5.81640625 15.13671875 C-5.73261719 14.32847656 -5.64882812 13.52023438 -5.5625 12.6875 C-5.48128906 11.88699219 -5.40007812 11.08648437 -5.31640625 10.26171875 C-5 8 -5 8 -4 5 C-2.68 5 -1.36 5 0 5 C0 3.35 0 1.7 0 0 Z " fill="#CB465D" transform="translate(96,32)"/>
<path d="M0 0 C9.24 0 18.48 0 28 0 C28 4.95 28 9.9 28 15 C30.31 15 32.62 15 35 15 C35 16.98 35 18.96 35 21 C30.38 21 25.76 21 21 21 C20.67 23.31 20.34 25.62 20 28 C15.71 28 11.42 28 7 28 C7 25.69 7 23.38 7 21 C2.05 21 -2.9 21 -8 21 C-8.33 18.69 -8.66 16.38 -9 14 C-11.97 13.505 -11.97 13.505 -15 13 C-15 11.35 -15 9.7 -15 8 C-10.05 8 -5.1 8 0 8 C0 5.36 0 2.72 0 0 Z " fill="#5AC4AC" transform="translate(93,183)"/>
<path d="M0 0 C1.98 0 3.96 0 6 0 C6 0.33 6 0.66 6 1 C4.35 1 2.7 1 1 1 C1 2.98 1 4.96 1 7 C2.98 7 4.96 7 7 7 C7.82638376 9.89234315 8 11.88742431 8 15 C8.969375 14.814375 9.93875 14.62875 10.9375 14.4375 C12.4534375 14.2209375 12.4534375 14.2209375 14 14 C15 15 15 15 15.0625 18.5625 C15.041875 19.696875 15.02125 20.83125 15 22 C17.64 22 20.28 22 23 22 C23 31.9 23 41.8 23 52 C21 53 21 53 14 51 C14 41.76 14 32.52 14 23 C12.02 23.99 12.02 23.99 10 25 C9.67 24.67 9.34 24.34 9 24 C8.95101562 24.85464844 8.90203125 25.70929688 8.8515625 26.58984375 C8.77679688 27.69457031 8.70203125 28.79929687 8.625 29.9375 C8.55539063 31.03964844 8.48578125 32.14179687 8.4140625 33.27734375 C8.27742188 34.17582031 8.14078125 35.07429688 8 36 C7.01 36.495 7.01 36.495 6 37 C6 32.38 6 27.76 6 23 C4.02 23 2.04 23 0 23 C-0.66 20.69 -1.32 18.38 -2 16 C-6.42682491 14.9609622 -10.78934632 14.68407049 -15.3125 14.4375 C-16.05306641 14.39431641 -16.79363281 14.35113281 -17.55664062 14.30664062 C-19.37091464 14.20129568 -21.1854355 14.10021684 -23 14 C-23 11.69 -23 9.38 -23 7 C-15.41 7 -7.82 7 0 7 C0 4.69 0 2.38 0 0 Z " fill="#E81436" transform="translate(137,40)"/>
<path d="M0 0 C12.21 0 24.42 0 37 0 C37 1.98 37 3.96 37 6 C35.02 6 33.04 6 31 6 C31 8.31 31 10.62 31 13 C25.70346121 13.93959624 20.91331483 13.98841115 15.5625 13.5625 C14.83095703 13.51029297 14.09941406 13.45808594 13.34570312 13.40429688 C11.56331378 13.27615124 9.7815743 13.1390184 8 13 C8 10.69 8 8.38 8 6 C6.02 6 4.04 6 2 6 C1.34 4.02 0.68 2.04 0 0 Z M7 13 C7.33 13 7.66 13 8 13 C8 15.31 8 17.62 8 20 C13.28 20 18.56 20 24 20 C24 22.97 24 25.94 24 29 C20.71480525 30.09506492 18.26336585 30.09960608 14.8125 30.0625 C13.18248047 30.04896484 13.18248047 30.04896484 11.51953125 30.03515625 C10.68808594 30.02355469 9.85664062 30.01195313 9 30 C9.020625 30.969375 9.04125 31.93875 9.0625 32.9375 C9 36 9 36 8 37 C4.5 37.125 4.5 37.125 1 37 C0 36 0 36 -0.09765625 34.15234375 C-0.06510417 32.1015625 -0.03255208 30.05078125 0 28 C0.78375 27.773125 1.5675 27.54625 2.375 27.3125 C5.21875 26.21875 5.21875 26.21875 6.3125 23.375 C6.539375 22.59125 6.76625 21.8075 7 21 C5.35 21 3.7 21 2 21 C2 20.67 2 20.34 2 20 C3.65 20 5.3 20 7 20 C7 17.69 7 15.38 7 13 Z M15 23 C15 23.33 15 23.66 15 24 C17.31 24.33 19.62 24.66 22 25 C22 24.34 22 23.68 22 23 C19.69 23 17.38 23 15 23 Z M10 27 C12.28705831 28.14352916 13.59264762 28.10334439 16.125 28.0625 C17.40375 28.041875 18.6825 28.02125 20 28 C20 27.01 20 26.02 20 25 C16.05272412 24.82057837 13.4019487 24.90649311 10 27 Z M21 26 C22 28 22 28 22 28 Z " fill="#F61C3E" transform="translate(106,34)"/>
<path d="M0 0 C2.31 0 4.62 0 7 0 C7 2.97 7 5.94 7 9 C6.67 9 6.34 9 6 9 C6 18.24 6 27.48 6 37 C8.31 37.66 10.62 38.32 13 39 C13.33 41.31 13.66 43.62 14 46 C11.36 46 8.72 46 6 46 C5.67 47.98 5.34 49.96 5 52 C3.35 52 1.7 52 0 52 C-0.33 47.38 -0.66 42.76 -1 38 C-3.31 37.67 -5.62 37.34 -8 37 C-8 35.02 -8 33.04 -8 31 C-4.535 30.505 -4.535 30.505 -1 30 C-0.67 27.36 -0.34 24.72 0 22 C-2.64 22 -5.28 22 -8 22 C-8 19.69 -8 17.38 -8 15 C-8.99 15.66 -9.98 16.32 -11 17 C-11.99 17 -12.98 17 -14 17 C-15 16 -15 16 -15.09765625 14.15234375 C-15.06510417 12.1015625 -15.03255208 10.05078125 -15 8 C-8.565 7.505 -8.565 7.505 -2 7 C-1.34 4.69 -0.68 2.38 0 0 Z " fill="#5BC2AC" transform="translate(153,122)"/>
<path d="M0 0 C2.13144381 3.19716572 2.23106729 3.88533179 2.125 7.52734375 C2.10953125 8.40197266 2.0940625 9.27660156 2.078125 10.17773438 C2.02615216 12.01367501 1.9740693 13.84961253 1.921875 15.68554688 C1.89867187 16.99942383 1.89867187 16.99942383 1.875 18.33984375 C1.85179687 19.13769287 1.82859375 19.93554199 1.8046875 20.75756836 C2.02235806 23.25669845 2.74917139 24.84582937 4 27 C6.31 27 8.62 27 11 27 C10.34 26.01 9.68 25.02 9 24 C8.76953125 22.0625 8.76953125 22.0625 8.8125 20 C8.81894531 19.319375 8.82539063 18.63875 8.83203125 17.9375 C9 16 9 16 10 13 C16.85260869 11.17263768 23.32253071 10.80742446 30.375 10.8125 C31.25510742 10.81185547 32.13521484 10.81121094 33.04199219 10.81054688 C36.98281308 10.84382828 40.13291859 11.03322965 44 12 C44.495 16.455 44.495 16.455 45 21 C42 23 42 23 39 24 C39 27.63 39 31.26 39 35 C37.68 35 36.36 35 35 35 C34.80610904 32.5211787 34.61959877 30.04219069 34.4375 27.5625 C34.35338867 26.50192383 34.35338867 26.50192383 34.26757812 25.41992188 C34.13809007 23.61572163 34.06478392 21.80768048 34 20 C35 19 35 19 38.5625 18.9375 C39.696875 18.958125 40.83125 18.97875 42 19 C42 17.35 42 15.7 42 14 C32.76 14 23.52 14 14 14 C14 18.62 14 23.24 14 28 C13.67 28.33 13.34 28.66 13 29 C11.02 29 9.04 29 7 29 C7 33.29 7 37.58 7 42 C8.98 42 10.96 42 13 42 C13 43.32 13 44.64 13 46 C11.68 46 10.36 46 9 46 C8.67 47.32 8.34 48.64 8 50 C7.01 50 6.02 50 5 50 C4.67 48.02 4.34 46.04 4 44 C1.69 43.34 -0.62 42.68 -3 42 C-3 32.43 -3 22.86 -3 13 C-2.01 13.495 -2.01 13.495 -1 14 C-0.67 9.38 -0.34 4.76 0 0 Z M-1 20 C0 23 0 23 0 23 Z M0 23 C0 24.98 0 26.96 0 29 C0.33 29 0.66 29 1 29 C1 27.02 1 25.04 1 23 C0.67 23 0.34 23 0 23 Z M37 24 C37 25.65 37 27.3 37 29 C37.33 29 37.66 29 38 29 C38 27.35 38 25.7 38 24 C37.67 24 37.34 24 37 24 Z M3 29 C3 32.3 3 35.6 3 39 C3.33 39 3.66 39 4 39 C4 35.7 4 32.4 4 29 C3.67 29 3.34 29 3 29 Z M0 30 C1 33 1 33 1 33 Z M37 30 C38 32 38 32 38 32 Z M0 35 C1 39 1 39 1 39 Z " fill="#92B8B0" transform="translate(161,117)"/>
<path d="M0 0 C1.47906892 -0.02689216 2.95827483 -0.04634621 4.4375 -0.0625 C5.26121094 -0.07410156 6.08492187 -0.08570312 6.93359375 -0.09765625 C9 0 9 0 10 1 C10.1875 4.4375 10.1875 4.4375 10 8 C8 10 8 10 4.875 10.125 C3.92625 10.08375 2.9775 10.0425 2 10 C2.020625 10.969375 2.04125 11.93875 2.0625 12.9375 C2 16 2 16 1 17 C-0.99958364 17.04080783 -3.00045254 17.04254356 -5 17 C-4.94779297 18.03447266 -4.94779297 18.03447266 -4.89453125 19.08984375 C-4.7045418 25.68519186 -5.47101749 30.90334573 -8 37 C-9.98 37 -11.96 37 -14 37 C-14 35.02 -14 33.04 -14 31 C-20.93 30.67 -27.86 30.34 -35 30 C-35 28.02 -35 26.04 -35 24 C-28.07 24 -21.14 24 -14 24 C-14 21.36 -14 18.72 -14 16 C-13 15 -13 15 -9.9375 14.9375 C-8.4834375 14.9684375 -8.4834375 14.9684375 -7 15 C-7.020625 14.030625 -7.04125 13.06125 -7.0625 12.0625 C-7 9 -7 9 -6 8 C-4.00041636 7.95919217 -1.99954746 7.95745644 0 8 C0 5.36 0 2.72 0 0 Z " fill="#F61D43" transform="translate(143,99)"/>
<path d="M0 0 C6.6 0.33 13.2 0.66 20 1 C20.22786458 4.54817708 20.45572917 8.09635417 20.68359375 11.64453125 C20.87184547 14.99181893 20.87184547 14.99181893 22 18 C25.63 17.67 29.26 17.34 33 17 C33 18.32 33 19.64 33 21 C31.68 21.33 30.36 21.66 29 22 C28.67 29.26 28.34 36.52 28 44 C26.02 44.66 24.04 45.32 22 46 C22 37.75 22 29.5 22 21 C19.36 21 16.72 21 14 21 C13.67 18.69 13.34 16.38 13 14 C11.02 14 9.04 14 7 14 C6.67 11.36 6.34 8.72 6 6 C4.02 6 2.04 6 0 6 C0 4.02 0 2.04 0 0 Z " fill="#DB0A2B" transform="translate(138,41)"/>
<path d="M0 0 C1.98 0 3.96 0 6 0 C6 2.31 6 4.62 6 7 C4.02 7.66 2.04 8.32 0 9 C0 13.29 0 17.58 0 22 C1.98 22.33 3.96 22.66 6 23 C6.66 24.98 7.32 26.96 8 29 C12.29 29.33 16.58 29.66 21 30 C21 32.31 21 34.62 21 37 C14.4 37 7.8 37 1 37 C0.67 34.36 0.34 31.72 0 29 C-1.7015625 29.0309375 -1.7015625 29.0309375 -3.4375 29.0625 C-7 29 -7 29 -8 28 C-8.09862603 26.60825641 -8.1307898 25.21163857 -8.1328125 23.81640625 C-8.13410156 22.97142578 -8.13539062 22.12644531 -8.13671875 21.25585938 C-8.13091797 19.92264648 -8.13091797 19.92264648 -8.125 18.5625 C-8.12886719 17.67755859 -8.13273437 16.79261719 -8.13671875 15.88085938 C-8.13478516 14.61145508 -8.13478516 14.61145508 -8.1328125 13.31640625 C-8.13168457 12.53724854 -8.13055664 11.75809082 -8.12939453 10.95532227 C-8 9 -8 9 -7 7 C-4.4375 6.375 -4.4375 6.375 -2 6 C-1.34 4.02 -0.68 2.04 0 0 Z " fill="#DE0B2B" transform="translate(100,63)"/>
<path d="M0 0 C0.8971875 0.309375 0.8971875 0.309375 1.8125 0.625 C1.87308594 1.64980469 1.93367188 2.67460938 1.99609375 3.73046875 C2.08055026 5.09115695 2.16519567 6.45183343 2.25 7.8125 C2.28931641 8.48603516 2.32863281 9.15957031 2.36914062 9.85351562 C2.60177565 13.52199102 2.98457011 17.04194206 3.8125 20.625 C6.1225 20.955 8.4325 21.285 10.8125 21.625 C10.91015625 27.77734375 10.91015625 27.77734375 10.8125 29.625 C10.4825 29.955 10.1525 30.285 9.8125 30.625 C7.27708702 30.53413549 4.77695216 30.3879055 2.25 30.1875 C1.53908203 30.13529297 0.82816406 30.08308594 0.09570312 30.02929688 C-1.66571999 29.89925893 -3.42666173 29.76273103 -5.1875 29.625 C-5.1875 26.985 -5.1875 24.345 -5.1875 21.625 C-7.1675 21.625 -9.1475 21.625 -11.1875 21.625 C-11.1875 16.675 -11.1875 11.725 -11.1875 6.625 C-8.2175 7.12 -8.2175 7.12 -5.1875 7.625 C-5.249375 6.67625 -5.31125 5.7275 -5.375 4.75 C-5.313125 3.71875 -5.25125 2.6875 -5.1875 1.625 C-2.1875 -0.375 -2.1875 -0.375 0 0 Z M4.8125 24.625 C5.8125 26.625 5.8125 26.625 5.8125 26.625 Z " fill="#F31D3F" transform="translate(89.1875,70.375)"/>
<path d="M0 0 C0.33 0 0.66 0 1 0 C1.87192861 12.2040515 2.12653137 24.33009146 2.0625 36.5625 C2.05746548 38.26757678 2.05290609 39.97265504 2.04882812 41.67773438 C2.03799884 45.78519378 2.02084659 49.89257973 2 54 C2.969375 53.979375 3.93875 53.95875 4.9375 53.9375 C8 54 8 54 9 55 C9 56.98 9 58.96 9 61 C13.95 61 18.9 61 24 61 C24.33 65.95 24.66 70.9 25 76 C36.55 76 48.1 76 60 76 C60.33 74.35 60.66 72.7 61 71 C61.33 71 61.66 71 62 71 C62.495 74.96 62.495 74.96 63 79 C63.99 79.33 64.98 79.66 66 80 C65.505 81.98 65.505 81.98 65 84 C65 83.01 65 82.02 65 81 C51.47 81 37.94 81 24 81 C24 80.34 24 79.68 24 79 C22.68 78.34 21.36 77.68 20 77 C20 73.37 20 69.74 20 66 C16.37 66 12.74 66 9 66 C9 65.34 9 64.68 9 64 C7.68 63.34 6.36 62.68 5 62 C5 60.68 5 59.36 5 58 C3.35 58 1.7 58 0 58 C0 38.86 0 19.72 0 0 Z " fill="#D55168" transform="translate(76,60)"/>
<path d="M0 0 C0 0.33 0 0.66 0 1 C-1.65 1.33 -3.3 1.66 -5 2 C-5.66 4.31 -6.32 6.62 -7 9 C-13.435 9.495 -13.435 9.495 -20 10 C-20.66 11.98 -21.32 13.96 -22 16 C-26.96622349 16.02465098 -31.93241166 16.04283649 -36.89868164 16.05493164 C-38.58944316 16.0599719 -40.28020029 16.06680405 -41.97094727 16.07543945 C-44.39600707 16.08751857 -46.82100944 16.09323123 -49.24609375 16.09765625 C-50.38672523 16.10539818 -50.38672523 16.10539818 -51.55039978 16.11329651 C-53.3673257 16.11349238 -55.18413127 16.06197277 -57 16 C-58 15 -58 15 -58.09765625 11.83984375 C-58.08025391 9.90818359 -58.08025391 9.90818359 -58.0625 7.9375 C-58.05347656 6.64714844 -58.04445313 5.35679688 -58.03515625 4.02734375 C-58.02355469 3.02832031 -58.01195313 2.02929688 -58 1 C-55.03 1.495 -55.03 1.495 -52 2 C-51.67 3.98 -51.34 5.96 -51 8 C-50.36908447 8.02505615 -49.73816895 8.0501123 -49.08813477 8.07592773 C-46.24603175 8.19154137 -43.40428917 8.31442316 -40.5625 8.4375 C-39.07266602 8.49647461 -39.07266602 8.49647461 -37.55273438 8.55664062 C-36.60849609 8.59853516 -35.66425781 8.64042969 -34.69140625 8.68359375 C-33.81685791 8.72025146 -32.94230957 8.75690918 -32.04125977 8.79467773 C-30 9 -30 9 -29 10 C-28.95936168 11.66617115 -28.957279 13.33388095 -29 15 C-27.02 15 -25.04 15 -23 15 C-22.814375 13.576875 -22.814375 13.576875 -22.625 12.125 C-22 9 -22 9 -20 7 C-17.53307801 5.93844995 -15.02737973 5.02651163 -12.5078125 4.09765625 C-9.95580917 3.09891056 -9.95580917 3.09891056 -7.8828125 1.3828125 C-5.25041022 -0.55052859 -3.17718786 -0.21662645 0 0 Z " fill="#BF102C" transform="translate(158,121)"/>
<path d="M0 0 C1.98 0 3.96 0 6 0 C6 2.64 6 5.28 6 8 C8.31 8 10.62 8 13 8 C13 12.95 13 17.9 13 23 C15.64 23.33 18.28 23.66 21 24 C21 25.65 21 27.3 21 29 C16.38 29 11.76 29 7 29 C6.67 27.02 6.34 25.04 6 23 C4.02 22.67 2.04 22.34 0 22 C0 14.74 0 7.48 0 0 Z " fill="#DE0A2B" transform="translate(78,92)"/>
<path d="M0 0 C0.92232422 0.05671875 1.84464844 0.1134375 2.79492188 0.171875 C5.05169779 0.31219267 7.30715997 0.46347105 9.5625 0.625 C10.2225 2.935 10.8825 5.245 11.5625 7.625 C8.37487635 9.75008244 6.29737777 10.1270163 2.5625 10.625 C2.5625 10.955 2.5625 11.285 2.5625 11.625 C-1.0675 11.625 -4.6975 11.625 -8.4375 11.625 C-8.7675 12.945 -9.0975 14.265 -9.4375 15.625 C-12.0775 15.295 -14.7175 14.965 -17.4375 14.625 C-17.4375 10.335 -17.4375 6.045 -17.4375 1.625 C-11.42995922 -0.53408873 -6.32142856 -0.45510645 0 0 Z " fill="#789F9D" transform="translate(185.4375,144.375)"/>
<path d="M0 0 C4.95 0 9.9 0 15 0 C15.09765625 10.05859375 15.09765625 10.05859375 15 13 C14 14 14 14 10.4375 14.0625 C9.303125 14.041875 8.16875 14.02125 7 14 C7 16.31 7 18.62 7 21 C4.36 21 1.72 21 -1 21 C-0.67 14.07 -0.34 7.14 0 0 Z " fill="#E00A2D" transform="translate(115,64)"/>
<path d="M0 0 C6.94170022 -0.05058729 13.88335315 -0.08568579 20.82519531 -0.10986328 C23.18816911 -0.11993924 25.55113039 -0.13360029 27.9140625 -0.15087891 C31.30471888 -0.17505724 34.69521084 -0.18646699 38.0859375 -0.1953125 C39.14743011 -0.20563507 40.20892273 -0.21595764 41.30258179 -0.22659302 C42.77388046 -0.22681961 42.77388046 -0.22681961 44.27490234 -0.22705078 C45.14094086 -0.231492 46.00697937 -0.23593323 46.89926147 -0.24050903 C49 0 49 0 51 2 C51.69748583 3.31747324 52.36959957 4.64914193 53 6 C51.02 6.66 49.04 7.32 47 8 C47 6.02 47 4.04 47 2 C32.81 2 18.62 2 4 2 C4 3.98 4 5.96 4 8 C3.67 8.33 3.34 8.66 3 9 C1.02 9 -0.96 9 -3 9 C-3 13.62 -3 18.24 -3 23 C-7.26159382 25.13079691 -13.40763702 24.04502317 -18 24 C-18 30.93 -18 37.86 -18 45 C-18.33 45 -18.66 45 -19 45 C-19.33 36.75 -19.66 28.5 -20 20 C-11 19 -11 19 -8 20 C-7.67 18.68 -7.34 17.36 -7 16 C-6.67 16.33 -6.34 16.66 -6 17 C-5.93941406 16.38511719 -5.87882812 15.77023438 -5.81640625 15.13671875 C-5.73261719 14.32847656 -5.64882812 13.52023438 -5.5625 12.6875 C-5.48128906 11.88699219 -5.40007812 11.08648437 -5.31640625 10.26171875 C-5 8 -5 8 -4 5 C-2.68 5 -1.36 5 0 5 C0 3.35 0 1.7 0 0 Z " fill="#D83B54" transform="translate(96,32)"/>
<path d="M0 0 C0.33 0 0.66 0 1 0 C1.33 6.27 1.66 12.54 2 19 C4.64 19.66 7.28 20.32 10 21 C10.22587773 24.26987035 10.42766605 27.54079281 10.625 30.8125 C10.68945312 31.74126953 10.75390625 32.67003906 10.8203125 33.62695312 C10.871875 34.51962891 10.9234375 35.41230469 10.9765625 36.33203125 C11.02893066 37.15421143 11.08129883 37.9763916 11.13525391 38.82348633 C11 41 11 41 9 44 C8.67 44.66 8.34 45.32 8 46 C5.125 46.75 5.125 46.75 2 47 C1.01 46.34 0.02 45.68 -1 45 C-1.29296875 42.3984375 -1.29296875 42.3984375 -1.1875 39.375 C-1.16042969 38.37210937 -1.13335937 37.36921875 -1.10546875 36.3359375 C-1.07066406 35.56507813 -1.03585938 34.79421875 -1 34 C-0.67 34 -0.34 34 0 34 C0 22.78 0 11.56 0 0 Z M8 31 C9 35 9 35 9 35 Z " fill="#78ACA8" transform="translate(137,221)"/>
<path d="M0 0 C2.31 0 4.62 0 7 0 C7 9.9 7 19.8 7 30 C4.13822943 31.43088528 2.06624227 30.59991697 -1 30 C-1.02465746 25.8882744 -1.04283959 21.77657722 -1.05493164 17.66479492 C-1.0599708 16.26504772 -1.06680216 14.8653058 -1.07543945 13.46557617 C-1.0875232 11.45754223 -1.09269807 9.44947043 -1.09765625 7.44140625 C-1.10289307 6.23170166 -1.10812988 5.02199707 -1.11352539 3.77563477 C-1 1 -1 1 0 0 Z " fill="#F3193D" transform="translate(153,62)"/>
<path d="M0 0 C1.98 0 3.96 0 6 0 C6.66 1.98 7.32 3.96 8 6 C9.98 6 11.96 6 14 6 C14 8.31 14 10.62 14 13 C9.38 13 4.76 13 0 13 C-0.33 15.64 -0.66 18.28 -1 21 C-2.98 21 -4.96 21 -7 21 C-7 16.38 -7 11.76 -7 7 C-5.02 6.67 -3.04 6.34 -1 6 C-0.67 4.02 -0.34 2.04 0 0 Z " fill="#E20A2B" transform="translate(100,34)"/>
<path d="M0 0 C7.26 0 14.52 0 22 0 C22.33 1.98 22.66 3.96 23 6 C25.475 6.495 25.475 6.495 28 7 C28 8.98 28 10.96 28 13 C23.71 13 19.42 13 15 13 C15 10.69 15 8.38 15 6 C10.05 6 5.1 6 0 6 C0 4.02 0 2.04 0 0 Z " fill="#509794" transform="translate(85,198)"/>
<path d="M0 0 C1.32 0 2.64 0 4 0 C4 2.31 4 4.62 4 7 C6.64 7 9.28 7 12 7 C12.09765625 13.15234375 12.09765625 13.15234375 12 15 C11 16 11 16 7.4375 16.0625 C6.303125 16.041875 5.16875 16.02125 4 16 C4 17.98 4 19.96 4 22 C5.7015625 21.9690625 5.7015625 21.9690625 7.4375 21.9375 C11 22 11 22 12 23 C12.07271741 25.35313555 12.08370868 27.70833668 12.0625 30.0625 C12.05347656 31.35285156 12.04445312 32.64320313 12.03515625 33.97265625 C12.02355469 34.97167969 12.01195312 35.97070312 12 37 C13.65 37 15.3 37 17 37 C16.979375 36.030625 16.95875 35.06125 16.9375 34.0625 C17 31 17 31 18 30 C19.99958364 29.95919217 22.00045254 29.95745644 24 30 C24 31.32 24 32.64 24 34 C23.01 34 22.02 34 21 34 C20.87625 34.78375 20.7525 35.5675 20.625 36.375 C20 39 20 39 18 41 C16.68 41 15.36 41 14 41 C14 42.65 14 44.3 14 46 C12.68 45.67 11.36 45.34 10 45 C10 42.69 10 40.38 10 38 C9.34 37.67 8.68 37.34 8 37 C8.66 37 9.32 37 10 37 C10 32.38 10 27.76 10 23 C7.36 23 4.72 23 2 23 C1.875 15.375 1.875 15.375 3 12 C2.34 11.34 1.68 10.68 1 10 C0.5859375 7.6171875 0.5859375 7.6171875 0.375 4.875 C0.30023438 3.96492187 0.22546875 3.05484375 0.1484375 2.1171875 C0.09945312 1.41851562 0.05046875 0.71984375 0 0 Z M2 8 C2 8.66 2 9.32 2 10 C3.98 10 5.96 10 8 10 C8 9.67 8 9.34 8 9 C5.03 8.505 5.03 8.505 2 8 Z M19 34 C20 38 20 38 20 38 Z M14 39 C18 40 18 40 18 40 Z " fill="#8CC9BD" transform="translate(141,137)"/>
<path d="M0 0 C1.47906892 -0.02689216 2.95827483 -0.04634621 4.4375 -0.0625 C5.26121094 -0.07410156 6.08492187 -0.08570312 6.93359375 -0.09765625 C9 0 9 0 10 1 C10.1875 4.4375 10.1875 4.4375 10 8 C8 10 8 10 4.875 10.125 C3.92625 10.08375 2.9775 10.0425 2 10 C2.020625 10.969375 2.04125 11.93875 2.0625 12.9375 C2 16 2 16 1 17 C-0.99958364 17.04080783 -3.00045254 17.04254356 -5 17 C-4.97679687 17.77085938 -4.95359375 18.54171875 -4.9296875 19.3359375 C-4.90261719 20.84027344 -4.90261719 20.84027344 -4.875 22.375 C-4.85179687 23.37273437 -4.82859375 24.37046875 -4.8046875 25.3984375 C-5 28 -5 28 -7 30 C-7 25.71 -7 21.42 -7 17 C-8.98 17 -10.96 17 -13 17 C-13 18.98 -13 20.96 -13 23 C-13.33 23 -13.66 23 -14 23 C-14.04241723 20.66705225 -14.04092937 18.33297433 -14 16 C-13 15 -13 15 -9.9375 14.9375 C-8.4834375 14.9684375 -8.4834375 14.9684375 -7 15 C-7.020625 14.030625 -7.04125 13.06125 -7.0625 12.0625 C-7 9 -7 9 -6 8 C-4.00041636 7.95919217 -1.99954746 7.95745644 0 8 C0 5.36 0 2.72 0 0 Z " fill="#EA1234" transform="translate(143,99)"/>
<path d="M0 0 C2.31 0 4.62 0 7 0 C7 2.97 7 5.94 7 9 C6.67 9 6.34 9 6 9 C5.67 15.6 5.34 22.2 5 29 C4.67 29 4.34 29 4 29 C4 22.4 4 15.8 4 9 C2.68 9.33 1.36 9.66 0 10 C-0.33 11.98 -0.66 13.96 -1 16 C-1.69867188 15.97679687 -2.39734375 15.95359375 -3.1171875 15.9296875 C-4.48230469 15.90261719 -4.48230469 15.90261719 -5.875 15.875 C-6.77992188 15.85179687 -7.68484375 15.82859375 -8.6171875 15.8046875 C-11.18806994 15.75675164 -11.18806994 15.75675164 -13 18 C-15 16 -15 16 -15.1953125 14.0546875 C-15.13020833 12.03645833 -15.06510417 10.01822917 -15 8 C-8.565 7.505 -8.565 7.505 -2 7 C-1.34 4.69 -0.68 2.38 0 0 Z " fill="#64ACA1" transform="translate(153,122)"/>
<path d="M0 0 C5.28 0 10.56 0 16 0 C16 2.97 16 5.94 16 9 C12.71480525 10.09506492 10.26336585 10.09960608 6.8125 10.0625 C5.18248047 10.04896484 5.18248047 10.04896484 3.51953125 10.03515625 C2.68808594 10.02355469 1.85664062 10.01195313 1 10 C1.020625 10.969375 1.04125 11.93875 1.0625 12.9375 C1 16 1 16 0 17 C-3.5 17.125 -3.5 17.125 -7 17 C-8 16 -8 16 -8.09765625 14.15234375 C-8.06510417 12.1015625 -8.03255208 10.05078125 -8 8 C-7.34 8 -6.68 8 -6 8 C-4 11 -4 11 -4 14 C-3.34 14 -2.68 14 -2 14 C-1.34 9.38 -0.68 4.76 0 0 Z M7 3 C7 3.33 7 3.66 7 4 C9.31 4.33 11.62 4.66 14 5 C14 4.34 14 3.68 14 3 C11.69 3 9.38 3 7 3 Z M2 7 C4.28705831 8.14352916 5.59264762 8.10334439 8.125 8.0625 C9.40375 8.041875 10.6825 8.02125 12 8 C12 7.01 12 6.02 12 5 C8.05272412 4.82057837 5.4019487 4.90649311 2 7 Z M13 6 C14 8 14 8 14 8 Z " fill="#E4425C" transform="translate(114,54)"/>
<path d="M0 0 C4.95 0.33 9.9 0.66 15 1 C15 15.19 15 29.38 15 44 C12.03 44.495 12.03 44.495 9 45 C8.67 47.31 8.34 49.62 8 52 C5.69 52 3.38 52 1 52 C1.99 51.505 1.99 51.505 3 51 C4.51695295 48.41225673 5.37315423 45.92528027 6 43 C6.66 43 7.32 43 8 43 C8.268125 41.783125 8.53625 40.56625 8.8125 39.3125 C9.39289036 36.67842065 9.99277693 35.01059446 11.52734375 32.75976562 C13.29453421 29.44804132 13.34607266 27.34044357 13.29296875 23.60546875 C13.28330078 22.40341797 13.27363281 21.20136719 13.26367188 19.96289062 C13.23853516 18.71701172 13.21339844 17.47113281 13.1875 16.1875 C13.17396484 14.92228516 13.16042969 13.65707031 13.14648438 12.35351562 C13.11118318 9.23524357 13.06186819 6.11783958 13 3 C12.01 3.33 11.02 3.66 10 4 C8.60560336 4.06665376 7.20830125 4.08538199 5.8125 4.0625 C3.9253125 4.0315625 3.9253125 4.0315625 2 4 C1.34 2.68 0.68 1.36 0 0 Z " fill="#BA0D28" transform="translate(158,55)"/>
<path d="M0 0 C0.66 0 1.32 0 2 0 C2.0988364 5.21438043 2.17145206 10.42821643 2.21972656 15.64331055 C2.23984903 17.41749569 2.2671503 19.19161446 2.30175781 20.96557617 C2.35024992 23.51497767 2.37296153 26.06350295 2.390625 28.61328125 C2.41127014 29.40712723 2.43191528 30.20097321 2.45318604 31.01887512 C2.45410156 33.26293945 2.45410156 33.26293945 2 37 C0.04199219 38.89916992 0.04199219 38.89916992 -2 40 C-2.69937532 41.31647119 -3.36729133 42.65022151 -4 44 C-6.03172132 46.38506416 -6.93031846 46.97677282 -10 48 C-10 49.65 -10 51.3 -10 53 C-10.66 52.34 -11.32 51.68 -12 51 C-12.33 53.64 -12.66 56.28 -13 59 C-13.66 59 -14.32 59 -15 59 C-15 54.05 -15 49.1 -15 44 C-12.36 44 -9.72 44 -7 44 C-7.020625 42.865625 -7.04125 41.73125 -7.0625 40.5625 C-7 37 -7 37 -6 36 C-4.02 36 -2.04 36 0 36 C0 24.12 0 12.24 0 0 Z " fill="#D05469" transform="translate(173,63)"/>
<path d="M0 0 C0.33 0 0.66 0 1 0 C1.33 3.96 1.66 7.92 2 12 C13.55 12 25.1 12 37 12 C37.33 10.35 37.66 8.7 38 7 C38.33 7 38.66 7 39 7 C39.495 10.96 39.495 10.96 40 15 C40.99 15.33 41.98 15.66 43 16 C42.67 17.32 42.34 18.64 42 20 C42 19.01 42 18.02 42 17 C28.47 17 14.94 17 1 17 C1 16.34 1 15.68 1 15 C0.34 14.67 -0.32 14.34 -1 14 C-1.02694851 12.04174127 -1.04637218 10.08337774 -1.0625 8.125 C-1.07410156 7.03445312 -1.08570312 5.94390625 -1.09765625 4.8203125 C-1 2 -1 2 0 0 Z " fill="#C45468" transform="translate(99,124)"/>
<path d="M0 0 C3.10414702 -0.02903577 6.20825909 -0.0468107 9.3125 -0.0625 C10.19357422 -0.07087891 11.07464844 -0.07925781 11.98242188 -0.08789062 C12.82998047 -0.09111328 13.67753906 -0.09433594 14.55078125 -0.09765625 C15.72120972 -0.10551147 15.72120972 -0.10551147 16.9152832 -0.11352539 C19 0 19 0 22 1 C22.38133299 2.9914056 22.71325582 4.99279077 23 7 C22 8 22 8 19.86694336 8.02172852 C18.95050049 7.97459717 18.03405762 7.92746582 17.08984375 7.87890625 C16.10048828 7.83056641 15.11113281 7.78222656 14.09179688 7.73242188 C12.53041992 7.64831055 12.53041992 7.64831055 10.9375 7.5625 C9.37032227 7.48418945 9.37032227 7.48418945 7.77148438 7.40429688 C5.18071764 7.27416704 2.59029334 7.13918842 0 7 C0 4.69 0 2.38 0 0 Z " fill="#E10D2D" transform="translate(114,47)"/>
<path d="M0 0 C1.65 0 3.3 0 5 0 C5.33 4.62 5.66 9.24 6 14 C8.31 14.33 10.62 14.66 13 15 C13 16.98 13 18.96 13 21 C8.71 21 4.42 21 0 21 C0 14.07 0 7.14 0 0 Z " fill="#529393" transform="translate(138,183)"/>
<path d="M0 0 C0.33 2.97 0.66 5.94 1 9 C-2 11 -2 11 -5 12 C-5 15.63 -5 19.26 -5 23 C-6.32 23 -7.64 23 -9 23 C-9.19389096 20.5211787 -9.38040123 18.04219069 -9.5625 15.5625 C-9.61857422 14.85544922 -9.67464844 14.14839844 -9.73242188 13.41992188 C-9.86190993 11.61572163 -9.93521608 9.80768048 -10 8 C-9 7 -9 7 -5.4375 6.9375 C-4.303125 6.958125 -3.16875 6.97875 -2 7 C-2 5.35 -2 3.7 -2 2 C-11.24 2 -20.48 2 -30 2 C-30 5.96 -30 9.92 -30 14 C-30.33 14 -30.66 14 -31 14 C-31 9.71 -31 5.42 -31 1 C-26.95896403 0.63672708 -22.91747418 0.28406167 -18.875 -0.0625 C-17.73289063 -0.16626953 -16.59078125 -0.27003906 -15.4140625 -0.37695312 C-13.75117188 -0.51713867 -13.75117188 -0.51713867 -12.0546875 -0.66015625 C-10.53077393 -0.79369507 -10.53077393 -0.79369507 -8.97607422 -0.92993164 C-5.85266382 -1.00346887 -3.05835212 -0.60808174 0 0 Z M-7 12 C-7 13.65 -7 15.3 -7 17 C-6.67 17 -6.34 17 -6 17 C-6 15.35 -6 13.7 -6 12 C-6.33 12 -6.66 12 -7 12 Z M-7 18 C-6 20 -6 20 -6 20 Z " fill="#88C2B7" transform="translate(205,129)"/>
<path d="M0 0 C3.07275391 -0.34057617 3.07275391 -0.34057617 6.9765625 -0.29296875 C7.66181 -0.28872391 8.3470575 -0.28447906 9.05307007 -0.28010559 C11.24411129 -0.26329753 13.43423632 -0.22564405 15.625 -0.1875 C17.10936173 -0.17245579 18.59373785 -0.15876693 20.078125 -0.14648438 C23.71904833 -0.1133879 27.35943478 -0.06159207 31 0 C31 0.33 31 0.66 31 1 C21.76 1.33 12.52 1.66 3 2 C2.67 4.64 2.34 7.28 2 10 C-2.95 10 -7.9 10 -13 10 C-13 11.65 -13 13.3 -13 15 C-12.030625 14.979375 -11.06125 14.95875 -10.0625 14.9375 C-7 15 -7 15 -6 16 C-5.95907063 18.33297433 -5.95758277 20.66705225 -6 23 C-6.165 22.401875 -6.33 21.80375 -6.5 21.1875 C-8.81276204 17.81472202 -12.19891337 17.1668452 -16 16 C-16 13.69 -16 11.38 -16 9 C-11.50343896 6.75171948 -7.92127034 6.83317728 -3 7 C-2.87625 6.401875 -2.7525 5.80375 -2.625 5.1875 C-2 3 -2 3 0 0 Z " fill="#7FC0B3" transform="translate(91,181)"/>
<path d="M0 0 C0 0.33 0 0.66 0 1 C-8.02502344 1.79681084 -15.93649887 2.12867289 -24 2 C-23.91621094 3.07121094 -23.83242187 4.14242187 -23.74609375 5.24609375 C-23.64295104 6.64320866 -23.54010157 8.04034524 -23.4375 9.4375 C-23.38142578 10.14455078 -23.32535156 10.85160156 -23.26757812 11.58007812 C-23.13809007 13.38427837 -23.06478392 15.19231952 -23 17 C-23.33 17.33 -23.66 17.66 -24 18 C-25.98 18 -27.96 18 -30 18 C-30 22.29 -30 26.58 -30 31 C-31.98 31 -33.96 31 -36 31 C-35.67 30.34 -35.34 29.68 -35 29 C-34.96944808 26.17176509 -35.06717294 23.35794268 -35.16015625 20.53125 C-35 18 -35 18 -33 16 C-29.375 15.875 -29.375 15.875 -26 16 C-26.66 15.01 -27.32 14.02 -28 13 C-28.23046875 11.0625 -28.23046875 11.0625 -28.1875 9 C-28.17783203 7.9790625 -28.17783203 7.9790625 -28.16796875 6.9375 C-28 5 -28 5 -27 2 C-18.04395567 -0.46456257 -9.19822505 -0.1920743 0 0 Z M-34 18 C-34 21.3 -34 24.6 -34 28 C-33.67 28 -33.34 28 -33 28 C-33 24.7 -33 21.4 -33 18 C-33.33 18 -33.66 18 -34 18 Z " fill="#92A39E" transform="translate(198,128)"/>
<path d="M0 0 C2.64 0.33 5.28 0.66 8 1 C8 2.32 8 3.64 8 5 C13.28 5 18.56 5 24 5 C24 7.31 24 9.62 24 12 C28.29 12 32.58 12 37 12 C37 10.35 37 8.7 37 7 C38.125 8.625 38.125 8.625 39 11 C38.34 12.98 37.68 14.96 37 17 C30.07 16.505 30.07 16.505 23 16 C22.67 15.01 22.34 14.02 22 13 C21.34 13 20.68 13 20 13 C20 11.68 20 10.36 20 9 C16.04 9 12.08 9 8 9 C7.67 8.01 7.34 7.02 7 6 C6.34 6 5.68 6 5 6 C4.87625 5.071875 4.87625 5.071875 4.75 4.125 C4.18741541 1.81562433 4.18741541 1.81562433 1.9375 0.75 C1.298125 0.5025 0.65875 0.255 0 0 Z M18 7 C22 8 22 8 22 8 Z " fill="#7CB3B1" transform="translate(76,199)"/>
<path d="M0 0 C0.82741699 0.05236816 1.65483398 0.10473633 2.50732422 0.15869141 C3.85117188 0.23603516 3.85117188 0.23603516 5.22216797 0.31494141 C6.15931641 0.37939453 7.09646484 0.44384766 8.06201172 0.51025391 C9.00689453 0.56697266 9.95177734 0.62369141 10.92529297 0.68212891 C13.26327653 0.82382488 15.60022116 0.97525174 17.93701172 1.13525391 C17.93701172 3.11525391 17.93701172 5.09525391 17.93701172 7.13525391 C11.00701172 7.13525391 4.07701172 7.13525391 -3.06298828 7.13525391 C-3.39298828 5.48525391 -3.72298828 3.83525391 -4.06298828 2.13525391 C-2.06298828 0.13525391 -2.06298828 0.13525391 0 0 Z " fill="#4E9A94" transform="translate(177.06298828125,143.86474609375)"/>
<path d="M0 0 C1.98 0 3.96 0 6 0 C6 6.93 6 13.86 6 21 C4.02 21 2.04 21 0 21 C0 14.07 0 7.14 0 0 Z " fill="#589594" transform="translate(130,220)"/>
<path d="M0 0 C1.65 0 3.3 0 5 0 C5 7.59 5 15.18 5 23 C3.35 23 1.7 23 0 23 C-0.19588601 19.3545658 -0.38030536 15.7086421 -0.5625 12.0625 C-0.61857422 11.02158203 -0.67464844 9.98066406 -0.73242188 8.90820312 C-0.78076172 7.91884766 -0.82910156 6.92949219 -0.87890625 5.91015625 C-0.9260376 4.99371338 -0.97316895 4.07727051 -1.02172852 3.13305664 C-1 1 -1 1 0 0 Z " fill="#F21C3E" transform="translate(167,62)"/>
<path d="M0 0 C0 0.33 0 0.66 0 1 C-1.65 1.33 -3.3 1.66 -5 2 C-5.66 4.31 -6.32 6.62 -7 9 C-13.435 9.495 -13.435 9.495 -20 10 C-20.66 11.98 -21.32 13.96 -22 16 C-33.55 16 -45.1 16 -57 16 C-57 15.67 -57 15.34 -57 15 C-45.78 15 -34.56 15 -23 15 C-22.67 13.02 -22.34 11.04 -22 9 C-19.24075308 6.24075308 -16.12941983 5.43278611 -12.5078125 4.09765625 C-9.95580917 3.09891056 -9.95580917 3.09891056 -7.8828125 1.3828125 C-5.25041022 -0.55052859 -3.17718786 -0.21662645 0 0 Z " fill="#B24054" transform="translate(158,121)"/>
<path d="M0 0 C1.32 0 2.64 0 4 0 C4.33 1.98 4.66 3.96 5 6 C11.93 6.33 18.86 6.66 26 7 C26 7.33 26 7.66 26 8 C24.75283203 8.05607422 24.75283203 8.05607422 23.48046875 8.11328125 C21.85044922 8.21189453 21.85044922 8.21189453 20.1875 8.3125 C18.56908203 8.39951172 18.56908203 8.39951172 16.91796875 8.48828125 C13.99363975 8.71320853 13.99363975 8.71320853 12.46875 10.53125 C11 12 11 12 8.30078125 12.29296875 C4.15039062 12.14648438 4.15039062 12.14648438 0 12 C0 8.04 0 4.08 0 0 Z " fill="#D40C2F" transform="translate(102,123)"/>
<path d="M0 0 C0.33 0 0.66 0 1 0 C1 6.93 1 13.86 1 21 C2.98 21 4.96 21 7 21 C7.66 21.33 8.32 21.66 9 22 C9 26.62 9 31.24 9 36 C8.01 35.67 7.02 35.34 6 35 C5.67 32.03 5.34 29.06 5 26 C3.35 26 1.7 26 0 26 C-0.88695424 22.95026905 -1.12861616 20.22231374 -1.1328125 17.05078125 C-1.13474609 15.65569336 -1.13474609 15.65569336 -1.13671875 14.23242188 C-1.13285156 13.26884766 -1.12898438 12.30527344 -1.125 11.3125 C-1.12886719 10.33732422 -1.13273437 9.36214844 -1.13671875 8.35742188 C-1.13542969 7.43123047 -1.13414063 6.50503906 -1.1328125 5.55078125 C-1.13168457 4.70169189 -1.13055664 3.85260254 -1.12939453 2.9777832 C-1 1 -1 1 0 0 Z " fill="#7EB1AF" transform="translate(129,220)"/>
<path d="M0 0 C1.32 0 2.64 0 4 0 C4 2.31 4 4.62 4 7 C6.64 7 9.28 7 12 7 C12.09765625 13.15234375 12.09765625 13.15234375 12 15 C11 16 11 16 7.4375 16.0625 C6.303125 16.041875 5.16875 16.02125 4 16 C4 17.98 4 19.96 4 22 C3.34 22.33 2.68 22.66 2 23 C1.875 15.375 1.875 15.375 3 12 C2.34 11.34 1.68 10.68 1 10 C0.5859375 7.6171875 0.5859375 7.6171875 0.375 4.875 C0.30023438 3.96492187 0.22546875 3.05484375 0.1484375 2.1171875 C0.09945312 1.41851562 0.05046875 0.71984375 0 0 Z M2 8 C2 8.66 2 9.32 2 10 C3.98 10 5.96 10 8 10 C8 9.67 8 9.34 8 9 C5.03 8.505 5.03 8.505 2 8 Z " fill="#81CABF" transform="translate(141,137)"/>
<path d="M0 0 C1.65 0 3.3 0 5 0 C5 6.6 5 13.2 5 20 C3.35 20 1.7 20 0 20 C0 13.4 0 6.8 0 0 Z " fill="#549290" transform="translate(138,243)"/>
<path d="M0 0 C1.98 0 3.96 0 6 0 C6 4.95 6 9.9 6 15 C4.02 15.66 2.04 16.32 0 17 C0 11.39 0 5.78 0 0 Z " fill="#CA0825" transform="translate(160,70)"/>
<path d="M0 0 C6.93359375 -0.09765625 6.93359375 -0.09765625 9 0 C10 1 10 1 10.1875 4.4375 C10 8 10 8 8 10 C5.31160615 10.26991906 2.70858064 10.08737357 0 10 C0 6.7 0 3.4 0 0 Z " fill="#DD4962" transform="translate(143,99)"/>
<path d="M0 0 C10.23 0 20.46 0 31 0 C32.125 9 32.125 9 31 12 C32.98 12 34.96 12 37 12 C35.02 12.99 35.02 12.99 33 14 C33.66 14.66 34.32 15.32 35 16 C32.36 16 29.72 16 27 16 C27 11.05 27 6.1 27 1 C18.09 1 9.18 1 0 1 C0 0.67 0 0.34 0 0 Z " fill="#8FD3C6" transform="translate(94,182)"/>
<path d="M0 0 C0 0.66 0 1.32 0 2 C-2.90092502 3.93395001 -3.89674737 4.30131941 -7.1875 4.625 C-8.445625 4.74875 -9.70375 4.8725 -11 5 C-11.9962851 8.28462745 -12.07377676 11.20360259 -12 14.625 C-11.88946015 19.77892031 -11.88946015 19.77892031 -13 22 C-13.66 22 -14.32 22 -15 22 C-15 15.07 -15 8.14 -15 1 C-2.25 0 -2.25 0 0 0 Z " fill="#CF1330" transform="translate(93,55)"/>
<path d="M0 0 C1.98 0 3.96 0 6 0 C6 4.62 6 9.24 6 14 C4.02 14 2.04 14 0 14 C0 9.38 0 4.76 0 0 Z " fill="#64BDAE" transform="translate(130,206)"/>
<path d="M0 0 C0.33 0 0.66 0 1 0 C1.33 2.64 1.66 5.28 2 8 C4.31 8.66 6.62 9.32 9 10 C9.33 12.31 9.66 14.62 10 17 C7.36 17 4.72 17 2 17 C1.67 18.98 1.34 20.96 1 23 C-0.65 23 -2.3 23 -4 23 C-3.505 21.515 -3.505 21.515 -3 20 C-3 20.66 -3 21.32 -3 22 C-2.34 21.67 -1.68 21.34 -1 21 C0.31802493 14.1487572 0.13572367 6.95206822 0 0 Z " fill="#68B6A7" transform="translate(157,151)"/>
<path d="M0 0 C2.97 0 5.94 0 9 0 C9.09765625 6.15234375 9.09765625 6.15234375 9 8 C8 9 8 9 4.5 9.125 C1 9 1 9 0 8 C-0.14115161 5.32941149 -0.04247107 2.67567762 0 0 Z M3 3 C4 5 4 5 4 5 Z " fill="#EB5A76" transform="translate(91,92)"/>
<path d="M0 0 C0.33 0 0.66 0 1 0 C1 4.95 1 9.9 1 15 C-0.98 15.33 -2.96 15.66 -5 16 C-5.33 17.98 -5.66 19.96 -6 22 C-6.33 22 -6.66 22 -7 22 C-7 20.02 -7 18.04 -7 16 C-11.95 16 -16.9 16 -22 16 C-22 15.67 -22 15.34 -22 15 C-17.05 15 -12.1 15 -7 15 C-7 12.69 -7 10.38 -7 8 C-11.29 8 -15.58 8 -20 8 C-20 7.67 -20 7.34 -20 7 C-15.38 7 -10.76 7 -6 7 C-6 9.31 -6 11.62 -6 14 C-4.02 14 -2.04 14 0 14 C0 9.38 0 4.76 0 0 Z " fill="#EC1436" transform="translate(128,85)"/>
<path d="M0 0 C4.95 0.33 9.9 0.66 15 1 C15 10.57 15 20.14 15 30 C14.67 30 14.34 30 14 30 C13.67 21.09 13.34 12.18 13 3 C12.01 3.33 11.02 3.66 10 4 C8.60560336 4.06665376 7.20830125 4.08538199 5.8125 4.0625 C3.9253125 4.0315625 3.9253125 4.0315625 2 4 C1.34 2.68 0.68 1.36 0 0 Z " fill="#C61835" transform="translate(158,55)"/>
<path d="M0 0 C2.31 0 4.62 0 7 0 C6 2 6 2 4 3 C3.01 2.67 2.02 2.34 1 2 C0.690625 3.134375 0.38125 4.26875 0.0625 5.4375 C-1 9 -1 9 -2 10 C-4.01964199 10.07244053 -6.04167124 10.08377188 -8.0625 10.0625 C-9.71958984 10.04896484 -9.71958984 10.04896484 -11.41015625 10.03515625 C-12.26480469 10.02355469 -13.11945313 10.01195312 -14 10 C-14 11.65 -14 13.3 -14 15 C-13.01 15.33 -12.02 15.66 -11 16 C-11.66 16.66 -12.32 17.32 -13 18 C-15 16 -15 16 -15.1953125 14.0546875 C-15.13020833 12.03645833 -15.06510417 10.01822917 -15 8 C-8.565 7.505 -8.565 7.505 -2 7 C-1.34 4.69 -0.68 2.38 0 0 Z " fill="#856C76" transform="translate(153,122)"/>
<path d="M0 0 C0.99 0.495 0.99 0.495 2 1 C2.33 6.94 2.66 12.88 3 19 C3.99 19.33 4.98 19.66 6 20 C6 20.66 6 21.32 6 22 C4.02 22 2.04 22 0 22 C0 14.74 0 7.48 0 0 Z " fill="#CA0E2E" transform="translate(78,92)"/>
<path d="M0 0 C0.33 0 0.66 0 1 0 C1.02685095 2.47923801 1.04676547 4.9581884 1.0625 7.4375 C1.07087891 8.14455078 1.07925781 8.85160156 1.08789062 9.58007812 C1.09653588 11.38693559 1.05220011 13.19387603 1 15 C0 16 0 16 -3.5 16.125 C-7 16 -7 16 -8 15 C-8.14115161 12.32941149 -8.04247107 9.67567762 -8 7 C-7.34 7 -6.68 7 -6 7 C-4 10 -4 10 -4 13 C-3.34 13 -2.68 13 -2 13 C-1.34 8.71 -0.68 4.42 0 0 Z " fill="#E8526C" transform="translate(114,55)"/>
<path d="M0 0 C4.95 0 9.9 0 15 0 C15 0.66 15 1.32 15 2 C10.71 2 6.42 2 2 2 C2 8.93 2 15.86 2 23 C1.67 23 1.34 23 1 23 C0.67 15.41 0.34 7.82 0 0 Z " fill="#C84A60" transform="translate(76,54)"/>
<path d="M0 0 C0.33 0 0.66 0 1 0 C1 17.82 1 35.64 1 54 C0.67 54 0.34 54 0 54 C0 36.18 0 18.36 0 0 Z " fill="#EB4A65" transform="translate(74,62)"/>
<path d="M0 0 C1.125 1.625 1.125 1.625 2 4 C1.34 5.98 0.68 7.96 0 10 C-6.93 9.505 -6.93 9.505 -14 9 C-14 8.01 -14 7.02 -14 6 C-11.23547967 4.61773984 -8.9538637 4.90474613 -5.875 4.9375 C-4.77929688 4.94652344 -3.68359375 4.95554688 -2.5546875 4.96484375 C-1.71164063 4.97644531 -0.86859375 4.98804688 0 5 C0 3.35 0 1.7 0 0 Z " fill="#75A7A4" transform="translate(113,206)"/>
<path d="M0 0 C0.33 0.66 0.66 1.32 1 2 C1.99 2 2.98 2 4 2 C4 4.97 4 7.94 4 11 C5.65 11 7.3 11 9 11 C9 11.99 9 12.98 9 14 C2.84765625 14.87890625 2.84765625 14.87890625 1 15 C0 14 0 14 -0.09765625 10.83984375 C-0.08025391 8.90818359 -0.08025391 8.90818359 -0.0625 6.9375 C-0.05347656 5.64714844 -0.04445312 4.35679687 -0.03515625 3.02734375 C-0.02355469 2.02832031 -0.01195312 1.02929688 0 0 Z M2 3 C2 5.97 2 8.94 2 12 C2.33 12 2.66 12 3 12 C3 9.03 3 6.06 3 3 C2.67 3 2.34 3 2 3 Z " fill="#7AAEAB" transform="translate(143,183)"/>
<path d="M0 0 C0.94875 0.04125 1.8975 0.0825 2.875 0.125 C2.875 0.455 2.875 0.785 2.875 1.125 C1.225 1.455 -0.425 1.785 -2.125 2.125 C-2.455 4.105 -2.785 6.085 -3.125 8.125 C-7.745 8.125 -12.365 8.125 -17.125 8.125 C-15.10622823 7.11561412 -13.08707536 6.10668168 -11.0546875 5.125 C-10.37664062 4.795 -9.69859375 4.465 -9 4.125 C-8.31679687 3.795 -7.63359375 3.465 -6.9296875 3.125 C-1.39040923 0.05561637 -1.39040923 0.05561637 0 0 Z " fill="#A22138" transform="translate(155.125,120.875)"/>
<path d="M0 0 C2.77647622 4.48507697 3.31416607 7.76389884 3 13 C2.67 13 2.34 13 2 13 C1.67 10.69 1.34 8.38 1 6 C-1.31 6 -3.62 6 -6 6 C-6 4.02 -6 2.04 -6 0 C-2.25 -1.125 -2.25 -1.125 0 0 Z " fill="#C40E2D" transform="translate(99,86)"/>
<path d="M0 0 C3.96 0 7.92 0 12 0 C12 1.65 12 3.3 12 5 C8.04 4.67 4.08 4.34 0 4 C0 2.68 0 1.36 0 0 Z " fill="#539594" transform="translate(139,132)"/>
<path d="M0 0 C2.31 0 4.62 0 7 0 C7 2.31 7 4.62 7 7 C4.69 7 2.38 7 0 7 C0 4.69 0 2.38 0 0 Z " fill="#CD0A29" transform="translate(137,55)"/>
<path d="M0 0 C12.21 0 24.42 0 37 0 C37 1.98 37 3.96 37 6 C36.34 6 35.68 6 35 6 C35 4.68 35 3.36 35 2 C23.45 1.67 11.9 1.34 0 1 C0 0.67 0 0.34 0 0 Z " fill="#DD2141" transform="translate(106,34)"/>
<path d="M0 0 C0 2.31 0 4.62 0 7 C-1.98 7 -3.96 7 -6 7 C-6 8.98 -6 10.96 -6 13 C-6.99 13.495 -6.99 13.495 -8 14 C-8.125 6.375 -8.125 6.375 -7 3 C-7.33 2.34 -7.66 1.68 -8 1 C-2.25 0 -2.25 0 0 0 Z " fill="#94A2A0" transform="translate(151,146)"/>
<path d="M0 0 C1.98 0 3.96 0 6 0 C6.66 2.31 7.32 4.62 8 7 C5.36 7 2.72 7 0 7 C0 4.69 0 2.38 0 0 Z " fill="#ED1C3C" transform="translate(144,92)"/>
<path d="M0 0 C15.18 0 30.36 0 46 0 C46 0.33 46 0.66 46 1 C30.82 1 15.64 1 0 1 C0 0.67 0 0.34 0 0 Z " fill="#EA2A49" transform="translate(98,30)"/>
<path d="M0 0 C6.93 0.33 13.86 0.66 21 1 C21 1.66 21 2.32 21 3 C14.07 3 7.14 3 0 3 C0 2.01 0 1.02 0 0 Z " fill="#57B3A6" transform="translate(85,195)"/>
<path d="M0 0 C0.33 0 0.66 0 1 0 C1 2.97 1 5.94 1 9 C0.34 9 -0.32 9 -1 9 C-1 10.32 -1 11.64 -1 13 C-1.66 13 -2.32 13 -3 13 C-3.66 13.66 -4.32 14.32 -5 15 C-5.33 12.03 -5.66 9.06 -6 6 C-4.68 5.67 -3.36 5.34 -2 5 C-0.70339566 2.50965614 -0.70339566 2.50965614 0 0 Z " fill="#DF2C4B" transform="translate(113,55)"/>
<path d="M0 0 C0.33 0 0.66 0 1 0 C1.125 3.375 1.125 3.375 1 7 C0.34 7.66 -0.32 8.32 -1 9 C-2.32 9 -3.64 9 -5 9 C-5 12.63 -5 16.26 -5 20 C-5.66 20.33 -6.32 20.66 -7 21 C-7 16.38 -7 11.76 -7 7 C-5.02 6.67 -3.04 6.34 -1 6 C-0.67 4.02 -0.34 2.04 0 0 Z " fill="#C81830" transform="translate(100,34)"/>
<path d="M0 0 C1.28132812 0.00902344 2.56265625 0.01804688 3.8828125 0.02734375 C4.87023437 0.03894531 5.85765625 0.05054688 6.875 0.0625 C6.545 1.0525 6.215 2.0425 5.875 3.0625 C0.925 3.0625 -4.025 3.0625 -9.125 3.0625 C-9.125 2.4025 -9.125 1.7425 -9.125 1.0625 C-6.12186252 -0.43906874 -3.33432478 -0.03031204 0 0 Z " fill="#BC314A" transform="translate(152.125,38.9375)"/>
<path d="M0 0 C0.33 0 0.66 0 1 0 C1 3.63 1 7.26 1 11 C-0.60875 11.4021875 -0.60875 11.4021875 -2.25 11.8125 C-5.56508928 12.86227827 -7.43877646 13.74612328 -10 16 C-10.66 15.67 -11.32 15.34 -12 15 C-10.38050958 13.49405319 -8.75424026 11.99539332 -7.125 10.5 C-6.22007812 9.6646875 -5.31515625 8.829375 -4.3828125 7.96875 C-2 6 -2 6 0 6 C0 4.02 0 2.04 0 0 Z " fill="#B70F28" transform="translate(157,110)"/>
<path d="M0 0 C0.99 0.495 0.99 0.495 2 1 C2 3.31 2 5.62 2 8 C4.31 8.33 6.62 8.66 9 9 C9 9.99 9 10.98 9 12 C6.1875 12.625 6.1875 12.625 3 13 C2.01 12.34 1.02 11.68 0 11 C-0.29296875 8.3984375 -0.29296875 8.3984375 -0.1875 5.375 C-0.16042969 4.37210937 -0.13335937 3.36921875 -0.10546875 2.3359375 C-0.07066406 1.56507813 -0.03585938 0.79421875 0 0 Z " fill="#73A2A0" transform="translate(136,255)"/>
<path d="M0 0 C1.4540625 0.0309375 1.4540625 0.0309375 2.9375 0.0625 C2.9375 1.3825 2.9375 2.7025 2.9375 4.0625 C1.9475 4.0625 0.9575 4.0625 -0.0625 4.0625 C-0.248125 5.2690625 -0.248125 5.2690625 -0.4375 6.5 C-0.64375 7.345625 -0.85 8.19125 -1.0625 9.0625 C-2.0525 9.5575 -2.0525 9.5575 -3.0625 10.0625 C-5.1875 9.125 -5.1875 9.125 -7.0625 8.0625 C-6.0725 7.7325 -5.0825 7.4025 -4.0625 7.0625 C-4.083125 6.093125 -4.10375 5.12375 -4.125 4.125 C-4.0425 0.0825 -4.0425 0.0825 0 0 Z M-2.0625 4.0625 C-1.0625 8.0625 -1.0625 8.0625 -1.0625 8.0625 Z " fill="#85BCB0" transform="translate(162.0625,166.9375)"/>
<path d="M0 0 C0.598125 0.20625 1.19625 0.4125 1.8125 0.625 C1.8125 2.605 1.8125 4.585 1.8125 6.625 C-0.1675 6.625 -2.1475 6.625 -4.1875 6.625 C-4.5175 4.975 -4.8475 3.325 -5.1875 1.625 C-2.1875 -0.375 -2.1875 -0.375 0 0 Z " fill="#F41B40" transform="translate(104.1875,115.375)"/>
<path d="M0 0 C1.67542976 0.28604898 3.34385343 0.61781233 5 1 C5 2.98 5 4.96 5 7 C3.02 7 1.04 7 -1 7 C-1.04254356 5.00045254 -1.04080783 2.99958364 -1 1 C-0.67 0.67 -0.34 0.34 0 0 Z " fill="#F61D40" transform="translate(146,55)"/>
<path d="M0 0 C2.31 0 4.62 0 7 0 C6.67 1.98 6.34 3.96 6 6 C4.02 6 2.04 6 0 6 C0 4.02 0 2.04 0 0 Z " fill="#E42342" transform="translate(115,64)"/>
<path d="M0 0 C5.28 0 10.56 0 16 0 C13 3 13 3 10.30078125 3.29296875 C9.31464844 3.25816406 8.32851562 3.22335938 7.3125 3.1875 C6.31863281 3.16042969 5.32476562 3.13335937 4.30078125 3.10546875 C3.54152344 3.07066406 2.78226562 3.03585938 2 3 C2 4.65 2 6.3 2 8 C1.67 8 1.34 8 1 8 C0.67 5.36 0.34 2.72 0 0 Z " fill="#D63B57" transform="translate(114,54)"/>
<path d="M0 0 C1.98 0 3.96 0 6 0 C6 1.98 6 3.96 6 6 C4.02 6 2.04 6 0 6 C0 4.02 0 2.04 0 0 Z " fill="#59968E" transform="translate(145,153)"/>
<path d="M0 0 C1.37432457 3.81756824 0.67975039 7.07255329 0 11 C-2.31 11 -4.62 11 -7 11 C-6.34 10.67 -5.68 10.34 -5 10 C-3.48304705 7.41225673 -2.62684577 4.92528027 -2 2 C-1.34 2 -0.68 2 0 2 C0 1.34 0 0.68 0 0 Z " fill="#C51A35" transform="translate(166,96)"/>
<path d="M0 0 C2.31 0 4.62 0 7 0 C7 1.65 7 3.3 7 5 C4.69 5 2.38 5 0 5 C0 3.35 0 1.7 0 0 Z " fill="#52918B" transform="translate(159,161)"/>
<path d="M0 0 C1.65 0 3.3 0 5 0 C5 2.31 5 4.62 5 7 C3.35 7 1.7 7 0 7 C0 4.69 0 2.38 0 0 Z " fill="#528D8C" transform="translate(168,152)"/>
<path d="M0 0 C1.66611905 -0.042721 3.33382885 -0.04063832 5 0 C6 1 6 1 6.0625 3.5625 C6.041875 4.366875 6.02125 5.17125 6 6 C4.02 6 2.04 6 0 6 C0 4.02 0 2.04 0 0 Z " fill="#F51E3F" transform="translate(138,108)"/>
<path d="M0 0 C1.65 0 3.3 0 5 0 C5.33 1.98 5.66 3.96 6 6 C4.02 6 2.04 6 0 6 C0 4.02 0 2.04 0 0 Z " fill="#60BDA9" transform="translate(168,146)"/>
<path d="M0 0 C0.33 0 0.66 0 1 0 C1.33 3.96 1.66 7.92 2 12 C4.97 12.495 4.97 12.495 8 13 C8 13.33 8 13.66 8 14 C5.03 14 2.06 14 -1 14 C-1.02694851 12.04174127 -1.04637218 10.08337774 -1.0625 8.125 C-1.07410156 7.03445312 -1.08570312 5.94390625 -1.09765625 4.8203125 C-1 2 -1 2 0 0 Z " fill="#D05D70" transform="translate(99,124)"/>
<path d="M0 0 C1.65 0 3.3 0 5 0 C5.38218767 1.65614657 5.71395102 3.32457024 6 5 C5 6 5 6 2.4375 6.0625 C1.2309375 6.0315625 1.2309375 6.0315625 0 6 C-1 3 -1 3 0 0 Z " fill="#F61E43" transform="translate(138,48)"/>
<path d="M0 0 C0.33 0 0.66 0 1 0 C1 1.98 1 3.96 1 6 C1.99 6.33 2.98 6.66 4 7 C0.79619983 9.13586678 -0.01939967 9.23132175 -3.6875 9.125 C-4.49574219 9.10695313 -5.30398437 9.08890625 -6.13671875 9.0703125 C-7.05904297 9.03550781 -7.05904297 9.03550781 -8 9 C-8 8.01 -8 7.02 -8 6 C-5.69 6 -3.38 6 -1 6 C-0.67 4.02 -0.34 2.04 0 0 Z " fill="#DF2342" transform="translate(100,94)"/>
<path d="M0 0 C9.9 0 19.8 0 30 0 C30 0.33 30 0.66 30 1 C20.1 1 10.2 1 0 1 C0 0.67 0 0.34 0 0 Z " fill="#869E9A" transform="translate(92,179)"/>
<path d="M0 0 C1.98 0 3.96 0 6 0 C6 1.65 6 3.3 6 5 C4.02 5 2.04 5 0 5 C0 3.35 0 1.7 0 0 Z " fill="#68BBA9" transform="translate(145,176)"/>
<path d="M0 0 C2.31 0 4.62 0 7 0 C7 1.98 7 3.96 7 6 C2.71 6 -1.58 6 -6 6 C-6 5.67 -6 5.34 -6 5 C-2.37 5 1.26 5 5 5 C4.33131686 1.88667752 4.33131686 1.88667752 1.9375 0.8125 C1.298125 0.544375 0.65875 0.27625 0 0 Z " fill="#5F9491" transform="translate(144,198)"/>
<path d="M0 0 C0.66 0 1.32 0 2 0 C2.66 1.65 3.32 3.3 4 5 C7.3 5.33 10.6 5.66 14 6 C14 6.33 14 6.66 14 7 C9.71 7 5.42 7 1 7 C0.67 4.69 0.34 2.38 0 0 Z " fill="#C01731" transform="translate(84,114)"/>
<path d="M0 0 C0.33 0 0.66 0 1 0 C1.01981934 0.55985596 1.03963867 1.11971191 1.06005859 1.6965332 C1.15537783 4.23565854 1.26502753 6.77396888 1.375 9.3125 C1.4059375 10.19357422 1.436875 11.07464844 1.46875 11.98242188 C1.52675781 13.25375977 1.52675781 13.25375977 1.5859375 14.55078125 C1.6173584 15.33106689 1.6487793 16.11135254 1.68115234 16.9152832 C1.89587889 19.30155768 1.89587889 19.30155768 4 22 C2.68 22 1.36 22 0 22 C0 14.74 0 7.48 0 0 Z " fill="#B51733" transform="translate(78,92)"/>
<path d="M0 0 C0.33 0 0.66 0 1 0 C1 1.98 1 3.96 1 6 C-3.62 6 -8.24 6 -13 6 C-13 5.67 -13 5.34 -13 5 C-12.31292969 4.97421875 -11.62585938 4.9484375 -10.91796875 4.921875 C-10.01691406 4.86515625 -9.11585937 4.8084375 -8.1875 4.75 C-7.29417969 4.70359375 -6.40085937 4.6571875 -5.48046875 4.609375 C-2.36313564 3.84354198 -1.67871312 2.64781249 0 0 Z " fill="#7FCDBC" transform="translate(92,185)"/>
<path d="M0 0 C1.32 0 2.64 0 4 0 C4 2.64 4 5.28 4 8 C4.66 8.33 5.32 8.66 6 9 C4.35 9.33 2.7 9.66 1 10 C0.67 6.7 0.34 3.4 0 0 Z " fill="#8CBAB1" transform="translate(141,137)"/>
<path d="M0 0 C3.96 0 7.92 0 12 0 C12 0.33 12 0.66 12 1 C11.04287109 1.09087891 11.04287109 1.09087891 10.06640625 1.18359375 C9.24011719 1.26738281 8.41382813 1.35117188 7.5625 1.4375 C6.32693359 1.55931641 6.32693359 1.55931641 5.06640625 1.68359375 C3.01337975 1.78930815 3.01337975 1.78930815 2 3 C1.76712992 4.68183948 1.58735834 6.3712416 1.4375 8.0625 C1.35371094 8.98160156 1.26992187 9.90070313 1.18359375 10.84765625 C1.12300781 11.55792969 1.06242188 12.26820313 1 13 C0.67 13 0.34 13 0 13 C0 8.71 0 4.42 0 0 Z " fill="#64B8A7" transform="translate(175,131)"/>
<path d="M0 0 C1.23295192 3.69885575 1.16915385 5.2733221 0 9 C-2.14281205 11.26613936 -4.49168326 13.15314538 -7 15 C-7.66 14.67 -8.32 14.34 -9 14 C-7.8125 11.5625 -7.8125 11.5625 -6 9 C-3.3125 8.1875 -3.3125 8.1875 -1 8 C-1.020625 7.05125 -1.04125 6.1025 -1.0625 5.125 C-1 2 -1 2 0 0 Z " fill="#D10D28" transform="translate(157,107)"/>
<path d="M0 0 C1.98 0 3.96 0 6 0 C6 2.31 6 4.62 6 7 C5.67 6.34 5.34 5.68 5 5 C4.34 5 3.68 5 3 5 C3 4.01 3 3.02 3 2 C2.34 2 1.68 2 1 2 C0.67 3.32 0.34 4.64 0 6 C0 4.02 0 2.04 0 0 Z " fill="#DD3C57" transform="translate(145,100)"/>
<path d="M0 0 C4.29 0 8.58 0 13 0 C13 0.33 13 0.66 13 1 C12.28972656 1.04898438 11.57945313 1.09796875 10.84765625 1.1484375 C9.46900391 1.26058594 9.46900391 1.26058594 8.0625 1.375 C7.14597656 1.44460937 6.22945313 1.51421875 5.28515625 1.5859375 C4.53105469 1.72257813 3.77695313 1.85921875 3 2 C2.67 2.66 2.34 3.32 2 4 C3.32 4.33 4.64 4.66 6 5 C4.02 5 2.04 5 0 5 C0 3.35 0 1.7 0 0 Z " fill="#62BDA7" transform="translate(78,191)"/>
<path d="M0 0 C0.33 0 0.66 0 1 0 C1.33 1.65 1.66 3.3 2 5 C6.29 5.33 10.58 5.66 15 6 C15 6.33 15 6.66 15 7 C9.72 7 4.44 7 -1 7 C-0.67 4.69 -0.34 2.38 0 0 Z " fill="#D56174" transform="translate(84,116)"/>
<path d="M0 0 C4.29 0 8.58 0 13 0 C13 0.33 13 0.66 13 1 C9.04 1 5.08 1 1 1 C1 2.65 1 4.3 1 6 C1.99 6.33 2.98 6.66 4 7 C3.34 7.66 2.68 8.32 2 9 C0 7 0 7 -0.125 3.375 C-0.08375 2.26125 -0.0425 1.1475 0 0 Z " fill="#82898E" transform="translate(138,131)"/>
<path d="M0 0 C1.65 0 3.3 0 5 0 C4.34 1.98 3.68 3.96 3 6 C2.01 6 1.02 6 0 6 C0 4.02 0 2.04 0 0 Z " fill="#E00B2C" transform="translate(108,55)"/>
<path d="M0 0 C2.475 0.495 2.475 0.495 5 1 C5.33 2.32 5.66 3.64 6 5 C4.02 5.66 2.04 6.32 0 7 C0 4.69 0 2.38 0 0 Z " fill="#E25975" transform="translate(143,33)"/>
<path d="M0 0 C1.98 0 3.96 0 6 0 C6.33 0.99 6.66 1.98 7 3 C4.36 2.67 1.72 2.34 -1 2 C-0.67 1.34 -0.34 0.68 0 0 Z M-1 3 C0.98 3 2.96 3 5 3 C4.34 3.66 3.68 4.32 3 5 C1.68 5 0.36 5 -1 5 C-1 4.34 -1 3.68 -1 3 Z " fill="#76A6A4" transform="translate(130,241)"/>
<path d="M0 0 C3.63 0 7.26 0 11 0 C11 2.31 11 4.62 11 7 C9.5 5.625 9.5 5.625 8 4 C8 3.34 8 2.68 8 2 C5.36 1.67 2.72 1.34 0 1 C0 0.67 0 0.34 0 0 Z " fill="#ED546F" transform="translate(119,55)"/>
<path d="M0 0 C1.4540625 0.0309375 1.4540625 0.0309375 2.9375 0.0625 C2.9375 1.0525 2.9375 2.0425 2.9375 3.0625 C1.6175 3.0625 0.2975 3.0625 -1.0625 3.0625 C-1.3925 4.3825 -1.7225 5.7025 -2.0625 7.0625 C-2.7225 7.0625 -3.3825 7.0625 -4.0625 7.0625 C-4.10504356 5.06295254 -4.10330783 3.06208364 -4.0625 1.0625 C-3.0625 0.0625 -3.0625 0.0625 0 0 Z " fill="#86A7A7" transform="translate(171.0625,159.9375)"/>
<path d="M0 0 C3.10408807 -0.05807043 6.2080364 -0.09361914 9.3125 -0.125 C10.19357422 -0.14175781 11.07464844 -0.15851563 11.98242188 -0.17578125 C12.82998047 -0.18222656 13.67753906 -0.18867187 14.55078125 -0.1953125 C15.72120972 -0.21102295 15.72120972 -0.21102295 16.9152832 -0.22705078 C19 0 19 0 22 2 C14.74 1.67 7.48 1.34 0 1 C0 0.67 0 0.34 0 0 Z " fill="#AC636E" transform="translate(183,126)"/>
<path d="M0 0 C1.98 0 3.96 0 6 0 C4.84826645 2.46800047 3.95216435 4.04783565 2 6 C1.67 5.01 1.34 4.02 1 3 C0.34 3 -0.32 3 -1 3 C-0.67 2.01 -0.34 1.02 0 0 Z " fill="#DD405D" transform="translate(94,92)"/>
<path d="M0 0 C0.33 0 0.66 0 1 0 C1 7.26 1 14.52 1 22 C0.67 22 0.34 22 0 22 C0 14.74 0 7.48 0 0 Z " fill="#70BAB0" transform="translate(126,221)"/>
<path d="M0 0 C1.98 0.495 1.98 0.495 4 1 C4 2.32 4 3.64 4 5 C2.35 5 0.7 5 -1 5 C-0.67 3.35 -0.34 1.7 0 0 Z " fill="#5E8E8E" transform="translate(154,124)"/>
<path d="M0 0 C1.2065625 0.0309375 1.2065625 0.0309375 2.4375 0.0625 C1.4475 0.7225 0.4575 1.3825 -0.5625 2.0625 C-1.7813121 5.61922179 -1.7813121 5.61922179 -2.5625 9.0625 C-2.8925 9.0625 -3.2225 9.0625 -3.5625 9.0625 C-3.66015625 2.91015625 -3.66015625 2.91015625 -3.5625 1.0625 C-2.5625 0.0625 -2.5625 0.0625 0 0 Z " fill="#83A09D" transform="translate(146.5625,150.9375)"/>
<path d="M0 0 C0.66 0.66 1.32 1.32 2 2 C1.01 3.98 0.02 5.96 -1 8 C-1.33 6.68 -1.66 5.36 -2 4 C-3.65 4 -5.3 4 -7 4 C-4.61426621 2.10786631 -2.92824652 0.97608217 0 0 Z " fill="#DC405A" transform="translate(83,114)"/>
<path d="M0 0 C0.33 0 0.66 0 1 0 C1 2.31 1 4.62 1 7 C-1.31 7 -3.62 7 -6 7 C-5.071875 6.6596875 -5.071875 6.6596875 -4.125 6.3125 C-1.38589791 4.62070165 -0.94975528 3.00755839 0 0 Z " fill="#C4223D" transform="translate(113,55)"/>
<path d="M0 0 C0.33 0 0.66 0 1 0 C1 3.96 1 7.92 1 12 C0.01 11.01 -0.98 10.02 -2 9 C-1.85546875 6.73828125 -1.85546875 6.73828125 -1.1875 4.3125 C-0.97480469 3.50425781 -0.76210937 2.69601563 -0.54296875 1.86328125 C-0.36378906 1.24839844 -0.18460937 0.63351563 0 0 Z " fill="#DD5A6F" transform="translate(91,43)"/>
<path d="M0 0 C2.475 0.495 2.475 0.495 5 1 C5 1.99 5 2.98 5 4 C3.35 4.33 1.7 4.66 0 5 C0 3.35 0 1.7 0 0 Z " fill="#509E95" transform="translate(159,161)"/>
<path d="M0 0 C0.33 0 0.66 0 1 0 C1 2.31 1 4.62 1 7 C-0.98 7 -2.96 7 -5 7 C-4.01 6.34 -3.02 5.68 -2 5 C-0.79549696 2.44816596 -0.79549696 2.44816596 0 0 Z " fill="#7EA9A5" transform="translate(167,152)"/>
<path d="M0 0 C1.65 0 3.3 0 5 0 C4.67 1.65 4.34 3.3 4 5 C3.01 5 2.02 5 1 5 C0.67 3.35 0.34 1.7 0 0 Z " fill="#519D98" transform="translate(168,152)"/>
<path d="M0 0 C0.66 0.33 1.32 0.66 2 1 C1.34 2.98 0.68 4.96 0 7 C-1.98 7 -3.96 7 -6 7 C-5.195625 6.401875 -4.39125 5.80375 -3.5625 5.1875 C-0.77672016 3.19052724 -0.77672016 3.19052724 0 0 Z " fill="#D42543" transform="translate(135,129)"/>
<path d="M0 0 C0.33 0 0.66 0 1 0 C1 3.63 1 7.26 1 11 C0.67 11 0.34 11 0 11 C0 7.37 0 3.74 0 0 Z " fill="#6FB8AD" transform="translate(125,209)"/>
<path d="M0 0 C0.33 0 0.66 0 1 0 C1 2.97 1 5.94 1 9 C0.67 9 0.34 9 0 9 C0 6.03 0 3.06 0 0 Z " fill="#76B0AA" transform="translate(134,255)"/>
<path d="M0 0 C0.33 0 0.66 0 1 0 C1 2.64 1 5.28 1 8 C0.34 7.34 -0.32 6.68 -1 6 C-0.625 2.875 -0.625 2.875 0 0 Z " fill="#9F7379" transform="translate(141,152)"/>
<path d="M0 0 C2 3 2 3 1.625 5.6875 C1.41875 6.450625 1.2125 7.21375 1 8 C0.67 8 0.34 8 0 8 C0 5.36 0 2.72 0 0 Z " fill="#99ADA8" transform="translate(206,129)"/>
<path d="M0 0 C0.33 0 0.66 0 1 0 C1 2.97 1 5.94 1 9 C0.67 9 0.34 9 0 9 C0 6.03 0 3.06 0 0 Z " fill="#CA4D62" transform="translate(161,40)"/>
<path d="M0 0 C2.97 0 5.94 0 9 0 C9 0.33 9 0.66 9 1 C6.03 1 3.06 1 0 1 C0 0.67 0 0.34 0 0 Z " fill="#E61839" transform="translate(150,37)"/>
<path d="M0 0 C0.33 0 0.66 0 1 0 C1 2.64 1 5.28 1 8 C0.67 8 0.34 8 0 8 C0 5.36 0 2.72 0 0 Z " fill="#6BB4AA" transform="translate(133,247)"/>
<path d="M0 0 C0.33 0 0.66 0 1 0 C1 2.64 1 5.28 1 8 C0.67 8 0.34 8 0 8 C0 5.36 0 2.72 0 0 Z " fill="#E04A61" transform="translate(89,40)"/>
<path d="M0 0 C2.475 0.495 2.475 0.495 5 1 C5 1.33 5 1.66 5 2 C3.35 2 1.7 2 0 2 C0 1.34 0 0.68 0 0 Z " fill="#A8666F" transform="translate(166,141)"/>
<path d="M0 0 C0.33 0 0.66 0 1 0 C1 1.98 1 3.96 1 6 C0.67 6 0.34 6 0 6 C0 4.02 0 2.04 0 0 Z " fill="#74AAA1" transform="translate(73,190)"/>
<path d="M0 0 C1.98 0 3.96 0 6 0 C6 0.33 6 0.66 6 1 C4.02 1 2.04 1 0 1 C0 0.67 0 0.34 0 0 Z " fill="#AD636E" transform="translate(174,127)"/>
<path d="M0 0 C0.33 0 0.66 0 1 0 C1 1.65 1 3.3 1 5 C0.67 5 0.34 5 0 5 C0 3.35 0 1.7 0 0 Z " fill="#82A4A2" transform="translate(134,181)"/>
<path d="M0 0 C1.65 0 3.3 0 5 0 C5 0.33 5 0.66 5 1 C3.35 1 1.7 1 0 1 C0 0.67 0 0.34 0 0 Z " fill="#929294" transform="translate(189,155)"/>
<path d="M0 0 C0.33 0 0.66 0 1 0 C1 1.65 1 3.3 1 5 C0.67 5 0.34 5 0 5 C0 3.35 0 1.7 0 0 Z " fill="#E6435F" transform="translate(74,55)"/>
<path d="M0 0 C4 1 4 1 4 1 Z " fill="#7F9C98" transform="translate(82,186)"/>
<path d="M0 0 C3 1 3 1 3 1 Z " fill="#8FBEB5" transform="translate(149,184)"/>
<path d="M0 0 C3 1 3 1 3 1 Z " fill="#88A0A0" transform="translate(194,154)"/>
<path d="M0 0 C3 1 3 1 3 1 Z " fill="#C9596E" transform="translate(171,102)"/>
<path d="" fill="#73ACA8" transform="translate(0,0)"/>
<path d="" fill="#6DAFA9" transform="translate(0,0)"/>
<path d="" fill="#6EB7AD" transform="translate(0,0)"/>
<path d="" fill="#82B1AE" transform="translate(0,0)"/>
<path d="M0 0 C2 1 2 1 2 1 Z " fill="#90A19D" transform="translate(144,172)"/>
<path d="M0 0 C2 1 2 1 2 1 Z " fill="#8CA5A3" transform="translate(165,169)"/>
<path d="" fill="#C55869" transform="translate(0,0)"/>
<path d="" fill="#D9526D" transform="translate(0,0)"/>
<path d="" fill="#6C9F9C" transform="translate(0,0)"/>
<path d="" fill="#6C9F9C" transform="translate(0,0)"/>
<path d="" fill="#74A2A1" transform="translate(0,0)"/>
<path d="" fill="#66ADA3" transform="translate(0,0)"/>
<path d="" fill="#6AB4AA" transform="translate(0,0)"/>
<path d="" fill="#6CB5AB" transform="translate(0,0)"/>
<path d="" fill="#6DB7AC" transform="translate(0,0)"/>
<path d="" fill="#6EB7AD" transform="translate(0,0)"/>
<path d="" fill="#6AB0A6" transform="translate(0,0)"/>
<path d="" fill="#6DB3AA" transform="translate(0,0)"/>
<path d="" fill="#6EB6AC" transform="translate(0,0)"/>
<path d="" fill="#81B0AD" transform="translate(0,0)"/>
<path d="" fill="#75A5A2" transform="translate(0,0)"/>
<path d="" fill="#74B9AC" transform="translate(0,0)"/>
<path d="" fill="#8FBEB8" transform="translate(0,0)"/>
<path d="" fill="#69A39A" transform="translate(0,0)"/>
<path d="" fill="#7CAEA6" transform="translate(0,0)"/>
<path d="" fill="#81A9A2" transform="translate(0,0)"/>
<path d="" fill="#7A9995" transform="translate(0,0)"/>
<path d="" fill="#818F8C" transform="translate(0,0)"/>
<path d="" fill="#818F8C" transform="translate(0,0)"/>
<path d="" fill="#8AA5A0" transform="translate(0,0)"/>
<path d="" fill="#8ABAB0" transform="translate(0,0)"/>
<path d="" fill="#819C98" transform="translate(0,0)"/>
<path d="" fill="#889E9C" transform="translate(0,0)"/>
<path d="" fill="#92C0B8" transform="translate(0,0)"/>
<path d="" fill="#97C3BB" transform="translate(0,0)"/>
<path d="" fill="#8F8083" transform="translate(0,0)"/>
<path d="" fill="#8B8F8F" transform="translate(0,0)"/>
<path d="" fill="#7F8282" transform="translate(0,0)"/>
<path d="" fill="#8E7C7F" transform="translate(0,0)"/>
<path d="" fill="#948285" transform="translate(0,0)"/>
<path d="" fill="#887679" transform="translate(0,0)"/>
<path d="" fill="#839F9C" transform="translate(0,0)"/>
<path d="" fill="#89797B" transform="translate(0,0)"/>
<path d="" fill="#88A3A0" transform="translate(0,0)"/>
<path d="" fill="#8C7175" transform="translate(0,0)"/>
<path d="" fill="#879C9F" transform="translate(0,0)"/>
<path d="" fill="#9E777C" transform="translate(0,0)"/>
<path d="" fill="#9D767C" transform="translate(0,0)"/>
<path d="" fill="#9D767C" transform="translate(0,0)"/>
<path d="" fill="#908688" transform="translate(0,0)"/>
<path d="" fill="#9E8C8F" transform="translate(0,0)"/>
<path d="" fill="#A3525E" transform="translate(0,0)"/>
<path d="" fill="#BE485A" transform="translate(0,0)"/>
<path d="" fill="#9B8285" transform="translate(0,0)"/>
<path d="" fill="#94B5AF" transform="translate(0,0)"/>
<path d="" fill="#BE5C68" transform="translate(0,0)"/>
<path d="" fill="#CA5165" transform="translate(0,0)"/>
<path d="" fill="#E31D3D" transform="translate(0,0)"/>
<path d="" fill="#C65C6B" transform="translate(0,0)"/>
<path d="" fill="#C83B52" transform="translate(0,0)"/>
<path d="" fill="#B0475A" transform="translate(0,0)"/>
<path d="" fill="#AB4456" transform="translate(0,0)"/>
<path d="" fill="#D61B39" transform="translate(0,0)"/>
<path d="" fill="#E81C3D" transform="translate(0,0)"/>
<path d="" fill="#D11936" transform="translate(0,0)"/>
<path d="" fill="#E21B3B" transform="translate(0,0)"/>
<path d="" fill="#D61B39" transform="translate(0,0)"/>
<path d="" fill="#E61D3D" transform="translate(0,0)"/>
<path d="" fill="#C34757" transform="translate(0,0)"/>
<path d="" fill="#D51A38" transform="translate(0,0)"/>
</svg>
